<?xml version="1.0" encoding="UTF-8" standalone="no"?>
<!DOCTYPE svg PUBLIC "-//W3C//DTD SVG 1.1//EN"
 "http://www.w3.org/Graphics/SVG/1.1/DTD/svg11.dtd">
<!-- Generated by graphviz version 2.42.4 (0)
 -->
<!-- Title: include/Allocator/vkstMallocAllocator.hpp Pages: 1 -->
<svg width="433pt" height="203pt"
 viewBox="0.00 0.00 432.50 203.00" xmlns="http://www.w3.org/2000/svg" xmlns:xlink="http://www.w3.org/1999/xlink">
<g id="graph0" class="graph" transform="scale(1 1) rotate(0) translate(4 199)">
<title>include/Allocator/vkstMallocAllocator.hpp</title>
<!-- Node1 -->
<g id="Node000001" class="node">
<title>Node1</title>
<g id="a_Node000001"><a xlink:title=" ">
<polygon fill="#999999" stroke="#666666" points="194.5,-195 55.5,-195 55.5,-165 194.5,-165 194.5,-195"/>
<text text-anchor="start" x="63.5" y="-183" font-family="Helvetica,sans-Serif" font-size="10.00">include/Allocator/vkstMalloc</text>
<text text-anchor="middle" x="125" y="-172" font-family="Helvetica,sans-Serif" font-size="10.00">Allocator.hpp</text>
</a>
</g>
</g>
<!-- Node2 -->
<g id="Node000002" class="node">
<title>Node2</title>
<g id="a_Node000002"><a xlink:href="../../d0/dcf/vkstAllocatorTraits_8hpp.html" target="_top" xlink:title=" ">
<polygon fill="white" stroke="#666666" points="183.5,-129 66.5,-129 66.5,-110 183.5,-110 183.5,-129"/>
<text text-anchor="middle" x="125" y="-117" font-family="Helvetica,sans-Serif" font-size="10.00">vkstAllocatorTraits.hpp</text>
</a>
</g>
</g>
<!-- Node1&#45;&gt;Node2 -->
<g id="edge1_Node000001_Node000002" class="edge">
<title>Node1&#45;&gt;Node2</title>
<g id="a_edge1_Node000001_Node000002"><a xlink:title=" ">
<path fill="none" stroke="#63b8ff" d="M125,-164.84C125,-157.21 125,-147.7 125,-139.45"/>
<polygon fill="#63b8ff" stroke="#63b8ff" points="128.5,-139.27 125,-129.27 121.5,-139.27 128.5,-139.27"/>
</a>
</g>
</g>
<!-- Node3 -->
<g id="Node000003" class="node">
<title>Node3</title>
<g id="a_Node000003"><a xlink:title=" ">
<polygon fill="#e0e0e0" stroke="#999999" points="46,-74 0,-74 0,-55 46,-55 46,-74"/>
<text text-anchor="middle" x="23" y="-62" font-family="Helvetica,sans-Serif" font-size="10.00">stdio.h</text>
</a>
</g>
</g>
<!-- Node2&#45;&gt;Node3 -->
<g id="edge2_Node000002_Node000003" class="edge">
<title>Node2&#45;&gt;Node3</title>
<g id="a_edge2_Node000002_Node000003"><a xlink:title=" ">
<path fill="none" stroke="#63b8ff" d="M108.61,-109.98C92.43,-101.57 67.43,-88.59 48.62,-78.81"/>
<polygon fill="#63b8ff" stroke="#63b8ff" points="50.17,-75.68 39.69,-74.17 46.95,-81.89 50.17,-75.68"/>
</a>
</g>
</g>
<!-- Node4 -->
<g id="Node000004" class="node">
<title>Node4</title>
<g id="a_Node000004"><a xlink:title=" ">
<polygon fill="#e0e0e0" stroke="#999999" points="141,-19 79,-19 79,0 141,0 141,-19"/>
<text text-anchor="middle" x="110" y="-7" font-family="Helvetica,sans-Serif" font-size="10.00">type_traits</text>
</a>
</g>
</g>
<!-- Node2&#45;&gt;Node4 -->
<g id="edge3_Node000002_Node000004" class="edge">
<title>Node2&#45;&gt;Node4</title>
<g id="a_edge3_Node000002_Node000004"><a xlink:title=" ">
<path fill="none" stroke="#63b8ff" d="M116.25,-109.9C108.44,-101.56 97.55,-88.13 93,-74 88.08,-58.74 93.68,-41.11 99.73,-28.31"/>
<polygon fill="#63b8ff" stroke="#63b8ff" points="102.96,-29.69 104.49,-19.21 96.76,-26.45 102.96,-29.69"/>
</a>
</g>
</g>
<!-- Node5 -->
<g id="Node000005" class="node">
<title>Node5</title>
<g id="a_Node000005"><a xlink:title=" ">
<polygon fill="#e0e0e0" stroke="#999999" points="147.5,-74 102.5,-74 102.5,-55 147.5,-55 147.5,-74"/>
<text text-anchor="middle" x="125" y="-62" font-family="Helvetica,sans-Serif" font-size="10.00">cstdlib</text>
</a>
</g>
</g>
<!-- Node2&#45;&gt;Node5 -->
<g id="edge4_Node000002_Node000005" class="edge">
<title>Node2&#45;&gt;Node5</title>
<g id="a_edge4_Node000002_Node000005"><a xlink:title=" ">
<path fill="none" stroke="#63b8ff" d="M125,-109.75C125,-102.8 125,-92.85 125,-84.13"/>
<polygon fill="#63b8ff" stroke="#63b8ff" points="128.5,-84.09 125,-74.09 121.5,-84.09 128.5,-84.09"/>
</a>
</g>
</g>
<!-- Node6 -->
<g id="Node000006" class="node">
<title>Node6</title>
<g id="a_Node000006"><a xlink:title=" ">
<polygon fill="#e0e0e0" stroke="#999999" points="218,-74 166,-74 166,-55 218,-55 218,-74"/>
<text text-anchor="middle" x="192" y="-62" font-family="Helvetica,sans-Serif" font-size="10.00">memory</text>
</a>
</g>
</g>
<!-- Node2&#45;&gt;Node6 -->
<g id="edge5_Node000002_Node000006" class="edge">
<title>Node2&#45;&gt;Node6</title>
<g id="a_edge5_Node000002_Node000006"><a xlink:title=" ">
<path fill="none" stroke="#63b8ff" d="M135.76,-109.98C145.77,-102.07 160.89,-90.11 172.93,-80.58"/>
<polygon fill="#63b8ff" stroke="#63b8ff" points="175.37,-83.12 181.04,-74.17 171.03,-77.63 175.37,-83.12"/>
</a>
</g>
</g>
<!-- Node7 -->
<g id="Node000007" class="node">
<title>Node7</title>
<g id="a_Node000007"><a xlink:href="../../d0/d1f/vkstAlignment_8hpp.html" target="_top" xlink:title=" ">
<polygon fill="white" stroke="#666666" points="343.5,-74 236.5,-74 236.5,-55 343.5,-55 343.5,-74"/>
<text text-anchor="middle" x="290" y="-62" font-family="Helvetica,sans-Serif" font-size="10.00">../vkstAlignment.hpp</text>
</a>
</g>
</g>
<!-- Node2&#45;&gt;Node7 -->
<g id="edge6_Node000002_Node000007" class="edge">
<title>Node2&#45;&gt;Node7</title>
<g id="a_edge6_Node000002_Node000007"><a xlink:title=" ">
<path fill="none" stroke="#63b8ff" d="M151.51,-109.98C179.21,-101.09 222.86,-87.07 253.74,-77.15"/>
<polygon fill="#63b8ff" stroke="#63b8ff" points="254.83,-80.47 263.28,-74.08 252.69,-73.81 254.83,-80.47"/>
</a>
</g>
</g>
<!-- Node7&#45;&gt;Node4 -->
<g id="edge11_Node000007_Node000004" class="edge">
<title>Node7&#45;&gt;Node4</title>
<g id="a_edge11_Node000007_Node000004"><a xlink:title=" ">
<path fill="none" stroke="#63b8ff" d="M261.08,-54.98C230.73,-46.05 182.83,-31.94 149.12,-22.02"/>
<polygon fill="#63b8ff" stroke="#63b8ff" points="149.73,-18.55 139.15,-19.08 147.75,-25.26 149.73,-18.55"/>
</a>
</g>
</g>
<!-- Node8 -->
<g id="Node000008" class="node">
<title>Node8</title>
<g id="a_Node000008"><a xlink:title=" ">
<polygon fill="#e0e0e0" stroke="#999999" points="213,-19 161,-19 161,0 213,0 213,-19"/>
<text text-anchor="middle" x="187" y="-7" font-family="Helvetica,sans-Serif" font-size="10.00">stddef.h</text>
</a>
</g>
</g>
<!-- Node7&#45;&gt;Node8 -->
<g id="edge7_Node000007_Node000008" class="edge">
<title>Node7&#45;&gt;Node8</title>
<g id="a_edge7_Node000007_Node000008"><a xlink:title=" ">
<path fill="none" stroke="#63b8ff" d="M273.45,-54.98C257.11,-46.57 231.87,-33.59 212.87,-23.81"/>
<polygon fill="#63b8ff" stroke="#63b8ff" points="214.34,-20.63 203.85,-19.17 211.14,-26.86 214.34,-20.63"/>
</a>
</g>
</g>
<!-- Node9 -->
<g id="Node000009" class="node">
<title>Node9</title>
<g id="a_Node000009"><a xlink:title=" ">
<polygon fill="#e0e0e0" stroke="#999999" points="280.5,-19 231.5,-19 231.5,0 280.5,0 280.5,-19"/>
<text text-anchor="middle" x="256" y="-7" font-family="Helvetica,sans-Serif" font-size="10.00">stdint.h</text>
</a>
</g>
</g>
<!-- Node7&#45;&gt;Node9 -->
<g id="edge8_Node000007_Node000009" class="edge">
<title>Node7&#45;&gt;Node9</title>
<g id="a_edge8_Node000007_Node000009"><a xlink:title=" ">
<path fill="none" stroke="#63b8ff" d="M284.39,-54.75C279.68,-47.42 272.83,-36.73 267.03,-27.7"/>
<polygon fill="#63b8ff" stroke="#63b8ff" points="269.86,-25.62 261.51,-19.09 263.96,-29.4 269.86,-25.62"/>
</a>
</g>
</g>
<!-- Node10 -->
<g id="Node000010" class="node">
<title>Node10</title>
<g id="a_Node000010"><a xlink:title=" ">
<polygon fill="#e0e0e0" stroke="#999999" points="347,-19 299,-19 299,0 347,0 347,-19"/>
<text text-anchor="middle" x="323" y="-7" font-family="Helvetica,sans-Serif" font-size="10.00">limits.h</text>
</a>
</g>
</g>
<!-- Node7&#45;&gt;Node10 -->
<g id="edge9_Node000007_Node000010" class="edge">
<title>Node7&#45;&gt;Node10</title>
<g id="a_edge9_Node000007_Node000010"><a xlink:title=" ">
<path fill="none" stroke="#63b8ff" d="M295.45,-54.75C300.01,-47.42 306.67,-36.73 312.29,-27.7"/>
<polygon fill="#63b8ff" stroke="#63b8ff" points="315.34,-29.43 317.65,-19.09 309.4,-25.73 315.34,-29.43"/>
</a>
</g>
</g>
<!-- Node11 -->
<g id="Node000011" class="node">
<title>Node11</title>
<g id="a_Node000011"><a xlink:title=" ">
<polygon fill="#e0e0e0" stroke="#999999" points="424.5,-19 365.5,-19 365.5,0 424.5,0 424.5,-19"/>
<text text-anchor="middle" x="395" y="-7" font-family="Helvetica,sans-Serif" font-size="10.00">stdalign.h</text>
</a>
</g>
</g>
<!-- Node7&#45;&gt;Node11 -->
<g id="edge10_Node000007_Node000011" class="edge">
<title>Node7&#45;&gt;Node11</title>
<g id="a_edge10_Node000007_Node000011"><a xlink:title=" ">
<path fill="none" stroke="#63b8ff" d="M306.87,-54.98C323.61,-46.54 349.5,-33.47 368.89,-23.68"/>
<polygon fill="#63b8ff" stroke="#63b8ff" points="370.47,-26.8 377.82,-19.17 367.32,-20.55 370.47,-26.8"/>
</a>
</g>
</g>
</g>
</svg>
