<?xml version="1.0" encoding="UTF-8" standalone="no"?>
<!DOCTYPE svg PUBLIC "-//W3C//DTD SVG 1.1//EN"
 "http://www.w3.org/Graphics/SVG/1.1/DTD/svg11.dtd">
<!-- Generated by graphviz version 2.42.4 (0)
 -->
<!-- Title: include/Allocator/vkstMallocAllocator.hpp Pages: 1 -->
<svg width="584pt" height="258pt"
 viewBox="0.00 0.00 584.00 258.00" xmlns="http://www.w3.org/2000/svg" xmlns:xlink="http://www.w3.org/1999/xlink">
<g id="graph0" class="graph" transform="scale(1 1) rotate(0) translate(4 254)">
<title>include/Allocator/vkstMallocAllocator.hpp</title>
<!-- Node1 -->
<g id="Node000001" class="node">
<title>Node1</title>
<g id="a_Node000001"><a xlink:title=" ">
<polygon fill="#999999" stroke="#666666" points="444.5,-250 305.5,-250 305.5,-220 444.5,-220 444.5,-250"/>
<text text-anchor="start" x="313.5" y="-238" font-family="Helvetica,sans-Serif" font-size="10.00">include/Allocator/vkstMalloc</text>
<text text-anchor="middle" x="375" y="-227" font-family="Helvetica,sans-Serif" font-size="10.00">Allocator.hpp</text>
</a>
</g>
</g>
<!-- Node2 -->
<g id="Node000002" class="node">
<title>Node2</title>
<g id="a_Node000002"><a xlink:href="../../d0/dd1/vkstAllocatorBase_8hpp.html" target="_top" xlink:title=" ">
<polygon fill="white" stroke="#666666" points="389.5,-184 274.5,-184 274.5,-165 389.5,-165 389.5,-184"/>
<text text-anchor="middle" x="332" y="-172" font-family="Helvetica,sans-Serif" font-size="10.00">vkstAllocatorBase.hpp</text>
</a>
</g>
</g>
<!-- Node1&#45;&gt;Node2 -->
<g id="edge1_Node000001_Node000002" class="edge">
<title>Node1&#45;&gt;Node2</title>
<g id="a_edge1_Node000001_Node000002"><a xlink:title=" ">
<path fill="none" stroke="#63b8ff" d="M364.59,-219.84C358.54,-211.61 350.88,-201.18 344.5,-192.51"/>
<polygon fill="#63b8ff" stroke="#63b8ff" points="347.19,-190.25 338.44,-184.27 341.55,-194.4 347.19,-190.25"/>
</a>
</g>
</g>
<!-- Node10 -->
<g id="Node000010" class="node">
<title>Node10</title>
<g id="a_Node000010"><a xlink:href="../../d0/dcf/vkstAllocatorTraits_8hpp.html" target="_top" xlink:title=" ">
<polygon fill="white" stroke="#666666" points="477.5,-129 360.5,-129 360.5,-110 477.5,-110 477.5,-129"/>
<text text-anchor="middle" x="419" y="-117" font-family="Helvetica,sans-Serif" font-size="10.00">vkstAllocatorTraits.hpp</text>
</a>
</g>
</g>
<!-- Node1&#45;&gt;Node10 -->
<g id="edge22_Node000001_Node000010" class="edge">
<title>Node1&#45;&gt;Node10</title>
<g id="a_edge22_Node000001_Node000010"><a xlink:title=" ">
<path fill="none" stroke="#63b8ff" d="M382.07,-219.74C386.86,-209.84 393.17,-196.27 398,-184 403.86,-169.13 409.49,-151.89 413.44,-139.13"/>
<polygon fill="#63b8ff" stroke="#63b8ff" points="416.89,-139.82 416.45,-129.24 410.19,-137.79 416.89,-139.82"/>
</a>
</g>
</g>
<!-- Node3 -->
<g id="Node000003" class="node">
<title>Node3</title>
<g id="a_Node000003"><a xlink:title=" ">
<polygon fill="#e0e0e0" stroke="#999999" points="278,-74 232,-74 232,-55 278,-55 278,-74"/>
<text text-anchor="middle" x="255" y="-62" font-family="Helvetica,sans-Serif" font-size="10.00">stdio.h</text>
</a>
</g>
</g>
<!-- Node2&#45;&gt;Node3 -->
<g id="edge2_Node000002_Node000003" class="edge">
<title>Node2&#45;&gt;Node3</title>
<g id="a_edge2_Node000002_Node000003"><a xlink:title=" ">
<path fill="none" stroke="#63b8ff" d="M325.7,-164.66C312.89,-146.69 283.62,-105.64 267.04,-82.38"/>
<polygon fill="#63b8ff" stroke="#63b8ff" points="269.83,-80.27 261.17,-74.16 264.13,-84.33 269.83,-80.27"/>
</a>
</g>
</g>
<!-- Node4 -->
<g id="Node000004" class="node">
<title>Node4</title>
<g id="a_Node000004"><a xlink:href="../../d1/d72/vkstAllocatorFilter_8hpp.html" target="_top" xlink:title=" ">
<polygon fill="white" stroke="#666666" points="231.5,-129 118.5,-129 118.5,-110 231.5,-110 231.5,-129"/>
<text text-anchor="middle" x="175" y="-117" font-family="Helvetica,sans-Serif" font-size="10.00">vkstAllocatorFilter.hpp</text>
</a>
</g>
</g>
<!-- Node2&#45;&gt;Node4 -->
<g id="edge3_Node000002_Node000004" class="edge">
<title>Node2&#45;&gt;Node4</title>
<g id="a_edge3_Node000002_Node000004"><a xlink:title=" ">
<path fill="none" stroke="#63b8ff" d="M306.78,-164.98C280.64,-156.16 239.6,-142.31 210.27,-132.41"/>
<polygon fill="#63b8ff" stroke="#63b8ff" points="211.02,-128.96 200.42,-129.08 208.78,-135.6 211.02,-128.96"/>
</a>
</g>
</g>
<!-- Node2&#45;&gt;Node10 -->
<g id="edge10_Node000002_Node000010" class="edge">
<title>Node2&#45;&gt;Node10</title>
<g id="a_edge10_Node000002_Node000010"><a xlink:title=" ">
<path fill="none" stroke="#63b8ff" d="M345.98,-164.98C359.47,-156.77 380.13,-144.18 396.04,-134.49"/>
<polygon fill="#63b8ff" stroke="#63b8ff" points="398.05,-137.36 404.77,-129.17 394.41,-131.38 398.05,-137.36"/>
</a>
</g>
</g>
<!-- Node14 -->
<g id="Node000014" class="node">
<title>Node14</title>
<g id="a_Node000014"><a xlink:href="../../d0/d1f/vkstAlignment_8hpp.html" target="_top" xlink:title=" ">
<polygon fill="white" stroke="#666666" points="403.5,-74 296.5,-74 296.5,-55 403.5,-55 403.5,-74"/>
<text text-anchor="middle" x="350" y="-62" font-family="Helvetica,sans-Serif" font-size="10.00">../vkstAlignment.hpp</text>
</a>
</g>
</g>
<!-- Node2&#45;&gt;Node14 -->
<g id="edge21_Node000002_Node000014" class="edge">
<title>Node2&#45;&gt;Node14</title>
<g id="a_edge21_Node000002_Node000014"><a xlink:title=" ">
<path fill="none" stroke="#63b8ff" d="M333.47,-164.66C336.39,-147.17 342.95,-107.8 346.87,-84.27"/>
<polygon fill="#63b8ff" stroke="#63b8ff" points="350.37,-84.6 348.56,-74.16 343.46,-83.45 350.37,-84.6"/>
</a>
</g>
</g>
<!-- Node4&#45;&gt;Node3 -->
<g id="edge4_Node000004_Node000003" class="edge">
<title>Node4&#45;&gt;Node3</title>
<g id="a_edge4_Node000004_Node000003"><a xlink:title=" ">
<path fill="none" stroke="#63b8ff" d="M187.85,-109.98C200.14,-101.84 218.91,-89.41 233.48,-79.76"/>
<polygon fill="#63b8ff" stroke="#63b8ff" points="235.51,-82.61 241.91,-74.17 231.64,-76.78 235.51,-82.61"/>
</a>
</g>
</g>
<!-- Node5 -->
<g id="Node000005" class="node">
<title>Node5</title>
<g id="a_Node000005"><a xlink:title=" ">
<polygon fill="#e0e0e0" stroke="#999999" points="86,-74 34,-74 34,-55 86,-55 86,-74"/>
<text text-anchor="middle" x="60" y="-62" font-family="Helvetica,sans-Serif" font-size="10.00">sstream</text>
</a>
</g>
</g>
<!-- Node4&#45;&gt;Node5 -->
<g id="edge5_Node000004_Node000005" class="edge">
<title>Node4&#45;&gt;Node5</title>
<g id="a_edge5_Node000004_Node000005"><a xlink:title=" ">
<path fill="none" stroke="#63b8ff" d="M156.52,-109.98C138.02,-101.46 109.32,-88.23 88.02,-78.41"/>
<polygon fill="#63b8ff" stroke="#63b8ff" points="89.36,-75.18 78.81,-74.17 86.43,-81.53 89.36,-75.18"/>
</a>
</g>
</g>
<!-- Node6 -->
<g id="Node000006" class="node">
<title>Node6</title>
<g id="a_Node000006"><a xlink:href="../../d4/d45/vkstLogging_8hpp.html" target="_top" xlink:title=" ">
<polygon fill="white" stroke="#666666" points="201.5,-74 104.5,-74 104.5,-55 201.5,-55 201.5,-74"/>
<text text-anchor="middle" x="153" y="-62" font-family="Helvetica,sans-Serif" font-size="10.00">../vkstLogging.hpp</text>
</a>
</g>
</g>
<!-- Node4&#45;&gt;Node6 -->
<g id="edge6_Node000004_Node000006" class="edge">
<title>Node4&#45;&gt;Node6</title>
<g id="a_edge6_Node000004_Node000006"><a xlink:title=" ">
<path fill="none" stroke="#63b8ff" d="M171.37,-109.75C168.42,-102.65 164.17,-92.4 160.49,-83.56"/>
<polygon fill="#63b8ff" stroke="#63b8ff" points="163.63,-81.98 156.57,-74.09 157.17,-84.67 163.63,-81.98"/>
</a>
</g>
</g>
<!-- Node7 -->
<g id="Node000007" class="node">
<title>Node7</title>
<g id="a_Node000007"><a xlink:title=" ">
<polygon fill="#e0e0e0" stroke="#999999" points="180,-19 126,-19 126,0 180,0 180,-19"/>
<text text-anchor="middle" x="153" y="-7" font-family="Helvetica,sans-Serif" font-size="10.00">iostream</text>
</a>
</g>
</g>
<!-- Node6&#45;&gt;Node7 -->
<g id="edge7_Node000006_Node000007" class="edge">
<title>Node6&#45;&gt;Node7</title>
<g id="a_edge7_Node000006_Node000007"><a xlink:title=" ">
<path fill="none" stroke="#63b8ff" d="M153,-54.75C153,-47.8 153,-37.85 153,-29.13"/>
<polygon fill="#63b8ff" stroke="#63b8ff" points="156.5,-29.09 153,-19.09 149.5,-29.09 156.5,-29.09"/>
</a>
</g>
</g>
<!-- Node8 -->
<g id="Node000008" class="node">
<title>Node8</title>
<g id="a_Node000008"><a xlink:title=" ">
<polygon fill="#e0e0e0" stroke="#999999" points="46,-19 0,-19 0,0 46,0 46,-19"/>
<text text-anchor="middle" x="23" y="-7" font-family="Helvetica,sans-Serif" font-size="10.00">atomic</text>
</a>
</g>
</g>
<!-- Node6&#45;&gt;Node8 -->
<g id="edge8_Node000006_Node000008" class="edge">
<title>Node6&#45;&gt;Node8</title>
<g id="a_edge8_Node000006_Node000008"><a xlink:title=" ">
<path fill="none" stroke="#63b8ff" d="M132.11,-54.98C110.92,-46.34 77.87,-32.87 53.7,-23.02"/>
<polygon fill="#63b8ff" stroke="#63b8ff" points="54.85,-19.7 44.27,-19.17 52.21,-26.19 54.85,-19.7"/>
</a>
</g>
</g>
<!-- Node9 -->
<g id="Node000009" class="node">
<title>Node9</title>
<g id="a_Node000009"><a xlink:title=" ">
<polygon fill="#e0e0e0" stroke="#999999" points="108,-19 64,-19 64,0 108,0 108,-19"/>
<text text-anchor="middle" x="86" y="-7" font-family="Helvetica,sans-Serif" font-size="10.00">mutex</text>
</a>
</g>
</g>
<!-- Node6&#45;&gt;Node9 -->
<g id="edge9_Node000006_Node000009" class="edge">
<title>Node6&#45;&gt;Node9</title>
<g id="a_edge9_Node000006_Node000009"><a xlink:title=" ">
<path fill="none" stroke="#63b8ff" d="M142.24,-54.98C132.23,-47.07 117.11,-35.11 105.07,-25.58"/>
<polygon fill="#63b8ff" stroke="#63b8ff" points="106.97,-22.63 96.96,-19.17 102.63,-28.12 106.97,-22.63"/>
</a>
</g>
</g>
<!-- Node10&#45;&gt;Node3 -->
<g id="edge11_Node000010_Node000003" class="edge">
<title>Node10&#45;&gt;Node3</title>
<g id="a_edge11_Node000010_Node000003"><a xlink:title=" ">
<path fill="none" stroke="#63b8ff" d="M392.65,-109.98C364.18,-100.78 318.76,-86.1 287.95,-76.15"/>
<polygon fill="#63b8ff" stroke="#63b8ff" points="288.7,-72.71 278.1,-72.97 286.54,-79.37 288.7,-72.71"/>
</a>
</g>
</g>
<!-- Node11 -->
<g id="Node000011" class="node">
<title>Node11</title>
<g id="a_Node000011"><a xlink:title=" ">
<polygon fill="#e0e0e0" stroke="#999999" points="542,-19 480,-19 480,0 542,0 542,-19"/>
<text text-anchor="middle" x="511" y="-7" font-family="Helvetica,sans-Serif" font-size="10.00">type_traits</text>
</a>
</g>
</g>
<!-- Node10&#45;&gt;Node11 -->
<g id="edge12_Node000010_Node000011" class="edge">
<title>Node10&#45;&gt;Node11</title>
<g id="a_edge12_Node000010_Node000011"><a xlink:title=" ">
<path fill="none" stroke="#63b8ff" d="M421.85,-109.96C426.46,-97.03 436.53,-72.19 451,-55 461.12,-42.98 475.09,-32.38 487.01,-24.53"/>
<polygon fill="#63b8ff" stroke="#63b8ff" points="489.03,-27.39 495.62,-19.1 485.3,-21.47 489.03,-27.39"/>
</a>
</g>
</g>
<!-- Node12 -->
<g id="Node000012" class="node">
<title>Node12</title>
<g id="a_Node000012"><a xlink:title=" ">
<polygon fill="#e0e0e0" stroke="#999999" points="505.5,-74 460.5,-74 460.5,-55 505.5,-55 505.5,-74"/>
<text text-anchor="middle" x="483" y="-62" font-family="Helvetica,sans-Serif" font-size="10.00">cstdlib</text>
</a>
</g>
</g>
<!-- Node10&#45;&gt;Node12 -->
<g id="edge13_Node000010_Node000012" class="edge">
<title>Node10&#45;&gt;Node12</title>
<g id="a_edge13_Node000010_Node000012"><a xlink:title=" ">
<path fill="none" stroke="#63b8ff" d="M429.28,-109.98C438.84,-102.07 453.28,-90.11 464.78,-80.58"/>
<polygon fill="#63b8ff" stroke="#63b8ff" points="467.06,-83.24 472.53,-74.17 462.6,-77.85 467.06,-83.24"/>
</a>
</g>
</g>
<!-- Node13 -->
<g id="Node000013" class="node">
<title>Node13</title>
<g id="a_Node000013"><a xlink:title=" ">
<polygon fill="#e0e0e0" stroke="#999999" points="576,-74 524,-74 524,-55 576,-55 576,-74"/>
<text text-anchor="middle" x="550" y="-62" font-family="Helvetica,sans-Serif" font-size="10.00">memory</text>
</a>
</g>
</g>
<!-- Node10&#45;&gt;Node13 -->
<g id="edge14_Node000010_Node000013" class="edge">
<title>Node10&#45;&gt;Node13</title>
<g id="a_edge14_Node000010_Node000013"><a xlink:title=" ">
<path fill="none" stroke="#63b8ff" d="M440.05,-109.98C461.41,-101.34 494.7,-87.87 519.06,-78.02"/>
<polygon fill="#63b8ff" stroke="#63b8ff" points="520.61,-81.17 528.57,-74.17 517.99,-74.68 520.61,-81.17"/>
</a>
</g>
</g>
<!-- Node10&#45;&gt;Node14 -->
<g id="edge15_Node000010_Node000014" class="edge">
<title>Node10&#45;&gt;Node14</title>
<g id="a_edge15_Node000010_Node000014"><a xlink:title=" ">
<path fill="none" stroke="#63b8ff" d="M407.91,-109.98C397.51,-102 381.74,-89.88 369.28,-80.31"/>
<polygon fill="#63b8ff" stroke="#63b8ff" points="371.35,-77.49 361.29,-74.17 367.09,-83.04 371.35,-77.49"/>
</a>
</g>
</g>
<!-- Node14&#45;&gt;Node11 -->
<g id="edge20_Node000014_Node000011" class="edge">
<title>Node14&#45;&gt;Node11</title>
<g id="a_edge20_Node000014_Node000011"><a xlink:title=" ">
<path fill="none" stroke="#63b8ff" d="M375.87,-54.98C402.78,-46.13 445.12,-32.19 475.23,-22.28"/>
<polygon fill="#63b8ff" stroke="#63b8ff" points="476.53,-25.53 484.93,-19.08 474.34,-18.88 476.53,-25.53"/>
</a>
</g>
</g>
<!-- Node15 -->
<g id="Node000015" class="node">
<title>Node15</title>
<g id="a_Node000015"><a xlink:title=" ">
<polygon fill="#e0e0e0" stroke="#999999" points="462,-19 410,-19 410,0 462,0 462,-19"/>
<text text-anchor="middle" x="436" y="-7" font-family="Helvetica,sans-Serif" font-size="10.00">stddef.h</text>
</a>
</g>
</g>
<!-- Node14&#45;&gt;Node15 -->
<g id="edge16_Node000014_Node000015" class="edge">
<title>Node14&#45;&gt;Node15</title>
<g id="a_edge16_Node000014_Node000015"><a xlink:title=" ">
<path fill="none" stroke="#63b8ff" d="M363.82,-54.98C377.15,-46.77 397.58,-34.18 413.31,-24.49"/>
<polygon fill="#63b8ff" stroke="#63b8ff" points="415.25,-27.4 421.93,-19.17 411.58,-21.44 415.25,-27.4"/>
</a>
</g>
</g>
<!-- Node16 -->
<g id="Node000016" class="node">
<title>Node16</title>
<g id="a_Node000016"><a xlink:title=" ">
<polygon fill="#e0e0e0" stroke="#999999" points="247.5,-19 198.5,-19 198.5,0 247.5,0 247.5,-19"/>
<text text-anchor="middle" x="223" y="-7" font-family="Helvetica,sans-Serif" font-size="10.00">stdint.h</text>
</a>
</g>
</g>
<!-- Node14&#45;&gt;Node16 -->
<g id="edge17_Node000014_Node000016" class="edge">
<title>Node14&#45;&gt;Node16</title>
<g id="a_edge17_Node000014_Node000016"><a xlink:title=" ">
<path fill="none" stroke="#63b8ff" d="M329.6,-54.98C308.98,-46.38 276.89,-32.99 253.31,-23.15"/>
<polygon fill="#63b8ff" stroke="#63b8ff" points="254.35,-19.79 243.78,-19.17 251.66,-26.25 254.35,-19.79"/>
</a>
</g>
</g>
<!-- Node17 -->
<g id="Node000017" class="node">
<title>Node17</title>
<g id="a_Node000017"><a xlink:title=" ">
<polygon fill="#e0e0e0" stroke="#999999" points="314,-19 266,-19 266,0 314,0 314,-19"/>
<text text-anchor="middle" x="290" y="-7" font-family="Helvetica,sans-Serif" font-size="10.00">limits.h</text>
</a>
</g>
</g>
<!-- Node14&#45;&gt;Node17 -->
<g id="edge18_Node000014_Node000017" class="edge">
<title>Node14&#45;&gt;Node17</title>
<g id="a_edge18_Node000014_Node000017"><a xlink:title=" ">
<path fill="none" stroke="#63b8ff" d="M340.36,-54.98C331.49,-47.15 318.13,-35.34 307.39,-25.86"/>
<polygon fill="#63b8ff" stroke="#63b8ff" points="309.63,-23.17 299.82,-19.17 304.99,-28.41 309.63,-23.17"/>
</a>
</g>
</g>
<!-- Node18 -->
<g id="Node000018" class="node">
<title>Node18</title>
<g id="a_Node000018"><a xlink:title=" ">
<polygon fill="#e0e0e0" stroke="#999999" points="391.5,-19 332.5,-19 332.5,0 391.5,0 391.5,-19"/>
<text text-anchor="middle" x="362" y="-7" font-family="Helvetica,sans-Serif" font-size="10.00">stdalign.h</text>
</a>
</g>
</g>
<!-- Node14&#45;&gt;Node18 -->
<g id="edge19_Node000014_Node000018" class="edge">
<title>Node14&#45;&gt;Node18</title>
<g id="a_edge19_Node000014_Node000018"><a xlink:title=" ">
<path fill="none" stroke="#63b8ff" d="M351.98,-54.75C353.57,-47.72 355.86,-37.62 357.85,-28.84"/>
<polygon fill="#63b8ff" stroke="#63b8ff" points="361.26,-29.62 360.06,-19.09 354.43,-28.07 361.26,-29.62"/>
</a>
</g>
</g>
</g>
</svg>
