<?xml version="1.0" encoding="UTF-8" standalone="no"?>
<!DOCTYPE svg PUBLIC "-//W3C//DTD SVG 1.1//EN"
 "http://www.w3.org/Graphics/SVG/1.1/DTD/svg11.dtd">
<!-- Generated by graphviz version 2.42.4 (0)
 -->
<!-- Title: vkst::buffer&lt; TVALUE, TALIGNMENT, TALLOCATOR &gt; Pages: 1 -->
<svg width="437pt" height="98pt"
 viewBox="0.00 0.00 437.00 97.50" xmlns="http://www.w3.org/2000/svg" xmlns:xlink="http://www.w3.org/1999/xlink">
<g id="graph0" class="graph" transform="scale(1 1) rotate(0) translate(4 93.5)">
<title>vkst::buffer&lt; TVALUE, TALIGNMENT, TALLOCATOR &gt;</title>
<!-- Node1 -->
<g id="Node000001" class="node">
<title>Node1</title>
<g id="a_Node000001"><a xlink:title=" ">
<polygon fill="#999999" stroke="#666666" points="161,-57 0,-57 0,-27 161,-27 161,-57"/>
<text text-anchor="start" x="8" y="-45" font-family="Helvetica,sans-Serif" font-size="10.00">vkst::buffer&lt; TVALUE,</text>
<text text-anchor="middle" x="80.5" y="-34" font-family="Helvetica,sans-Serif" font-size="10.00"> TALIGNMENT, TALLOCATOR &gt;</text>
</a>
</g>
</g>
<!-- Node2 -->
<g id="Node000002" class="node">
<title>Node2</title>
<g id="a_Node000002"><a xlink:href="../../d5/d9b/classvkst_1_1opencl__buffer.html" target="_top" xlink:title=" ">
<polygon fill="white" stroke="#666666" points="424,-89.5 293,-89.5 293,-48.5 424,-48.5 424,-89.5"/>
<text text-anchor="start" x="301" y="-77.5" font-family="Helvetica,sans-Serif" font-size="10.00">vkst::opencl_buffer</text>
<text text-anchor="start" x="301" y="-66.5" font-family="Helvetica,sans-Serif" font-size="10.00">&lt; TVALUE, TLOCKTYPE,</text>
<text text-anchor="middle" x="358.5" y="-55.5" font-family="Helvetica,sans-Serif" font-size="10.00"> TALLOCATOR &gt;</text>
</a>
</g>
</g>
<!-- Node1&#45;&gt;Node2 -->
<g id="edge1_Node000001_Node000002" class="edge">
<title>Node1&#45;&gt;Node2</title>
<g id="a_edge1_Node000001_Node000002"><a xlink:title=" ">
<path fill="none" stroke="#63b8ff" d="M171.51,-50.81C211.04,-54.67 256.58,-59.13 292.7,-62.66"/>
<polygon fill="#63b8ff" stroke="#63b8ff" points="171.62,-47.3 161.33,-49.81 170.94,-54.27 171.62,-47.3"/>
</a>
</g>
</g>
<!-- Node3 -->
<g id="Node000003" class="node">
<title>Node3</title>
<g id="a_Node000003"><a xlink:href="../../dc/d45/classvkst_1_1buffer.html" target="_top" xlink:title=" ">
<polygon fill="white" stroke="#666666" points="429,-30 288,-30 288,0 429,0 429,-30"/>
<text text-anchor="start" x="296" y="-18" font-family="Helvetica,sans-Serif" font-size="10.00">vkst::buffer&lt; TVALUE,</text>
<text text-anchor="middle" x="358.5" y="-7" font-family="Helvetica,sans-Serif" font-size="10.00"> 16, vkst::default_allocator &gt;</text>
</a>
</g>
</g>
<!-- Node1&#45;&gt;Node3 -->
<g id="edge2_Node000001_Node000003" class="edge">
<title>Node1&#45;&gt;Node3</title>
<g id="a_edge2_Node000001_Node000003"><a xlink:title=" ">
<path fill="none" stroke="orange" stroke-dasharray="5,2" d="M171.3,-26.92C173.89,-26.59 176.46,-26.29 179,-26 214.79,-21.97 254.8,-19.33 287.85,-17.66"/>
<polygon fill="orange" stroke="orange" points="170.68,-23.47 161.22,-28.24 171.59,-30.41 170.68,-23.47"/>
</a>
</g>
<text text-anchor="start" x="179" y="-40" font-family="Helvetica,sans-Serif" font-size="10.00" fill="grey"> &lt; TVALUE, 16, vkst</text>
<text text-anchor="middle" x="224.5" y="-29" font-family="Helvetica,sans-Serif" font-size="10.00" fill="grey">::default_allocator &gt;</text>
</g>
</g>
</svg>
