<?xml version="1.0" encoding="UTF-8" standalone="no"?>
<!DOCTYPE svg PUBLIC "-//W3C//DTD SVG 1.1//EN"
 "http://www.w3.org/Graphics/SVG/1.1/DTD/svg11.dtd">
<!-- Generated by graphviz version 2.42.4 (0)
 -->
<!-- Title: include/vkstBuffer.hpp Pages: 1 -->
<svg width="807pt" height="313pt"
 viewBox="0.00 0.00 806.50 313.00" xmlns="http://www.w3.org/2000/svg" xmlns:xlink="http://www.w3.org/1999/xlink">
<g id="graph0" class="graph" transform="scale(1 1) rotate(0) translate(4 309)">
<title>include/vkstBuffer.hpp</title>
<!-- Node1 -->
<g id="Node000001" class="node">
<title>Node1</title>
<g id="a_Node000001"><a xlink:title=" ">
<polygon fill="#999999" stroke="#666666" points="676,-305 563,-305 563,-286 676,-286 676,-305"/>
<text text-anchor="middle" x="619.5" y="-293" font-family="Helvetica,sans-Serif" font-size="10.00">include/vkstBuffer.hpp</text>
</a>
</g>
</g>
<!-- Node2 -->
<g id="Node000002" class="node">
<title>Node2</title>
<g id="a_Node000002"><a xlink:title=" ">
<polygon fill="#e0e0e0" stroke="#999999" points="453.5,-74 407.5,-74 407.5,-55 453.5,-55 453.5,-74"/>
<text text-anchor="middle" x="430.5" y="-62" font-family="Helvetica,sans-Serif" font-size="10.00">stdio.h</text>
</a>
</g>
</g>
<!-- Node1&#45;&gt;Node2 -->
<g id="edge1_Node000001_Node000002" class="edge">
<title>Node1&#45;&gt;Node2</title>
<g id="a_edge1_Node000001_Node000002"><a xlink:title=" ">
<path fill="none" stroke="#63b8ff" d="M616.58,-285.65C606.71,-256.9 572,-164.77 515.5,-110 500.7,-95.66 480.36,-84.78 463.28,-77.38"/>
<polygon fill="#63b8ff" stroke="#63b8ff" points="464.25,-73.99 453.67,-73.42 461.58,-80.46 464.25,-73.99"/>
</a>
</g>
</g>
<!-- Node3 -->
<g id="Node000003" class="node">
<title>Node3</title>
<g id="a_Node000003"><a xlink:title=" ">
<polygon fill="#e0e0e0" stroke="#999999" points="784.5,-250 732.5,-250 732.5,-231 784.5,-231 784.5,-250"/>
<text text-anchor="middle" x="758.5" y="-238" font-family="Helvetica,sans-Serif" font-size="10.00">assert.h</text>
</a>
</g>
</g>
<!-- Node1&#45;&gt;Node3 -->
<g id="edge2_Node000001_Node000003" class="edge">
<title>Node1&#45;&gt;Node3</title>
<g id="a_edge2_Node000001_Node000003"><a xlink:title=" ">
<path fill="none" stroke="#63b8ff" d="M641.83,-285.98C664.7,-277.27 700.46,-263.63 726.36,-253.75"/>
<polygon fill="#63b8ff" stroke="#63b8ff" points="727.66,-257 735.76,-250.17 725.17,-250.46 727.66,-257"/>
</a>
</g>
</g>
<!-- Node4 -->
<g id="Node000004" class="node">
<title>Node4</title>
<g id="a_Node000004"><a xlink:href="../../dd/d2c/vkstAllocator_8hpp.html" target="_top" xlink:title=" ">
<polygon fill="white" stroke="#666666" points="372.5,-250 280.5,-250 280.5,-231 372.5,-231 372.5,-250"/>
<text text-anchor="middle" x="326.5" y="-238" font-family="Helvetica,sans-Serif" font-size="10.00">vkstAllocator.hpp</text>
</a>
</g>
</g>
<!-- Node1&#45;&gt;Node4 -->
<g id="edge3_Node000001_Node000004" class="edge">
<title>Node1&#45;&gt;Node4</title>
<g id="a_edge3_Node000001_Node000004"><a xlink:title=" ">
<path fill="none" stroke="#63b8ff" d="M572.42,-285.98C520.8,-276.65 437.98,-261.67 382.92,-251.71"/>
<polygon fill="#63b8ff" stroke="#63b8ff" points="383.44,-248.24 372.97,-249.91 382.19,-255.13 383.44,-248.24"/>
</a>
</g>
</g>
<!-- Node9 -->
<g id="Node000009" class="node">
<title>Node9</title>
<g id="a_Node000009"><a xlink:href="../../d4/d45/vkstLogging_8hpp.html" target="_top" xlink:title=" ">
<polygon fill="white" stroke="#666666" points="753,-74 656,-74 656,-55 753,-55 753,-74"/>
<text text-anchor="middle" x="704.5" y="-62" font-family="Helvetica,sans-Serif" font-size="10.00">../vkstLogging.hpp</text>
</a>
</g>
</g>
<!-- Node1&#45;&gt;Node9 -->
<g id="edge30_Node000001_Node000009" class="edge">
<title>Node1&#45;&gt;Node9</title>
<g id="a_edge30_Node000001_Node000009"><a xlink:title=" ">
<path fill="none" stroke="#63b8ff" d="M623.7,-285.97C634.93,-262.91 666.12,-197.18 685.5,-140 691.78,-121.46 697.1,-99.72 700.5,-84.53"/>
<polygon fill="#63b8ff" stroke="#63b8ff" points="704.01,-84.86 702.71,-74.34 697.17,-83.38 704.01,-84.86"/>
</a>
</g>
</g>
<!-- Node5 -->
<g id="Node000005" class="node">
<title>Node5</title>
<g id="a_Node000005"><a xlink:title=" ">
<polygon fill="#e0e0e0" stroke="#999999" points="51,-195 0,-195 0,-176 51,-176 51,-195"/>
<text text-anchor="middle" x="25.5" y="-183" font-family="Helvetica,sans-Serif" font-size="10.00">config.h</text>
</a>
</g>
</g>
<!-- Node4&#45;&gt;Node5 -->
<g id="edge4_Node000004_Node000005" class="edge">
<title>Node4&#45;&gt;Node5</title>
<g id="a_edge4_Node000004_Node000005"><a xlink:title=" ">
<path fill="none" stroke="#63b8ff" d="M280.46,-232.97C229.17,-225.44 143.58,-212.12 61.11,-195.21"/>
<polygon fill="#63b8ff" stroke="#63b8ff" points="61.57,-191.73 51.07,-193.12 60.15,-198.58 61.57,-191.73"/>
</a>
</g>
</g>
<!-- Node6 -->
<g id="Node000006" class="node">
<title>Node6</title>
<g id="a_Node000006"><a xlink:href="../../d0/dd1/vkstAllocatorBase_8hpp.html" target="_top" xlink:title=" ">
<polygon fill="white" stroke="#666666" points="404.5,-195 248.5,-195 248.5,-176 404.5,-176 404.5,-195"/>
<text text-anchor="middle" x="326.5" y="-183" font-family="Helvetica,sans-Serif" font-size="10.00">Allocator/vkstAllocatorBase.hpp</text>
</a>
</g>
</g>
<!-- Node4&#45;&gt;Node6 -->
<g id="edge5_Node000004_Node000006" class="edge">
<title>Node4&#45;&gt;Node6</title>
<g id="a_edge5_Node000004_Node000006"><a xlink:title=" ">
<path fill="none" stroke="#63b8ff" d="M326.5,-230.75C326.5,-223.8 326.5,-213.85 326.5,-205.13"/>
<polygon fill="#63b8ff" stroke="#63b8ff" points="330,-205.09 326.5,-195.09 323,-205.09 330,-205.09"/>
</a>
</g>
</g>
<!-- Node22 -->
<g id="Node000022" class="node">
<title>Node22</title>
<g id="a_Node000022"><a xlink:href="../../d5/d82/vkstMallocAllocator_8hpp.html" target="_top" xlink:title=" ">
<polygon fill="white" stroke="#666666" points="230,-195 69,-195 69,-176 230,-176 230,-195"/>
<text text-anchor="middle" x="149.5" y="-183" font-family="Helvetica,sans-Serif" font-size="10.00">Allocator/vkstMallocAllocator.hpp</text>
</a>
</g>
</g>
<!-- Node4&#45;&gt;Node22 -->
<g id="edge26_Node000004_Node000022" class="edge">
<title>Node4&#45;&gt;Node22</title>
<g id="a_edge26_Node000004_Node000022"><a xlink:title=" ">
<path fill="none" stroke="#63b8ff" d="M298.06,-230.98C268.22,-222.05 221.12,-207.94 187.97,-198.02"/>
<polygon fill="#63b8ff" stroke="#63b8ff" points="188.74,-194.6 178.16,-195.08 186.74,-201.3 188.74,-194.6"/>
</a>
</g>
</g>
<!-- Node23 -->
<g id="Node000023" class="node">
<title>Node23</title>
<g id="a_Node000023"><a xlink:href="../../d5/d58/vkstAllocatorMaximalFilter_8hpp.html" target="_top" xlink:title=" ">
<polygon fill="white" stroke="#666666" points="506.5,-140 354.5,-140 354.5,-110 506.5,-110 506.5,-140"/>
<text text-anchor="start" x="362.5" y="-128" font-family="Helvetica,sans-Serif" font-size="10.00">Allocator/vkstAllocatorMaximal</text>
<text text-anchor="middle" x="430.5" y="-117" font-family="Helvetica,sans-Serif" font-size="10.00">Filter.hpp</text>
</a>
</g>
</g>
<!-- Node4&#45;&gt;Node23 -->
<g id="edge28_Node000004_Node000023" class="edge">
<title>Node4&#45;&gt;Node23</title>
<g id="a_edge28_Node000004_Node000023"><a xlink:title=" ">
<path fill="none" stroke="#63b8ff" d="M357.33,-230.96C376.21,-224.18 399.39,-212.82 413.5,-195 423.51,-182.36 427.73,-164.64 429.46,-150.33"/>
<polygon fill="#63b8ff" stroke="#63b8ff" points="432.97,-150.45 430.36,-140.18 425.99,-149.84 432.97,-150.45"/>
</a>
</g>
</g>
<!-- Node6&#45;&gt;Node2 -->
<g id="edge6_Node000006_Node000002" class="edge">
<title>Node6&#45;&gt;Node2</title>
<g id="a_edge6_Node000006_Node000002"><a xlink:title=" ">
<path fill="none" stroke="#63b8ff" d="M326.51,-175.69C326.98,-160.64 329.93,-129.68 345.5,-110 358.66,-93.35 379.78,-82.25 397.67,-75.3"/>
<polygon fill="#63b8ff" stroke="#63b8ff" points="398.99,-78.55 407.21,-71.86 396.61,-71.96 398.99,-78.55"/>
</a>
</g>
</g>
<!-- Node7 -->
<g id="Node000007" class="node">
<title>Node7</title>
<g id="a_Node000007"><a xlink:href="../../d1/d72/vkstAllocatorFilter_8hpp.html" target="_top" xlink:title=" ">
<polygon fill="white" stroke="#666666" points="676,-134.5 563,-134.5 563,-115.5 676,-115.5 676,-134.5"/>
<text text-anchor="middle" x="619.5" y="-122.5" font-family="Helvetica,sans-Serif" font-size="10.00">vkstAllocatorFilter.hpp</text>
</a>
</g>
</g>
<!-- Node6&#45;&gt;Node7 -->
<g id="edge7_Node000006_Node000007" class="edge">
<title>Node6&#45;&gt;Node7</title>
<g id="a_edge7_Node000006_Node000007"><a xlink:title=" ">
<path fill="none" stroke="#63b8ff" d="M369.1,-175.99C421.51,-165.53 510.46,-147.77 567.02,-136.48"/>
<polygon fill="#63b8ff" stroke="#63b8ff" points="567.72,-139.91 576.84,-134.52 566.35,-133.04 567.72,-139.91"/>
</a>
</g>
</g>
<!-- Node13 -->
<g id="Node000013" class="node">
<title>Node13</title>
<g id="a_Node000013"><a xlink:href="../../d0/dcf/vkstAllocatorTraits_8hpp.html" target="_top" xlink:title=" ">
<polygon fill="white" stroke="#666666" points="260,-134.5 143,-134.5 143,-115.5 260,-115.5 260,-134.5"/>
<text text-anchor="middle" x="201.5" y="-122.5" font-family="Helvetica,sans-Serif" font-size="10.00">vkstAllocatorTraits.hpp</text>
</a>
</g>
</g>
<!-- Node6&#45;&gt;Node13 -->
<g id="edge14_Node000006_Node000013" class="edge">
<title>Node6&#45;&gt;Node13</title>
<g id="a_edge14_Node000006_Node000013"><a xlink:title=" ">
<path fill="none" stroke="#63b8ff" d="M308.32,-175.99C287.49,-166.25 253.13,-150.16 229.02,-138.88"/>
<polygon fill="#63b8ff" stroke="#63b8ff" points="230.24,-135.59 219.7,-134.52 227.27,-141.93 230.24,-135.59"/>
</a>
</g>
</g>
<!-- Node17 -->
<g id="Node000017" class="node">
<title>Node17</title>
<g id="a_Node000017"><a xlink:href="../../d0/d1f/vkstAlignment_8hpp.html" target="_top" xlink:title=" ">
<polygon fill="white" stroke="#666666" points="342,-74 235,-74 235,-55 342,-55 342,-74"/>
<text text-anchor="middle" x="288.5" y="-62" font-family="Helvetica,sans-Serif" font-size="10.00">../vkstAlignment.hpp</text>
</a>
</g>
</g>
<!-- Node6&#45;&gt;Node17 -->
<g id="edge25_Node000006_Node000017" class="edge">
<title>Node6&#45;&gt;Node17</title>
<g id="a_edge25_Node000006_Node000017"><a xlink:title=" ">
<path fill="none" stroke="#63b8ff" d="M323.77,-175.94C317.66,-156.82 302.8,-110.27 294.45,-84.12"/>
<polygon fill="#63b8ff" stroke="#63b8ff" points="297.69,-82.76 291.31,-74.3 291.02,-84.89 297.69,-82.76"/>
</a>
</g>
</g>
<!-- Node7&#45;&gt;Node2 -->
<g id="edge8_Node000007_Node000002" class="edge">
<title>Node7&#45;&gt;Node2</title>
<g id="a_edge8_Node000007_Node000002"><a xlink:title=" ">
<path fill="none" stroke="#63b8ff" d="M592.02,-115.49C557.86,-104.92 499.64,-86.9 463.21,-75.63"/>
<polygon fill="#63b8ff" stroke="#63b8ff" points="464.14,-72.25 453.56,-72.64 462.07,-78.94 464.14,-72.25"/>
</a>
</g>
</g>
<!-- Node8 -->
<g id="Node000008" class="node">
<title>Node8</title>
<g id="a_Node000008"><a xlink:title=" ">
<polygon fill="#e0e0e0" stroke="#999999" points="637.5,-74 585.5,-74 585.5,-55 637.5,-55 637.5,-74"/>
<text text-anchor="middle" x="611.5" y="-62" font-family="Helvetica,sans-Serif" font-size="10.00">sstream</text>
</a>
</g>
</g>
<!-- Node7&#45;&gt;Node8 -->
<g id="edge9_Node000007_Node000008" class="edge">
<title>Node7&#45;&gt;Node8</title>
<g id="a_edge9_Node000007_Node000008"><a xlink:title=" ">
<path fill="none" stroke="#63b8ff" d="M618.32,-115.37C617.21,-107.25 615.51,-94.81 614.08,-84.39"/>
<polygon fill="#63b8ff" stroke="#63b8ff" points="617.51,-83.6 612.69,-74.17 610.57,-84.55 617.51,-83.6"/>
</a>
</g>
</g>
<!-- Node7&#45;&gt;Node9 -->
<g id="edge10_Node000007_Node000009" class="edge">
<title>Node7&#45;&gt;Node9</title>
<g id="a_edge10_Node000007_Node000009"><a xlink:title=" ">
<path fill="none" stroke="#63b8ff" d="M632.04,-115.37C645.6,-106.04 667.44,-91.01 683.6,-79.88"/>
<polygon fill="#63b8ff" stroke="#63b8ff" points="685.65,-82.72 691.91,-74.17 681.68,-76.95 685.65,-82.72"/>
</a>
</g>
</g>
<!-- Node10 -->
<g id="Node000010" class="node">
<title>Node10</title>
<g id="a_Node000010"><a xlink:title=" ">
<polygon fill="#e0e0e0" stroke="#999999" points="798.5,-19 744.5,-19 744.5,0 798.5,0 798.5,-19"/>
<text text-anchor="middle" x="771.5" y="-7" font-family="Helvetica,sans-Serif" font-size="10.00">iostream</text>
</a>
</g>
</g>
<!-- Node9&#45;&gt;Node10 -->
<g id="edge11_Node000009_Node000010" class="edge">
<title>Node9&#45;&gt;Node10</title>
<g id="a_edge11_Node000009_Node000010"><a xlink:title=" ">
<path fill="none" stroke="#63b8ff" d="M715.26,-54.98C725.27,-47.07 740.39,-35.11 752.43,-25.58"/>
<polygon fill="#63b8ff" stroke="#63b8ff" points="754.87,-28.12 760.54,-19.17 750.53,-22.63 754.87,-28.12"/>
</a>
</g>
</g>
<!-- Node11 -->
<g id="Node000011" class="node">
<title>Node11</title>
<g id="a_Node000011"><a xlink:title=" ">
<polygon fill="#e0e0e0" stroke="#999999" points="664.5,-19 618.5,-19 618.5,0 664.5,0 664.5,-19"/>
<text text-anchor="middle" x="641.5" y="-7" font-family="Helvetica,sans-Serif" font-size="10.00">atomic</text>
</a>
</g>
</g>
<!-- Node9&#45;&gt;Node11 -->
<g id="edge12_Node000009_Node000011" class="edge">
<title>Node9&#45;&gt;Node11</title>
<g id="a_edge12_Node000009_Node000011"><a xlink:title=" ">
<path fill="none" stroke="#63b8ff" d="M694.38,-54.98C685.06,-47.15 671.03,-35.34 659.76,-25.86"/>
<polygon fill="#63b8ff" stroke="#63b8ff" points="661.71,-22.93 651.81,-19.17 657.21,-28.29 661.71,-22.93"/>
</a>
</g>
</g>
<!-- Node12 -->
<g id="Node000012" class="node">
<title>Node12</title>
<g id="a_Node000012"><a xlink:title=" ">
<polygon fill="#e0e0e0" stroke="#999999" points="726.5,-19 682.5,-19 682.5,0 726.5,0 726.5,-19"/>
<text text-anchor="middle" x="704.5" y="-7" font-family="Helvetica,sans-Serif" font-size="10.00">mutex</text>
</a>
</g>
</g>
<!-- Node9&#45;&gt;Node12 -->
<g id="edge13_Node000009_Node000012" class="edge">
<title>Node9&#45;&gt;Node12</title>
<g id="a_edge13_Node000009_Node000012"><a xlink:title=" ">
<path fill="none" stroke="#63b8ff" d="M704.5,-54.75C704.5,-47.8 704.5,-37.85 704.5,-29.13"/>
<polygon fill="#63b8ff" stroke="#63b8ff" points="708,-29.09 704.5,-19.09 701,-29.09 708,-29.09"/>
</a>
</g>
</g>
<!-- Node13&#45;&gt;Node2 -->
<g id="edge15_Node000013_Node000002" class="edge">
<title>Node13&#45;&gt;Node2</title>
<g id="a_edge15_Node000013_Node000002"><a xlink:title=" ">
<path fill="none" stroke="#63b8ff" d="M234.8,-115.49C278.32,-104.37 354.1,-85.02 397.48,-73.93"/>
<polygon fill="#63b8ff" stroke="#63b8ff" points="398.44,-77.3 407.26,-71.44 396.71,-70.52 398.44,-77.3"/>
</a>
</g>
</g>
<!-- Node14 -->
<g id="Node000014" class="node">
<title>Node14</title>
<g id="a_Node000014"><a xlink:title=" ">
<polygon fill="#e0e0e0" stroke="#999999" points="206.5,-19 144.5,-19 144.5,0 206.5,0 206.5,-19"/>
<text text-anchor="middle" x="175.5" y="-7" font-family="Helvetica,sans-Serif" font-size="10.00">type_traits</text>
</a>
</g>
</g>
<!-- Node13&#45;&gt;Node14 -->
<g id="edge16_Node000013_Node000014" class="edge">
<title>Node13&#45;&gt;Node14</title>
<g id="a_edge16_Node000013_Node000014"><a xlink:title=" ">
<path fill="none" stroke="#63b8ff" d="M199.55,-115.47C195.37,-97.23 185.48,-54.07 179.77,-29.14"/>
<polygon fill="#63b8ff" stroke="#63b8ff" points="183.12,-28.1 177.48,-19.13 176.3,-29.66 183.12,-28.1"/>
</a>
</g>
</g>
<!-- Node15 -->
<g id="Node000015" class="node">
<title>Node15</title>
<g id="a_Node000015"><a xlink:title=" ">
<polygon fill="#e0e0e0" stroke="#999999" points="106,-74 61,-74 61,-55 106,-55 106,-74"/>
<text text-anchor="middle" x="83.5" y="-62" font-family="Helvetica,sans-Serif" font-size="10.00">cstdlib</text>
</a>
</g>
</g>
<!-- Node13&#45;&gt;Node15 -->
<g id="edge17_Node000013_Node000015" class="edge">
<title>Node13&#45;&gt;Node15</title>
<g id="a_edge17_Node000013_Node000015"><a xlink:title=" ">
<path fill="none" stroke="#63b8ff" d="M184.34,-115.49C164.77,-105.79 132.53,-89.81 109.78,-78.53"/>
<polygon fill="#63b8ff" stroke="#63b8ff" points="111.19,-75.32 100.68,-74.02 108.08,-81.59 111.19,-75.32"/>
</a>
</g>
</g>
<!-- Node16 -->
<g id="Node000016" class="node">
<title>Node16</title>
<g id="a_Node000016"><a xlink:title=" ">
<polygon fill="#e0e0e0" stroke="#999999" points="176.5,-74 124.5,-74 124.5,-55 176.5,-55 176.5,-74"/>
<text text-anchor="middle" x="150.5" y="-62" font-family="Helvetica,sans-Serif" font-size="10.00">memory</text>
</a>
</g>
</g>
<!-- Node13&#45;&gt;Node16 -->
<g id="edge18_Node000013_Node000016" class="edge">
<title>Node13&#45;&gt;Node16</title>
<g id="a_edge18_Node000013_Node000016"><a xlink:title=" ">
<path fill="none" stroke="#63b8ff" d="M193.97,-115.37C186.29,-106.55 174.18,-92.66 164.69,-81.77"/>
<polygon fill="#63b8ff" stroke="#63b8ff" points="167.27,-79.41 158.06,-74.17 161.99,-84.01 167.27,-79.41"/>
</a>
</g>
</g>
<!-- Node13&#45;&gt;Node17 -->
<g id="edge19_Node000013_Node000017" class="edge">
<title>Node13&#45;&gt;Node17</title>
<g id="a_edge19_Node000013_Node000017"><a xlink:title=" ">
<path fill="none" stroke="#63b8ff" d="M214.34,-115.37C228.22,-106.04 250.57,-91.01 267.11,-79.88"/>
<polygon fill="#63b8ff" stroke="#63b8ff" points="269.26,-82.65 275.61,-74.17 265.36,-76.84 269.26,-82.65"/>
</a>
</g>
</g>
<!-- Node17&#45;&gt;Node14 -->
<g id="edge24_Node000017_Node000014" class="edge">
<title>Node17&#45;&gt;Node14</title>
<g id="a_edge24_Node000017_Node000014"><a xlink:title=" ">
<path fill="none" stroke="#63b8ff" d="M270.34,-54.98C252.25,-46.5 224.22,-33.35 203.31,-23.54"/>
<polygon fill="#63b8ff" stroke="#63b8ff" points="204.53,-20.25 193.99,-19.17 201.55,-26.59 204.53,-20.25"/>
</a>
</g>
</g>
<!-- Node18 -->
<g id="Node000018" class="node">
<title>Node18</title>
<g id="a_Node000018"><a xlink:title=" ">
<polygon fill="#e0e0e0" stroke="#999999" points="488.5,-19 436.5,-19 436.5,0 488.5,0 488.5,-19"/>
<text text-anchor="middle" x="462.5" y="-7" font-family="Helvetica,sans-Serif" font-size="10.00">stddef.h</text>
</a>
</g>
</g>
<!-- Node17&#45;&gt;Node18 -->
<g id="edge20_Node000017_Node000018" class="edge">
<title>Node17&#45;&gt;Node18</title>
<g id="a_edge20_Node000017_Node000018"><a xlink:title=" ">
<path fill="none" stroke="#63b8ff" d="M316.46,-54.98C346.4,-45.86 394.03,-31.36 426.7,-21.41"/>
<polygon fill="#63b8ff" stroke="#63b8ff" points="427.77,-24.74 436.32,-18.47 425.74,-18.04 427.77,-24.74"/>
</a>
</g>
</g>
<!-- Node19 -->
<g id="Node000019" class="node">
<title>Node19</title>
<g id="a_Node000019"><a xlink:title=" ">
<polygon fill="#e0e0e0" stroke="#999999" points="274,-19 225,-19 225,0 274,0 274,-19"/>
<text text-anchor="middle" x="249.5" y="-7" font-family="Helvetica,sans-Serif" font-size="10.00">stdint.h</text>
</a>
</g>
</g>
<!-- Node17&#45;&gt;Node19 -->
<g id="edge21_Node000017_Node000019" class="edge">
<title>Node17&#45;&gt;Node19</title>
<g id="a_edge21_Node000017_Node000019"><a xlink:title=" ">
<path fill="none" stroke="#63b8ff" d="M282.06,-54.75C276.61,-47.34 268.64,-36.5 261.94,-27.41"/>
<polygon fill="#63b8ff" stroke="#63b8ff" points="264.57,-25.07 255.82,-19.09 258.93,-29.22 264.57,-25.07"/>
</a>
</g>
</g>
<!-- Node20 -->
<g id="Node000020" class="node">
<title>Node20</title>
<g id="a_Node000020"><a xlink:title=" ">
<polygon fill="#e0e0e0" stroke="#999999" points="340.5,-19 292.5,-19 292.5,0 340.5,0 340.5,-19"/>
<text text-anchor="middle" x="316.5" y="-7" font-family="Helvetica,sans-Serif" font-size="10.00">limits.h</text>
</a>
</g>
</g>
<!-- Node17&#45;&gt;Node20 -->
<g id="edge22_Node000017_Node000020" class="edge">
<title>Node17&#45;&gt;Node20</title>
<g id="a_edge22_Node000017_Node000020"><a xlink:title=" ">
<path fill="none" stroke="#63b8ff" d="M293.12,-54.75C296.96,-47.49 302.52,-36.95 307.26,-27.98"/>
<polygon fill="#63b8ff" stroke="#63b8ff" points="310.39,-29.57 311.96,-19.09 304.2,-26.3 310.39,-29.57"/>
</a>
</g>
</g>
<!-- Node21 -->
<g id="Node000021" class="node">
<title>Node21</title>
<g id="a_Node000021"><a xlink:title=" ">
<polygon fill="#e0e0e0" stroke="#999999" points="418,-19 359,-19 359,0 418,0 418,-19"/>
<text text-anchor="middle" x="388.5" y="-7" font-family="Helvetica,sans-Serif" font-size="10.00">stdalign.h</text>
</a>
</g>
</g>
<!-- Node17&#45;&gt;Node21 -->
<g id="edge23_Node000017_Node000021" class="edge">
<title>Node17&#45;&gt;Node21</title>
<g id="a_edge23_Node000017_Node000021"><a xlink:title=" ">
<path fill="none" stroke="#63b8ff" d="M304.57,-54.98C320.36,-46.61 344.72,-33.7 363.13,-23.95"/>
<polygon fill="#63b8ff" stroke="#63b8ff" points="364.94,-26.95 372.14,-19.17 361.67,-20.76 364.94,-26.95"/>
</a>
</g>
</g>
<!-- Node22&#45;&gt;Node13 -->
<g id="edge27_Node000022_Node000013" class="edge">
<title>Node22&#45;&gt;Node13</title>
<g id="a_edge27_Node000022_Node000013"><a xlink:title=" ">
<path fill="none" stroke="#63b8ff" d="M157.17,-175.87C165.01,-167.05 177.36,-153.16 187.04,-142.27"/>
<polygon fill="#63b8ff" stroke="#63b8ff" points="189.77,-144.47 193.8,-134.67 184.54,-139.82 189.77,-144.47"/>
</a>
</g>
</g>
<!-- Node23&#45;&gt;Node2 -->
<g id="edge29_Node000023_Node000002" class="edge">
<title>Node23&#45;&gt;Node2</title>
<g id="a_edge29_Node000023_Node000002"><a xlink:title=" ">
<path fill="none" stroke="#63b8ff" d="M430.5,-109.84C430.5,-102.21 430.5,-92.7 430.5,-84.45"/>
<polygon fill="#63b8ff" stroke="#63b8ff" points="434,-84.27 430.5,-74.27 427,-84.27 434,-84.27"/>
</a>
</g>
</g>
</g>
</svg>
