<?xml version="1.0" encoding="UTF-8" standalone="no"?>
<!DOCTYPE svg PUBLIC "-//W3C//DTD SVG 1.1//EN"
 "http://www.w3.org/Graphics/SVG/1.1/DTD/svg11.dtd">
<!-- Generated by graphviz version 2.42.4 (0)
 -->
<!-- Title: vkst::basic_malloc_allocator Pages: 1 -->
<svg width="158pt" height="205pt"
 viewBox="0.00 0.00 158.00 205.00" xmlns="http://www.w3.org/2000/svg" xmlns:xlink="http://www.w3.org/1999/xlink">
<g id="graph0" class="graph" transform="scale(1 1) rotate(0) translate(4 201)">
<title>vkst::basic_malloc_allocator</title>
<!-- Node1 -->
<g id="Node000001" class="node">
<title>Node1</title>
<g id="a_Node000001"><a xlink:title=" ">
<polygon fill="#999999" stroke="transparent" points="150,-197 0,-197 0,0 150,0 150,-197"/>
<text text-anchor="start" x="34" y="-184.5" font-family="Helvetica,sans-Serif" font-size="10.00">vkst::basic_malloc</text>
<text text-anchor="start" x="53.5" y="-173.5" font-family="Helvetica,sans-Serif" font-size="10.00">_allocator</text>
<text text-anchor="start" x="73" y="-158.5" font-family="Helvetica,sans-Serif" font-size="10.00"> </text>
<text text-anchor="start" x="4" y="-143.5" font-family="Helvetica,sans-Serif" font-size="10.00">+</text>
<text text-anchor="start" x="15" y="-143.5" font-family="Helvetica,sans-Serif" font-size="10.00">static void first()</text>
<text text-anchor="start" x="15" y="-132.5" font-family="Helvetica,sans-Serif" font-size="10.00"> noexcept</text>
<text text-anchor="start" x="4" y="-117.5" font-family="Helvetica,sans-Serif" font-size="10.00">+</text>
<text text-anchor="start" x="15" y="-117.5" font-family="Helvetica,sans-Serif" font-size="10.00">static void * allocate</text>
<text text-anchor="start" x="15" y="-106.5" font-family="Helvetica,sans-Serif" font-size="10.00">(size_t size, size_t alignment)</text>
<text text-anchor="start" x="15" y="-95.5" font-family="Helvetica,sans-Serif" font-size="10.00"> noexcept</text>
<text text-anchor="start" x="4" y="-80.5" font-family="Helvetica,sans-Serif" font-size="10.00">+</text>
<text text-anchor="start" x="15" y="-80.5" font-family="Helvetica,sans-Serif" font-size="10.00">static void deallocate</text>
<text text-anchor="start" x="15" y="-69.5" font-family="Helvetica,sans-Serif" font-size="10.00">(void *ptr, size_t size,</text>
<text text-anchor="start" x="15" y="-58.5" font-family="Helvetica,sans-Serif" font-size="10.00"> size_t alignment) noexcept</text>
<text text-anchor="start" x="4" y="-43.5" font-family="Helvetica,sans-Serif" font-size="10.00">+</text>
<text text-anchor="start" x="15" y="-43.5" font-family="Helvetica,sans-Serif" font-size="10.00">static size_t max_node</text>
<text text-anchor="start" x="15" y="-32.5" font-family="Helvetica,sans-Serif" font-size="10.00">_size()</text>
<text text-anchor="start" x="4" y="-17.5" font-family="Helvetica,sans-Serif" font-size="10.00">+</text>
<text text-anchor="start" x="15" y="-17.5" font-family="Helvetica,sans-Serif" font-size="10.00">static size_t get_max</text>
<text text-anchor="start" x="15" y="-6.5" font-family="Helvetica,sans-Serif" font-size="10.00">_alocator_size()</text>
<polygon fill="#666666" stroke="#666666" points="0,-168.5 0,-168.5 150,-168.5 150,-168.5 0,-168.5"/>
<polygon fill="#666666" stroke="#666666" points="0,-153.5 0,-153.5 150,-153.5 150,-153.5 0,-153.5"/>
<polygon fill="none" stroke="#666666" points="0,0 0,-197 150,-197 150,0 0,0"/>
</a>
</g>
</g>
</g>
</svg>
