<?xml version="1.0" encoding="UTF-8" standalone="no"?>
<!DOCTYPE svg PUBLIC "-//W3C//DTD SVG 1.1//EN"
 "http://www.w3.org/Graphics/SVG/1.1/DTD/svg11.dtd">
<!-- Generated by graphviz version 2.42.4 (0)
 -->
<!-- Title: vkst::opencl_buffer&lt; TVALUE, TLOCKTYPE, TALLOCATOR &gt; Pages: 1 -->
<svg width="264pt" height="335pt"
 viewBox="0.00 0.00 264.00 335.00" xmlns="http://www.w3.org/2000/svg" xmlns:xlink="http://www.w3.org/1999/xlink">

<svg id="main" version="1.1" xmlns="http://www.w3.org/2000/svg" xmlns:xlink="http://www.w3.org/1999/xlink" xml:space="preserve" onload="init(evt)">
<style type="text/css"><![CDATA[
.node, .edge {opacity: 0.7;}
.node.selected, .edge.selected {opacity: 1;}
.edge:hover path { stroke: red; }
.edge:hover polygon { stroke: red; fill: red; }
]]></style>
<script type="application/ecmascript" xlink:href="../../svg.min.js"/>
<svg id="graph" class="graph">
<g id="graph0" class="graph" transform="scale(1 1) rotate(0) translate(4 331)">
<title>vkst::opencl_buffer&lt; TVALUE, TLOCKTYPE, TALLOCATOR &gt;</title>
<!-- Node1 -->
<g id="Node000001" class="node">
<title>Node1</title>
<g id="a_Node000001"><a xlink:title=" ">
<polygon fill="#999999" stroke="#666666" points="256,-41 125,-41 125,0 256,0 256,-41"/>
<text text-anchor="start" x="133" y="-29" font-family="Helvetica,sans-Serif" font-size="10.00">vkst::opencl_buffer</text>
<text text-anchor="start" x="133" y="-18" font-family="Helvetica,sans-Serif" font-size="10.00">&lt; TVALUE, TLOCKTYPE,</text>
<text text-anchor="middle" x="190.5" y="-7" font-family="Helvetica,sans-Serif" font-size="10.00"> TALLOCATOR &gt;</text>
</a>
</g>
</g>
<!-- Node2 -->
<g id="Node000002" class="node">
<title>Node2</title>
<g id="a_Node000002"><a xlink:href="../../dc/d45/classvkst_1_1buffer.html" target="_top" xlink:title=" ">
<polygon fill="white" stroke="#666666" points="174,-118 13,-118 13,-88 174,-88 174,-118"/>
<text text-anchor="start" x="21" y="-106" font-family="Helvetica,sans-Serif" font-size="10.00">vkst::buffer&lt; TVALUE,</text>
<text text-anchor="middle" x="93.5" y="-95" font-family="Helvetica,sans-Serif" font-size="10.00"> TALIGNMENT, TALLOCATOR &gt;</text>
</a>
</g>
</g>
<!-- Node2&#45;&gt;Node1 -->
<g id="edge1_Node000001_Node000002" class="edge">
<title>Node2&#45;&gt;Node1</title>
<g id="a_edge1_Node000001_Node000002"><a xlink:title=" ">
<path fill="none" stroke="#63b8ff" d="M118.24,-81.47C133.19,-69.06 152.15,-53.33 166.9,-41.09"/>
<polygon fill="#63b8ff" stroke="#63b8ff" points="115.86,-78.9 110.4,-87.98 120.33,-84.29 115.86,-78.9"/>
</a>
</g>
</g>
<!-- Node3 -->
<g id="Node000003" class="node">
<title>Node3</title>
<g id="a_Node000003"><a xlink:href="../../d9/d40/classvkst_1_1basic__allocator.html" target="_top" xlink:title=" ">
<polygon fill="white" stroke="#666666" points="111,-195 0,-195 0,-165 111,-165 111,-195"/>
<text text-anchor="start" x="8" y="-183" font-family="Helvetica,sans-Serif" font-size="10.00">vkst::basic_allocator</text>
<text text-anchor="middle" x="55.5" y="-172" font-family="Helvetica,sans-Serif" font-size="10.00">&lt; TAllocator, TFilter &gt;</text>
</a>
</g>
</g>
<!-- Node3&#45;&gt;Node2 -->
<g id="edge2_Node000002_Node000003" class="edge">
<title>Node3&#45;&gt;Node2</title>
<g id="a_edge2_Node000002_Node000003"><a xlink:title=" ">
<path fill="none" stroke="#9a32cd" stroke-dasharray="5,2" d="M67.33,-155.65C73.58,-143.32 81.03,-128.61 86.38,-118.04"/>
<polygon fill="#9a32cd" stroke="#9a32cd" points="64.05,-154.39 62.65,-164.89 70.29,-157.55 64.05,-154.39"/>
</a>
</g>
<text text-anchor="middle" x="104.5" y="-139" font-family="Helvetica,sans-Serif" font-size="10.00" fill="grey"> m_allocator</text>
</g>
<!-- Node4 -->
<g id="Node000004" class="node">
<title>Node4</title>
<g id="a_Node000004"><a xlink:title=" ">
<polygon fill="white" stroke="#666666" points="230,-189.5 129,-189.5 129,-170.5 230,-170.5 230,-189.5"/>
<text text-anchor="middle" x="179.5" y="-177.5" font-family="Helvetica,sans-Serif" font-size="10.00">std::atomic&lt; bool &gt;</text>
</a>
</g>
</g>
<!-- Node4&#45;&gt;Node2 -->
<g id="edge3_Node000002_Node000004" class="edge">
<title>Node4&#45;&gt;Node2</title>
<g id="a_edge3_Node000002_Node000004"><a xlink:title=" ">
<path fill="none" stroke="#9a32cd" stroke-dasharray="5,2" d="M163.28,-163.26C154.6,-154.98 143.63,-144.76 133.5,-136 126.51,-129.95 118.59,-123.53 111.66,-118.05"/>
<polygon fill="#9a32cd" stroke="#9a32cd" points="160.89,-165.82 170.53,-170.22 165.74,-160.77 160.89,-165.82"/>
</a>
</g>
<text text-anchor="middle" x="176" y="-139" font-family="Helvetica,sans-Serif" font-size="10.00" fill="grey"> m_is2Device</text>
</g>
<!-- Node5 -->
<g id="Node000005" class="node">
<title>Node5</title>
<g id="a_Node000005"><a xlink:title=" ">
<polygon fill="white" stroke="#666666" points="224,-261 135,-261 135,-242 224,-242 224,-261"/>
<text text-anchor="middle" x="179.5" y="-249" font-family="Helvetica,sans-Serif" font-size="10.00">std::atomic&lt; T &gt;</text>
</a>
</g>
</g>
<!-- Node5&#45;&gt;Node4 -->
<g id="edge4_Node000004_Node000005" class="edge">
<title>Node5&#45;&gt;Node4</title>
<g id="a_edge4_Node000004_Node000005"><a xlink:title=" ">
<path fill="none" stroke="orange" stroke-dasharray="5,2" d="M179.5,-231.71C179.5,-218 179.5,-200.05 179.5,-189.59"/>
<polygon fill="orange" stroke="orange" points="176,-231.98 179.5,-241.98 183,-231.98 176,-231.98"/>
</a>
</g>
<text text-anchor="middle" x="199.5" y="-216" font-family="Helvetica,sans-Serif" font-size="10.00" fill="grey"> &lt; bool &gt;</text>
</g>
<!-- Node6 -->
<g id="Node000006" class="node">
<title>Node6</title>
<g id="a_Node000006"><a xlink:title=" ">
<polygon fill="white" stroke="#666666" points="194,-327 165,-327 165,-308 194,-308 194,-327"/>
<text text-anchor="middle" x="179.5" y="-315" font-family="Helvetica,sans-Serif" font-size="10.00">T</text>
</a>
</g>
</g>
<!-- Node6&#45;&gt;Node5 -->
<g id="edge5_Node000005_Node000006" class="edge">
<title>Node6&#45;&gt;Node5</title>
<g id="a_edge5_Node000005_Node000006"><a xlink:title=" ">
<path fill="none" stroke="#9a32cd" stroke-dasharray="5,2" d="M179.5,-297.58C179.5,-285.63 179.5,-270.72 179.5,-261.41"/>
<polygon fill="#9a32cd" stroke="#9a32cd" points="176,-297.87 179.5,-307.87 183,-297.87 176,-297.87"/>
</a>
</g>
<text text-anchor="middle" x="187" y="-282" font-family="Helvetica,sans-Serif" font-size="10.00" fill="grey"> ptr</text>
</g>
<!-- Node7 -->
<g id="Node000007" class="node">
<title>Node7</title>
<g id="a_Node000007"><a xlink:title=" ">
<polygon fill="white" stroke="#666666" points="255,-112.5 192,-112.5 192,-93.5 255,-93.5 255,-112.5"/>
<text text-anchor="middle" x="223.5" y="-100.5" font-family="Helvetica,sans-Serif" font-size="10.00">std::mutex</text>
</a>
</g>
</g>
<!-- Node7&#45;&gt;Node1 -->
<g id="edge6_Node000001_Node000007" class="edge">
<title>Node7&#45;&gt;Node1</title>
<g id="a_edge6_Node000001_Node000007"><a xlink:title=" ">
<path fill="none" stroke="#9a32cd" stroke-dasharray="5,2" d="M216.07,-83.87C210.84,-71.11 203.85,-54.07 198.5,-41.02"/>
<polygon fill="#9a32cd" stroke="#9a32cd" points="212.94,-85.46 219.97,-93.39 219.41,-82.8 212.94,-85.46"/>
</a>
</g>
<text text-anchor="middle" x="228" y="-62" font-family="Helvetica,sans-Serif" font-size="10.00" fill="grey"> m_lock</text>
</g>
</g>
</svg>
</svg>

<style type='text/css'>
<![CDATA[
[data-mouse-over-selected='false'] { opacity: 0.7; }
[data-mouse-over-selected='true']  { opacity: 1.0; }
]]>
</style>
<script type="application/ecmascript"><![CDATA[
document.addEventListener('DOMContentLoaded', (event) => {
  highlightEdges();
  highlightAdjacentNodes();
});
]]></script>
</svg>
