<?xml version="1.0" encoding="UTF-8" standalone="no"?>
<!DOCTYPE svg PUBLIC "-//W3C//DTD SVG 1.1//EN"
 "http://www.w3.org/Graphics/SVG/1.1/DTD/svg11.dtd">
<!-- Generated by graphviz version 2.42.4 (0)
 -->
<!-- Title: vkst::buffer&lt; TVALUE, TALIGNMENT, TALLOCATOR &gt; Pages: 1 -->
<svg width="238pt" height="247pt"
 viewBox="0.00 0.00 238.00 247.00" xmlns="http://www.w3.org/2000/svg" xmlns:xlink="http://www.w3.org/1999/xlink">
<g id="graph0" class="graph" transform="scale(1 1) rotate(0) translate(4 243)">
<title>vkst::buffer&lt; TVALUE, TALIGNMENT, TALLOCATOR &gt;</title>
<!-- Node1 -->
<g id="Node000001" class="node">
<title>Node1</title>
<g id="a_Node000001"><a xlink:title=" ">
<polygon fill="#999999" stroke="#666666" points="186,-30 25,-30 25,0 186,0 186,-30"/>
<text text-anchor="start" x="33" y="-18" font-family="Helvetica,sans-Serif" font-size="10.00">vkst::buffer&lt; TVALUE,</text>
<text text-anchor="middle" x="105.5" y="-7" font-family="Helvetica,sans-Serif" font-size="10.00"> TALIGNMENT, TALLOCATOR &gt;</text>
</a>
</g>
</g>
<!-- Node2 -->
<g id="Node000002" class="node">
<title>Node2</title>
<g id="a_Node000002"><a xlink:href="../../d9/d40/classvkst_1_1basic__allocator.html" target="_top" xlink:title=" ">
<polygon fill="white" stroke="#666666" points="111,-107 0,-107 0,-77 111,-77 111,-107"/>
<text text-anchor="start" x="8" y="-95" font-family="Helvetica,sans-Serif" font-size="10.00">vkst::basic_allocator</text>
<text text-anchor="middle" x="55.5" y="-84" font-family="Helvetica,sans-Serif" font-size="10.00">&lt; TAllocator, TFilter &gt;</text>
</a>
</g>
</g>
<!-- Node2&#45;&gt;Node1 -->
<g id="edge1_Node000001_Node000002" class="edge">
<title>Node2&#45;&gt;Node1</title>
<g id="a_edge1_Node000001_Node000002"><a xlink:title=" ">
<path fill="none" stroke="#9a32cd" stroke-dasharray="5,2" d="M67.57,-67.65C71.19,-61.15 75.31,-54.18 79.5,-48 83.6,-41.96 88.56,-35.65 93.04,-30.25"/>
<polygon fill="#9a32cd" stroke="#9a32cd" points="64.36,-66.23 62.69,-76.69 70.52,-69.55 64.36,-66.23"/>
</a>
</g>
<text text-anchor="middle" x="106.5" y="-51" font-family="Helvetica,sans-Serif" font-size="10.00" fill="grey"> m_allocator</text>
</g>
<!-- Node3 -->
<g id="Node000003" class="node">
<title>Node3</title>
<g id="a_Node000003"><a xlink:title=" ">
<polygon fill="white" stroke="#666666" points="230,-101.5 129,-101.5 129,-82.5 230,-82.5 230,-101.5"/>
<text text-anchor="middle" x="179.5" y="-89.5" font-family="Helvetica,sans-Serif" font-size="10.00">std::atomic&lt; bool &gt;</text>
</a>
</g>
</g>
<!-- Node3&#45;&gt;Node1 -->
<g id="edge2_Node000001_Node000003" class="edge">
<title>Node3&#45;&gt;Node1</title>
<g id="a_edge2_Node000001_Node000003"><a xlink:title=" ">
<path fill="none" stroke="#9a32cd" stroke-dasharray="5,2" d="M163.62,-74.91C150.48,-61.59 131.99,-42.85 119.42,-30.11"/>
<polygon fill="#9a32cd" stroke="#9a32cd" points="161.5,-77.74 171.01,-82.4 166.48,-72.82 161.5,-77.74"/>
</a>
</g>
<text text-anchor="middle" x="177" y="-51" font-family="Helvetica,sans-Serif" font-size="10.00" fill="grey"> m_is2Device</text>
</g>
<!-- Node4 -->
<g id="Node000004" class="node">
<title>Node4</title>
<g id="a_Node000004"><a xlink:title=" ">
<polygon fill="white" stroke="#666666" points="224,-173 135,-173 135,-154 224,-154 224,-173"/>
<text text-anchor="middle" x="179.5" y="-161" font-family="Helvetica,sans-Serif" font-size="10.00">std::atomic&lt; T &gt;</text>
</a>
</g>
</g>
<!-- Node4&#45;&gt;Node3 -->
<g id="edge3_Node000003_Node000004" class="edge">
<title>Node4&#45;&gt;Node3</title>
<g id="a_edge3_Node000003_Node000004"><a xlink:title=" ">
<path fill="none" stroke="orange" stroke-dasharray="5,2" d="M179.5,-143.71C179.5,-130 179.5,-112.05 179.5,-101.59"/>
<polygon fill="orange" stroke="orange" points="176,-143.98 179.5,-153.98 183,-143.98 176,-143.98"/>
</a>
</g>
<text text-anchor="middle" x="199.5" y="-128" font-family="Helvetica,sans-Serif" font-size="10.00" fill="grey"> &lt; bool &gt;</text>
</g>
<!-- Node5 -->
<g id="Node000005" class="node">
<title>Node5</title>
<g id="a_Node000005"><a xlink:title=" ">
<polygon fill="white" stroke="#666666" points="194,-239 165,-239 165,-220 194,-220 194,-239"/>
<text text-anchor="middle" x="179.5" y="-227" font-family="Helvetica,sans-Serif" font-size="10.00">T</text>
</a>
</g>
</g>
<!-- Node5&#45;&gt;Node4 -->
<g id="edge4_Node000004_Node000005" class="edge">
<title>Node5&#45;&gt;Node4</title>
<g id="a_edge4_Node000004_Node000005"><a xlink:title=" ">
<path fill="none" stroke="#9a32cd" stroke-dasharray="5,2" d="M179.5,-209.58C179.5,-197.63 179.5,-182.72 179.5,-173.41"/>
<polygon fill="#9a32cd" stroke="#9a32cd" points="176,-209.87 179.5,-219.87 183,-209.87 176,-209.87"/>
</a>
</g>
<text text-anchor="middle" x="187" y="-194" font-family="Helvetica,sans-Serif" font-size="10.00" fill="grey"> ptr</text>
</g>
</g>
</svg>
