<?xml version="1.0" encoding="UTF-8" standalone="no"?>
<!DOCTYPE svg PUBLIC "-//W3C//DTD SVG 1.1//EN"
 "http://www.w3.org/Graphics/SVG/1.1/DTD/svg11.dtd">
<!-- Generated by graphviz version 2.42.4 (0)
 -->
<!-- Title: include/vkstBuffer.hpp Pages: 1 -->
<!--zoomable 368 -->

<svg id="main" version="1.1" xmlns="http://www.w3.org/2000/svg" xmlns:xlink="http://www.w3.org/1999/xlink" xml:space="preserve" onload="init(evt)">
<style type="text/css"><![CDATA[
.node, .edge {opacity: 0.7;}
.node.selected, .edge.selected {opacity: 1;}
.edge:hover path { stroke: red; }
.edge:hover polygon { stroke: red; fill: red; }
]]></style>

<defs>
  <circle id="rim" cx="0" cy="0" r="7"/>
  <circle id="rim2" cx="0" cy="0" r="3.5"/>
  <g id="zoomPlus">
    <use xlink:href="#rim" fill="#404040"><set attributeName="fill" to="#808080" begin="zoomplus.mouseover" end="zoomplus.mouseout"/></use>
    <path d="M-4,0h8M0,-4v8" fill="none" stroke="white" stroke-width="1.5" pointer-events="none"/>
  </g>
  <g id="zoomMin">
    <use xlink:href="#rim" fill="#404040"><set attributeName="fill" to="#808080" begin="zoomminus.mouseover" end="zoomminus.mouseout"/></use>
    <path d="M-4,0h8" fill="none" stroke="white" stroke-width="1.5" pointer-events="none"/>
  </g>
  <g id="arrowUp" transform="translate(30 24)">
    <use xlink:href="#rim"/>
    <path pointer-events="none" fill="none" stroke="white" stroke-width="1.5" d="M0,-3.0v7 M-2.5,-0.5L0,-3.0L2.5,-0.5"/>
  </g>
  <g id="arrowRight" transform="rotate(90) translate(36 -43)">
    <use xlink:href="#rim"/>
    <path pointer-events="none" fill="none" stroke="white" stroke-width="1.5" d="M0,-3.0v7 M-2.5,-0.5L0,-3.0L2.5,-0.5"/>
  </g>
  <g id="arrowDown" transform="rotate(180) translate(-30 -48)">
    <use xlink:href="#rim"/>
    <path pointer-events="none" fill="none" stroke="white" stroke-width="1.5" d="M0,-3.0v7 M-2.5,-0.5L0,-3.0L2.5,-0.5"/>
  </g>
  <g id="arrowLeft" transform="rotate(270) translate(-36 17)">
    <use xlink:href="#rim"/>
    <path pointer-events="none" fill="none" stroke="white" stroke-width="1.5" d="M0,-3.0v7 M-2.5,-0.5L0,-3.0L2.5,-0.5"/>
  </g>
  <g id="resetDef">
    <use xlink:href="#rim2" fill="#404040"><set attributeName="fill" to="#808080" begin="reset.mouseover" end="reset.mouseout"/></use>
  </g>
</defs>
<script type="application/ecmascript">
var viewWidth = 652;
var viewHeight = 368;
var sectionId = 'dynsection-0';
</script>
<script type="application/ecmascript" xlink:href="../../svg.min.js"/>
<svg id="graph" class="graph">
<g id="viewport">
<title>include/vkstBuffer.hpp</title>
<!-- Node1 -->
<g id="Node000001" class="node">
<title>Node1</title>
<g id="a_Node000001"><a xlink:title=" ">
<polygon fill="#999999" stroke="#666666" points="582.5,-360 469.5,-360 469.5,-341 582.5,-341 582.5,-360"/>
<text text-anchor="middle" x="526" y="-348" font-family="Helvetica,sans-Serif" font-size="10.00">include/vkstBuffer.hpp</text>
</a>
</g>
</g>
<!-- Node2 -->
<g id="Node000002" class="node">
<title>Node2</title>
<g id="a_Node000002"><a xlink:title=" ">
<polygon fill="#e0e0e0" stroke="#999999" points="341,-74 295,-74 295,-55 341,-55 341,-74"/>
<text text-anchor="middle" x="318" y="-62" font-family="Helvetica,sans-Serif" font-size="10.00">stdio.h</text>
</a>
</g>
</g>
<!-- Node1&#45;&gt;Node2 -->
<g id="edge1_Node000001_Node000002" class="edge">
<title>Node1&#45;&gt;Node2</title>
<g id="a_edge1_Node000001_Node000002"><a xlink:title=" ">
<path fill="none" stroke="#63b8ff" d="M522,-340.83C509.09,-313.34 466.43,-226.37 416,-165 400.82,-146.52 392.97,-145.85 376,-129 360.53,-113.64 343.84,-95.14 332.35,-82.09"/>
<polygon fill="#63b8ff" stroke="#63b8ff" points="334.83,-79.61 325.62,-74.38 329.56,-84.21 334.83,-79.61"/>
</a>
</g>
</g>
<!-- Node3 -->
<g id="Node000003" class="node">
<title>Node3</title>
<g id="a_Node000003"><a xlink:title=" ">
<polygon fill="#e0e0e0" stroke="#999999" points="644,-305 592,-305 592,-286 644,-286 644,-305"/>
<text text-anchor="middle" x="618" y="-293" font-family="Helvetica,sans-Serif" font-size="10.00">assert.h</text>
</a>
</g>
</g>
<!-- Node1&#45;&gt;Node3 -->
<g id="edge2_Node000001_Node000003" class="edge">
<title>Node1&#45;&gt;Node3</title>
<g id="a_edge2_Node000001_Node000003"><a xlink:title=" ">
<path fill="none" stroke="#63b8ff" d="M540.78,-340.98C555.18,-332.69 577.31,-319.94 594.19,-310.22"/>
<polygon fill="#63b8ff" stroke="#63b8ff" points="596.03,-313.19 602.95,-305.17 592.54,-307.13 596.03,-313.19"/>
</a>
</g>
</g>
<!-- Node4 -->
<g id="Node000004" class="node">
<title>Node4</title>
<g id="a_Node000004"><a xlink:title=" ">
<polygon fill="#e0e0e0" stroke="#999999" points="584,-19 538,-19 538,0 584,0 584,-19"/>
<text text-anchor="middle" x="561" y="-7" font-family="Helvetica,sans-Serif" font-size="10.00">atomic</text>
</a>
</g>
</g>
<!-- Node1&#45;&gt;Node4 -->
<g id="edge3_Node000001_Node000004" class="edge">
<title>Node1&#45;&gt;Node4</title>
<g id="a_edge3_Node000001_Node000004"><a xlink:title=" ">
<path fill="none" stroke="#63b8ff" d="M531.28,-340.9C541.73,-323.07 564,-280.46 564,-241.5 564,-241.5 564,-241.5 564,-118.5 564,-87.18 562.72,-50.77 561.84,-29.23"/>
<polygon fill="#63b8ff" stroke="#63b8ff" points="565.33,-29.02 561.4,-19.18 558.34,-29.32 565.33,-29.02"/>
</a>
</g>
</g>
<!-- Node5 -->
<g id="Node000005" class="node">
<title>Node5</title>
<g id="a_Node000005"><a xlink:href="../../dd/d2c/vkstAllocator_8hpp.html" target="_top" xlink:title=" ">
<polygon fill="white" stroke="#666666" points="377,-305 285,-305 285,-286 377,-286 377,-305"/>
<text text-anchor="middle" x="331" y="-293" font-family="Helvetica,sans-Serif" font-size="10.00">vkstAllocator.hpp</text>
</a>
</g>
</g>
<!-- Node1&#45;&gt;Node5 -->
<g id="edge4_Node000001_Node000005" class="edge">
<title>Node1&#45;&gt;Node5</title>
<g id="a_edge4_Node000001_Node000005"><a xlink:title=" ">
<path fill="none" stroke="#63b8ff" d="M494.67,-340.98C461.51,-331.97 409,-317.7 372.44,-307.76"/>
<polygon fill="#63b8ff" stroke="#63b8ff" points="373.14,-304.33 362.58,-305.08 371.31,-311.08 373.14,-304.33"/>
</a>
</g>
</g>
<!-- Node10 -->
<g id="Node000010" class="node">
<title>Node10</title>
<g id="a_Node000010"><a xlink:href="../../d4/d45/vkstLogging_8hpp.html" target="_top" xlink:title=" ">
<polygon fill="white" stroke="#666666" points="535.5,-74 438.5,-74 438.5,-55 535.5,-55 535.5,-74"/>
<text text-anchor="middle" x="487" y="-62" font-family="Helvetica,sans-Serif" font-size="10.00">../vkstLogging.hpp</text>
</a>
</g>
</g>
<!-- Node1&#45;&gt;Node10 -->
<g id="edge30_Node000001_Node000010" class="edge">
<title>Node1&#45;&gt;Node10</title>
<g id="a_edge30_Node000001_Node000010"><a xlink:title=" ">
<path fill="none" stroke="#63b8ff" d="M526,-340.82C526,-322.48 526,-278.44 526,-241.5 526,-241.5 526,-241.5 526,-179 526,-143.57 508.79,-105.12 497.23,-83.3"/>
<polygon fill="#63b8ff" stroke="#63b8ff" points="500.15,-81.34 492.26,-74.27 494.02,-84.71 500.15,-81.34"/>
</a>
</g>
</g>
<!-- Node6 -->
<g id="Node000006" class="node">
<title>Node6</title>
<g id="a_Node000006"><a xlink:href="../../d5/d82/vkstMallocAllocator_8hpp.html" target="_top" xlink:title=" ">
<polygon fill="white" stroke="#666666" points="259.5,-250 98.5,-250 98.5,-231 259.5,-231 259.5,-250"/>
<text text-anchor="middle" x="179" y="-238" font-family="Helvetica,sans-Serif" font-size="10.00">Allocator/vkstMallocAllocator.hpp</text>
</a>
</g>
</g>
<!-- Node5&#45;&gt;Node6 -->
<g id="edge5_Node000005_Node000006" class="edge">
<title>Node5&#45;&gt;Node6</title>
<g id="a_edge5_Node000005_Node000006"><a xlink:title=" ">
<path fill="none" stroke="#63b8ff" d="M306.58,-285.98C281.28,-277.16 241.55,-263.31 213.14,-253.41"/>
<polygon fill="#63b8ff" stroke="#63b8ff" points="214.21,-250.07 203.61,-250.08 211.9,-256.68 214.21,-250.07"/>
</a>
</g>
</g>
<!-- Node22 -->
<g id="Node000022" class="node">
<title>Node22</title>
<g id="a_Node000022"><a xlink:href="../../d5/d58/vkstAllocatorMaximalFilter_8hpp.html" target="_top" xlink:title=" ">
<polygon fill="white" stroke="#666666" points="407,-195 255,-195 255,-165 407,-165 407,-195"/>
<text text-anchor="start" x="263" y="-183" font-family="Helvetica,sans-Serif" font-size="10.00">Allocator/vkstAllocatorMaximal</text>
<text text-anchor="middle" x="331" y="-172" font-family="Helvetica,sans-Serif" font-size="10.00">Filter.hpp</text>
</a>
</g>
</g>
<!-- Node5&#45;&gt;Node22 -->
<g id="edge28_Node000005_Node000022" class="edge">
<title>Node5&#45;&gt;Node22</title>
<g id="a_edge28_Node000005_Node000022"><a xlink:title=" ">
<path fill="none" stroke="#63b8ff" d="M331,-285.97C331,-269.08 331,-230.85 331,-205.48"/>
<polygon fill="#63b8ff" stroke="#63b8ff" points="334.5,-205.18 331,-195.18 327.5,-205.18 334.5,-205.18"/>
</a>
</g>
</g>
<!-- Node7 -->
<g id="Node000007" class="node">
<title>Node7</title>
<g id="a_Node000007"><a xlink:href="../../d0/dd1/vkstAllocatorBase_8hpp.html" target="_top" xlink:title=" ">
<polygon fill="white" stroke="#666666" points="236.5,-189.5 121.5,-189.5 121.5,-170.5 236.5,-170.5 236.5,-189.5"/>
<text text-anchor="middle" x="179" y="-177.5" font-family="Helvetica,sans-Serif" font-size="10.00">vkstAllocatorBase.hpp</text>
</a>
</g>
</g>
<!-- Node6&#45;&gt;Node7 -->
<g id="edge6_Node000006_Node000007" class="edge">
<title>Node6&#45;&gt;Node7</title>
<g id="a_edge6_Node000006_Node000007"><a xlink:title=" ">
<path fill="none" stroke="#63b8ff" d="M179,-230.87C179,-222.75 179,-210.31 179,-199.89"/>
<polygon fill="#63b8ff" stroke="#63b8ff" points="182.5,-199.67 179,-189.67 175.5,-199.67 182.5,-199.67"/>
</a>
</g>
</g>
<!-- Node13 -->
<g id="Node000013" class="node">
<title>Node13</title>
<g id="a_Node000013"><a xlink:href="../../d0/dcf/vkstAllocatorTraits_8hpp.html" target="_top" xlink:title=" ">
<polygon fill="white" stroke="#666666" points="175.5,-129 58.5,-129 58.5,-110 175.5,-110 175.5,-129"/>
<text text-anchor="middle" x="117" y="-117" font-family="Helvetica,sans-Serif" font-size="10.00">vkstAllocatorTraits.hpp</text>
</a>
</g>
</g>
<!-- Node6&#45;&gt;Node13 -->
<g id="edge27_Node000006_Node000013" class="edge">
<title>Node6&#45;&gt;Node13</title>
<g id="a_edge27_Node000006_Node000013"><a xlink:title=" ">
<path fill="none" stroke="#63b8ff" d="M155.89,-230.98C140.41,-223.92 121.24,-212.23 112,-195 102.74,-177.74 106.16,-154.89 110.51,-139.07"/>
<polygon fill="#63b8ff" stroke="#63b8ff" points="113.89,-139.99 113.53,-129.4 107.21,-137.9 113.89,-139.99"/>
</a>
</g>
</g>
<!-- Node7&#45;&gt;Node2 -->
<g id="edge7_Node000007_Node000002" class="edge">
<title>Node7&#45;&gt;Node2</title>
<g id="a_edge7_Node000007_Node000002"><a xlink:title=" ">
<path fill="none" stroke="#63b8ff" d="M189.45,-170.47C212.89,-151.32 269.95,-104.73 299.53,-80.58"/>
<polygon fill="#63b8ff" stroke="#63b8ff" points="301.9,-83.17 307.43,-74.13 297.47,-77.74 301.9,-83.17"/>
</a>
</g>
</g>
<!-- Node8 -->
<g id="Node000008" class="node">
<title>Node8</title>
<g id="a_Node000008"><a xlink:href="../../d1/d72/vkstAllocatorFilter_8hpp.html" target="_top" xlink:title=" ">
<polygon fill="white" stroke="#666666" points="497.5,-129 384.5,-129 384.5,-110 497.5,-110 497.5,-129"/>
<text text-anchor="middle" x="441" y="-117" font-family="Helvetica,sans-Serif" font-size="10.00">vkstAllocatorFilter.hpp</text>
</a>
</g>
</g>
<!-- Node7&#45;&gt;Node8 -->
<g id="edge8_Node000007_Node000008" class="edge">
<title>Node7&#45;&gt;Node8</title>
<g id="a_edge8_Node000007_Node000008"><a xlink:title=" ">
<path fill="none" stroke="#63b8ff" d="M217.1,-170.49C263.57,-160.12 342.18,-142.57 392.81,-131.26"/>
<polygon fill="#63b8ff" stroke="#63b8ff" points="393.86,-134.61 402.86,-129.02 392.33,-127.78 393.86,-134.61"/>
</a>
</g>
</g>
<!-- Node7&#45;&gt;Node13 -->
<g id="edge15_Node000007_Node000013" class="edge">
<title>Node7&#45;&gt;Node13</title>
<g id="a_edge15_Node000007_Node000013"><a xlink:title=" ">
<path fill="none" stroke="#63b8ff" d="M169.85,-170.37C160.33,-161.38 145.2,-147.11 133.57,-136.14"/>
<polygon fill="#63b8ff" stroke="#63b8ff" points="135.86,-133.48 126.19,-129.17 131.06,-138.58 135.86,-133.48"/>
</a>
</g>
</g>
<!-- Node17 -->
<g id="Node000017" class="node">
<title>Node17</title>
<g id="a_Node000017"><a xlink:href="../../d0/d1f/vkstAlignment_8hpp.html" target="_top" xlink:title=" ">
<polygon fill="white" stroke="#666666" points="264.5,-74 157.5,-74 157.5,-55 264.5,-55 264.5,-74"/>
<text text-anchor="middle" x="211" y="-62" font-family="Helvetica,sans-Serif" font-size="10.00">../vkstAlignment.hpp</text>
</a>
</g>
</g>
<!-- Node7&#45;&gt;Node17 -->
<g id="edge26_Node000007_Node000017" class="edge">
<title>Node7&#45;&gt;Node17</title>
<g id="a_edge26_Node000007_Node000017"><a xlink:title=" ">
<path fill="none" stroke="#63b8ff" d="M181.41,-170.47C186.57,-152.15 198.83,-108.68 205.84,-83.81"/>
<polygon fill="#63b8ff" stroke="#63b8ff" points="209.22,-84.7 208.57,-74.13 202.48,-82.8 209.22,-84.7"/>
</a>
</g>
</g>
<!-- Node8&#45;&gt;Node2 -->
<g id="edge9_Node000008_Node000002" class="edge">
<title>Node8&#45;&gt;Node2</title>
<g id="a_edge9_Node000008_Node000002"><a xlink:title=" ">
<path fill="none" stroke="#63b8ff" d="M421.24,-109.98C401.27,-101.38 370.2,-87.99 347.35,-78.15"/>
<polygon fill="#63b8ff" stroke="#63b8ff" points="348.69,-74.91 338.12,-74.17 345.92,-81.34 348.69,-74.91"/>
</a>
</g>
</g>
<!-- Node9 -->
<g id="Node000009" class="node">
<title>Node9</title>
<g id="a_Node000009"><a xlink:title=" ">
<polygon fill="#e0e0e0" stroke="#999999" points="420,-74 368,-74 368,-55 420,-55 420,-74"/>
<text text-anchor="middle" x="394" y="-62" font-family="Helvetica,sans-Serif" font-size="10.00">sstream</text>
</a>
</g>
</g>
<!-- Node8&#45;&gt;Node9 -->
<g id="edge10_Node000008_Node000009" class="edge">
<title>Node8&#45;&gt;Node9</title>
<g id="a_edge10_Node000008_Node000009"><a xlink:title=" ">
<path fill="none" stroke="#63b8ff" d="M433.24,-109.75C426.53,-102.18 416.66,-91.05 408.49,-81.84"/>
<polygon fill="#63b8ff" stroke="#63b8ff" points="410.87,-79.25 401.62,-74.09 405.63,-83.89 410.87,-79.25"/>
</a>
</g>
</g>
<!-- Node8&#45;&gt;Node10 -->
<g id="edge11_Node000008_Node000010" class="edge">
<title>Node8&#45;&gt;Node10</title>
<g id="a_edge11_Node000008_Node000010"><a xlink:title=" ">
<path fill="none" stroke="#63b8ff" d="M448.6,-109.75C455.16,-102.18 464.82,-91.05 472.81,-81.84"/>
<polygon fill="#63b8ff" stroke="#63b8ff" points="475.63,-83.94 479.55,-74.09 470.35,-79.35 475.63,-83.94"/>
</a>
</g>
</g>
<!-- Node10&#45;&gt;Node4 -->
<g id="edge13_Node000010_Node000004" class="edge">
<title>Node10&#45;&gt;Node4</title>
<g id="a_edge13_Node000010_Node000004"><a xlink:title=" ">
<path fill="none" stroke="#63b8ff" d="M498.89,-54.98C510.15,-46.92 527.29,-34.65 540.71,-25.03"/>
<polygon fill="#63b8ff" stroke="#63b8ff" points="542.8,-27.84 548.89,-19.17 538.73,-22.15 542.8,-27.84"/>
</a>
</g>
</g>
<!-- Node11 -->
<g id="Node000011" class="node">
<title>Node11</title>
<g id="a_Node000011"><a xlink:title=" ">
<polygon fill="#e0e0e0" stroke="#999999" points="516,-19 462,-19 462,0 516,0 516,-19"/>
<text text-anchor="middle" x="489" y="-7" font-family="Helvetica,sans-Serif" font-size="10.00">iostream</text>
</a>
</g>
</g>
<!-- Node10&#45;&gt;Node11 -->
<g id="edge12_Node000010_Node000011" class="edge">
<title>Node10&#45;&gt;Node11</title>
<g id="a_edge12_Node000010_Node000011"><a xlink:title=" ">
<path fill="none" stroke="#63b8ff" d="M487.33,-54.75C487.59,-47.8 487.97,-37.85 488.3,-29.13"/>
<polygon fill="#63b8ff" stroke="#63b8ff" points="491.8,-29.21 488.68,-19.09 484.8,-28.95 491.8,-29.21"/>
</a>
</g>
</g>
<!-- Node12 -->
<g id="Node000012" class="node">
<title>Node12</title>
<g id="a_Node000012"><a xlink:title=" ">
<polygon fill="#e0e0e0" stroke="#999999" points="444,-19 400,-19 400,0 444,0 444,-19"/>
<text text-anchor="middle" x="422" y="-7" font-family="Helvetica,sans-Serif" font-size="10.00">mutex</text>
</a>
</g>
</g>
<!-- Node10&#45;&gt;Node12 -->
<g id="edge14_Node000010_Node000012" class="edge">
<title>Node10&#45;&gt;Node12</title>
<g id="a_edge14_Node000010_Node000012"><a xlink:title=" ">
<path fill="none" stroke="#63b8ff" d="M476.56,-54.98C466.85,-47.07 452.18,-35.11 440.5,-25.58"/>
<polygon fill="#63b8ff" stroke="#63b8ff" points="442.6,-22.78 432.63,-19.17 438.17,-28.2 442.6,-22.78"/>
</a>
</g>
</g>
<!-- Node13&#45;&gt;Node2 -->
<g id="edge16_Node000013_Node000002" class="edge">
<title>Node13&#45;&gt;Node2</title>
<g id="a_edge16_Node000013_Node000002"><a xlink:title=" ">
<path fill="none" stroke="#63b8ff" d="M149.29,-109.98C186.52,-100.17 247.39,-84.12 284.94,-74.22"/>
<polygon fill="#63b8ff" stroke="#63b8ff" points="286.09,-77.53 294.87,-71.6 284.31,-70.76 286.09,-77.53"/>
</a>
</g>
</g>
<!-- Node14 -->
<g id="Node000014" class="node">
<title>Node14</title>
<g id="a_Node000014"><a xlink:title=" ">
<polygon fill="#e0e0e0" stroke="#999999" points="62,-19 0,-19 0,0 62,0 62,-19"/>
<text text-anchor="middle" x="31" y="-7" font-family="Helvetica,sans-Serif" font-size="10.00">type_traits</text>
</a>
</g>
</g>
<!-- Node13&#45;&gt;Node14 -->
<g id="edge17_Node000013_Node000014" class="edge">
<title>Node13&#45;&gt;Node14</title>
<g id="a_edge17_Node000013_Node000014"><a xlink:title=" ">
<path fill="none" stroke="#63b8ff" d="M69.86,-109.95C49.37,-103.64 27.28,-92.75 15,-74 5.88,-60.07 12.43,-41.3 19.71,-27.78"/>
<polygon fill="#63b8ff" stroke="#63b8ff" points="22.82,-29.4 24.92,-19.01 16.8,-25.82 22.82,-29.4"/>
</a>
</g>
</g>
<!-- Node15 -->
<g id="Node000015" class="node">
<title>Node15</title>
<g id="a_Node000015"><a xlink:title=" ">
<polygon fill="#e0e0e0" stroke="#999999" points="139.5,-74 94.5,-74 94.5,-55 139.5,-55 139.5,-74"/>
<text text-anchor="middle" x="117" y="-62" font-family="Helvetica,sans-Serif" font-size="10.00">cstdlib</text>
</a>
</g>
</g>
<!-- Node13&#45;&gt;Node15 -->
<g id="edge18_Node000013_Node000015" class="edge">
<title>Node13&#45;&gt;Node15</title>
<g id="a_edge18_Node000013_Node000015"><a xlink:title=" ">
<path fill="none" stroke="#63b8ff" d="M117,-109.75C117,-102.8 117,-92.85 117,-84.13"/>
<polygon fill="#63b8ff" stroke="#63b8ff" points="120.5,-84.09 117,-74.09 113.5,-84.09 120.5,-84.09"/>
</a>
</g>
</g>
<!-- Node16 -->
<g id="Node000016" class="node">
<title>Node16</title>
<g id="a_Node000016"><a xlink:title=" ">
<polygon fill="#e0e0e0" stroke="#999999" points="76,-74 24,-74 24,-55 76,-55 76,-74"/>
<text text-anchor="middle" x="50" y="-62" font-family="Helvetica,sans-Serif" font-size="10.00">memory</text>
</a>
</g>
</g>
<!-- Node13&#45;&gt;Node16 -->
<g id="edge19_Node000013_Node000016" class="edge">
<title>Node13&#45;&gt;Node16</title>
<g id="a_edge19_Node000013_Node000016"><a xlink:title=" ">
<path fill="none" stroke="#63b8ff" d="M106.24,-109.98C96.23,-102.07 81.11,-90.11 69.07,-80.58"/>
<polygon fill="#63b8ff" stroke="#63b8ff" points="70.97,-77.63 60.96,-74.17 66.63,-83.12 70.97,-77.63"/>
</a>
</g>
</g>
<!-- Node13&#45;&gt;Node17 -->
<g id="edge20_Node000013_Node000017" class="edge">
<title>Node13&#45;&gt;Node17</title>
<g id="a_edge20_Node000013_Node000017"><a xlink:title=" ">
<path fill="none" stroke="#63b8ff" d="M132.1,-109.98C146.82,-101.69 169.42,-88.94 186.67,-79.22"/>
<polygon fill="#63b8ff" stroke="#63b8ff" points="188.63,-82.13 195.62,-74.17 185.19,-76.03 188.63,-82.13"/>
</a>
</g>
</g>
<!-- Node17&#45;&gt;Node14 -->
<g id="edge25_Node000017_Node000014" class="edge">
<title>Node17&#45;&gt;Node14</title>
<g id="a_edge25_Node000017_Node000014"><a xlink:title=" ">
<path fill="none" stroke="#63b8ff" d="M182.08,-54.98C151.73,-46.05 103.83,-31.94 70.12,-22.02"/>
<polygon fill="#63b8ff" stroke="#63b8ff" points="70.73,-18.55 60.15,-19.08 68.75,-25.26 70.73,-18.55"/>
</a>
</g>
</g>
<!-- Node18 -->
<g id="Node000018" class="node">
<title>Node18</title>
<g id="a_Node000018"><a xlink:title=" ">
<polygon fill="#e0e0e0" stroke="#999999" points="134,-19 82,-19 82,0 134,0 134,-19"/>
<text text-anchor="middle" x="108" y="-7" font-family="Helvetica,sans-Serif" font-size="10.00">stddef.h</text>
</a>
</g>
</g>
<!-- Node17&#45;&gt;Node18 -->
<g id="edge21_Node000017_Node000018" class="edge">
<title>Node17&#45;&gt;Node18</title>
<g id="a_edge21_Node000017_Node000018"><a xlink:title=" ">
<path fill="none" stroke="#63b8ff" d="M194.45,-54.98C178.11,-46.57 152.87,-33.59 133.87,-23.81"/>
<polygon fill="#63b8ff" stroke="#63b8ff" points="135.34,-20.63 124.85,-19.17 132.14,-26.86 135.34,-20.63"/>
</a>
</g>
</g>
<!-- Node19 -->
<g id="Node000019" class="node">
<title>Node19</title>
<g id="a_Node000019"><a xlink:title=" ">
<polygon fill="#e0e0e0" stroke="#999999" points="201.5,-19 152.5,-19 152.5,0 201.5,0 201.5,-19"/>
<text text-anchor="middle" x="177" y="-7" font-family="Helvetica,sans-Serif" font-size="10.00">stdint.h</text>
</a>
</g>
</g>
<!-- Node17&#45;&gt;Node19 -->
<g id="edge22_Node000017_Node000019" class="edge">
<title>Node17&#45;&gt;Node19</title>
<g id="a_edge22_Node000017_Node000019"><a xlink:title=" ">
<path fill="none" stroke="#63b8ff" d="M205.39,-54.75C200.68,-47.42 193.83,-36.73 188.03,-27.7"/>
<polygon fill="#63b8ff" stroke="#63b8ff" points="190.86,-25.62 182.51,-19.09 184.96,-29.4 190.86,-25.62"/>
</a>
</g>
</g>
<!-- Node20 -->
<g id="Node000020" class="node">
<title>Node20</title>
<g id="a_Node000020"><a xlink:title=" ">
<polygon fill="#e0e0e0" stroke="#999999" points="268,-19 220,-19 220,0 268,0 268,-19"/>
<text text-anchor="middle" x="244" y="-7" font-family="Helvetica,sans-Serif" font-size="10.00">limits.h</text>
</a>
</g>
</g>
<!-- Node17&#45;&gt;Node20 -->
<g id="edge23_Node000017_Node000020" class="edge">
<title>Node17&#45;&gt;Node20</title>
<g id="a_edge23_Node000017_Node000020"><a xlink:title=" ">
<path fill="none" stroke="#63b8ff" d="M216.45,-54.75C221.01,-47.42 227.67,-36.73 233.29,-27.7"/>
<polygon fill="#63b8ff" stroke="#63b8ff" points="236.34,-29.43 238.65,-19.09 230.4,-25.73 236.34,-29.43"/>
</a>
</g>
</g>
<!-- Node21 -->
<g id="Node000021" class="node">
<title>Node21</title>
<g id="a_Node000021"><a xlink:title=" ">
<polygon fill="#e0e0e0" stroke="#999999" points="345.5,-19 286.5,-19 286.5,0 345.5,0 345.5,-19"/>
<text text-anchor="middle" x="316" y="-7" font-family="Helvetica,sans-Serif" font-size="10.00">stdalign.h</text>
</a>
</g>
</g>
<!-- Node17&#45;&gt;Node21 -->
<g id="edge24_Node000017_Node000021" class="edge">
<title>Node17&#45;&gt;Node21</title>
<g id="a_edge24_Node000017_Node000021"><a xlink:title=" ">
<path fill="none" stroke="#63b8ff" d="M227.87,-54.98C244.61,-46.54 270.5,-33.47 289.89,-23.68"/>
<polygon fill="#63b8ff" stroke="#63b8ff" points="291.47,-26.8 298.82,-19.17 288.32,-20.55 291.47,-26.8"/>
</a>
</g>
</g>
<!-- Node22&#45;&gt;Node2 -->
<g id="edge29_Node000022_Node000002" class="edge">
<title>Node22&#45;&gt;Node2</title>
<g id="a_edge29_Node000022_Node000002"><a xlink:title=" ">
<path fill="none" stroke="#63b8ff" d="M329.35,-164.63C327.02,-144.21 322.73,-106.81 320.15,-84.24"/>
<polygon fill="#63b8ff" stroke="#63b8ff" points="323.62,-83.77 319,-74.23 316.66,-84.56 323.62,-83.77"/>
</a>
</g>
</g>
</g>
</svg>

<g id="navigator" transform="translate(0 0)" fill="#404254">
  <rect fill="#f2f5e9" fill-opacity="0.5" stroke="#606060" stroke-width=".5" x="0" y="0" width="60" height="60"/>
  <use id="zoomplus" xlink:href="#zoomPlus" x="17" y="9" onmousedown="handleZoom(evt,'in')"/>
  <use id="zoomminus" xlink:href="#zoomMin" x="42" y="9" onmousedown="handleZoom(evt,'out')"/>
  <use id="reset" xlink:href="#resetDef" x="30" y="36" onmousedown="handleReset()"/>
   <use id="arrowup" xlink:href="#arrowUp" x="0" y="0" onmousedown="handlePan(0,-1)"/>
  <use id="arrowright" xlink:href="#arrowRight" x="0" y="0" onmousedown="handlePan(1,0)"/>
  <use id="arrowdown" xlink:href="#arrowDown" x="0" y="0" onmousedown="handlePan(0,1)"/>
  <use id="arrowleft" xlink:href="#arrowLeft" x="0" y="0" onmousedown="handlePan(-1,0)"/>
</g>
<svg viewBox="0 0 15 15" width="100%" height="30px" preserveAspectRatio="xMaxYMin meet">
 <g id="arrow_out" transform="scale(0.3 0.3)">
  <a xlink:href="vkstBuffer_8hpp__incl_org.svg" target="_base">
   <rect id="button" ry="5" rx="5" y="6" x="6" height="38" width="38"
        fill="#f2f5e9" fill-opacity="0.5" stroke="#606060" stroke-width="1.0"/>
   <path id="arrow"
     d="M 11.500037,31.436501 C 11.940474,20.09759 22.043105,11.32322 32.158766,21.979434 L 37.068811,17.246167 C 37.068811,17.246167 37.088388,32 37.088388,32 L 22.160133,31.978069 C 22.160133,31.978069 26.997745,27.140456 26.997745,27.140456 C 18.528582,18.264221 13.291696,25.230495 11.500037,31.436501 z"
     style="fill:#404040;"/>
  </a>
 </g>
</svg>

<style type='text/css'>
<![CDATA[
[data-mouse-over-selected='false'] { opacity: 0.7; }
[data-mouse-over-selected='true']  { opacity: 1.0; }
]]>
</style>
<script type="application/ecmascript"><![CDATA[
document.addEventListener('DOMContentLoaded', (event) => {
  highlightEdges();
  highlightAdjacentNodes();
});
]]></script>
</svg>
