<?xml version="1.0" encoding="UTF-8" standalone="no"?>
<!DOCTYPE svg PUBLIC "-//W3C//DTD SVG 1.1//EN"
 "http://www.w3.org/Graphics/SVG/1.1/DTD/svg11.dtd">
<!-- Generated by graphviz version 2.42.4 (0)
 -->
<!-- Title: include/libvkst.hpp Pages: 1 -->
<svg width="792pt" height="423pt"
 viewBox="0.00 0.00 791.50 423.00" xmlns="http://www.w3.org/2000/svg" xmlns:xlink="http://www.w3.org/1999/xlink">
<g id="graph0" class="graph" transform="scale(1 1) rotate(0) translate(4 419)">
<title>include/libvkst.hpp</title>
<!-- Node1 -->
<g id="Node000001" class="node">
<title>Node1</title>
<g id="a_Node000001"><a xlink:title=" ">
<polygon fill="#999999" stroke="#666666" points="624.5,-415 526.5,-415 526.5,-396 624.5,-396 624.5,-415"/>
<text text-anchor="middle" x="575.5" y="-403" font-family="Helvetica,sans-Serif" font-size="10.00">include/libvkst.hpp</text>
</a>
</g>
</g>
<!-- Node2 -->
<g id="Node000002" class="node">
<title>Node2</title>
<g id="a_Node000002"><a xlink:href="../../da/dc8/vkstBuffer_8hpp.html" target="_top" xlink:title=" ">
<polygon fill="white" stroke="#666666" points="541.5,-305 461.5,-305 461.5,-286 541.5,-286 541.5,-305"/>
<text text-anchor="middle" x="501.5" y="-293" font-family="Helvetica,sans-Serif" font-size="10.00">vkstBuffer.hpp</text>
</a>
</g>
</g>
<!-- Node1&#45;&gt;Node2 -->
<g id="edge1_Node000001_Node000002" class="edge">
<title>Node1&#45;&gt;Node2</title>
<g id="a_edge1_Node000001_Node000002"><a xlink:title=" ">
<path fill="none" stroke="#63b8ff" d="M569.44,-395.66C557.19,-377.77 529.25,-337 513.28,-313.69"/>
<polygon fill="#63b8ff" stroke="#63b8ff" points="515.97,-311.43 507.43,-305.16 510.2,-315.39 515.97,-311.43"/>
</a>
</g>
</g>
<!-- Node25 -->
<g id="Node000025" class="node">
<title>Node25</title>
<g id="a_Node000025"><a xlink:href="../../de/d1d/vkstOpenCLBuffer_8hpp.html" target="_top" xlink:title=" ">
<polygon fill="white" stroke="#666666" points="737.5,-360 621.5,-360 621.5,-341 737.5,-341 737.5,-360"/>
<text text-anchor="middle" x="679.5" y="-348" font-family="Helvetica,sans-Serif" font-size="10.00">vkstOpenCLBuffer.hpp</text>
</a>
</g>
</g>
<!-- Node1&#45;&gt;Node25 -->
<g id="edge32_Node000001_Node000025" class="edge">
<title>Node1&#45;&gt;Node25</title>
<g id="a_edge32_Node000001_Node000025"><a xlink:title=" ">
<path fill="none" stroke="#63b8ff" d="M592.21,-395.98C608.71,-387.57 634.2,-374.59 653.38,-364.81"/>
<polygon fill="#63b8ff" stroke="#63b8ff" points="655.17,-367.83 662.49,-360.17 651.99,-361.59 655.17,-367.83"/>
</a>
</g>
</g>
<!-- Node3 -->
<g id="Node000003" class="node">
<title>Node3</title>
<g id="a_Node000003"><a xlink:title=" ">
<polygon fill="#e0e0e0" stroke="#999999" points="390.5,-74 344.5,-74 344.5,-55 390.5,-55 390.5,-74"/>
<text text-anchor="middle" x="367.5" y="-62" font-family="Helvetica,sans-Serif" font-size="10.00">stdio.h</text>
</a>
</g>
</g>
<!-- Node2&#45;&gt;Node3 -->
<g id="edge2_Node000002_Node000003" class="edge">
<title>Node2&#45;&gt;Node3</title>
<g id="a_edge2_Node000002_Node000003"><a xlink:title=" ">
<path fill="none" stroke="#63b8ff" d="M501.55,-285.71C501.27,-257.11 496.77,-165.41 452.5,-110 439.25,-93.42 418.14,-82.32 400.27,-75.35"/>
<polygon fill="#63b8ff" stroke="#63b8ff" points="401.34,-72.02 390.75,-71.9 398.95,-78.6 401.34,-72.02"/>
</a>
</g>
</g>
<!-- Node4 -->
<g id="Node000004" class="node">
<title>Node4</title>
<g id="a_Node000004"><a xlink:title=" ">
<polygon fill="#e0e0e0" stroke="#999999" points="324.5,-250 272.5,-250 272.5,-231 324.5,-231 324.5,-250"/>
<text text-anchor="middle" x="298.5" y="-238" font-family="Helvetica,sans-Serif" font-size="10.00">assert.h</text>
</a>
</g>
</g>
<!-- Node2&#45;&gt;Node4 -->
<g id="edge3_Node000002_Node000004" class="edge">
<title>Node2&#45;&gt;Node4</title>
<g id="a_edge3_Node000002_Node000004"><a xlink:title=" ">
<path fill="none" stroke="#63b8ff" d="M468.88,-285.98C432.21,-276.41 372.81,-260.9 334.72,-250.96"/>
<polygon fill="#63b8ff" stroke="#63b8ff" points="335.14,-247.45 324.58,-248.31 333.37,-254.22 335.14,-247.45"/>
</a>
</g>
</g>
<!-- Node5 -->
<g id="Node000005" class="node">
<title>Node5</title>
<g id="a_Node000005"><a xlink:href="../../dd/d2c/vkstAllocator_8hpp.html" target="_top" xlink:title=" ">
<polygon fill="white" stroke="#666666" points="434.5,-250 342.5,-250 342.5,-231 434.5,-231 434.5,-250"/>
<text text-anchor="middle" x="388.5" y="-238" font-family="Helvetica,sans-Serif" font-size="10.00">vkstAllocator.hpp</text>
</a>
</g>
</g>
<!-- Node2&#45;&gt;Node5 -->
<g id="edge4_Node000002_Node000005" class="edge">
<title>Node2&#45;&gt;Node5</title>
<g id="a_edge4_Node000002_Node000005"><a xlink:title=" ">
<path fill="none" stroke="#63b8ff" d="M483.34,-285.98C465.25,-277.5 437.22,-264.35 416.31,-254.54"/>
<polygon fill="#63b8ff" stroke="#63b8ff" points="417.53,-251.25 406.99,-250.17 414.55,-257.59 417.53,-251.25"/>
</a>
</g>
</g>
<!-- Node10 -->
<g id="Node000010" class="node">
<title>Node10</title>
<g id="a_Node000010"><a xlink:href="../../d4/d45/vkstLogging_8hpp.html" target="_top" xlink:title=" ">
<polygon fill="white" stroke="#666666" points="651,-74 554,-74 554,-55 651,-55 651,-74"/>
<text text-anchor="middle" x="602.5" y="-62" font-family="Helvetica,sans-Serif" font-size="10.00">../vkstLogging.hpp</text>
</a>
</g>
</g>
<!-- Node2&#45;&gt;Node10 -->
<g id="edge31_Node000002_Node000010" class="edge">
<title>Node2&#45;&gt;Node10</title>
<g id="a_edge31_Node000002_Node000010"><a xlink:title=" ">
<path fill="none" stroke="#63b8ff" d="M512.01,-285.78C537.08,-264.22 599.94,-205.38 622.5,-140 629.09,-120.89 620.96,-98.42 613.17,-83.19"/>
<polygon fill="#63b8ff" stroke="#63b8ff" points="616.17,-81.38 608.26,-74.34 610.05,-84.78 616.17,-81.38"/>
</a>
</g>
</g>
<!-- Node6 -->
<g id="Node000006" class="node">
<title>Node6</title>
<g id="a_Node000006"><a xlink:title=" ">
<polygon fill="#e0e0e0" stroke="#999999" points="405,-195 354,-195 354,-176 405,-176 405,-195"/>
<text text-anchor="middle" x="379.5" y="-183" font-family="Helvetica,sans-Serif" font-size="10.00">config.h</text>
</a>
</g>
</g>
<!-- Node5&#45;&gt;Node6 -->
<g id="edge5_Node000005_Node000006" class="edge">
<title>Node5&#45;&gt;Node6</title>
<g id="a_edge5_Node000005_Node000006"><a xlink:title=" ">
<path fill="none" stroke="#63b8ff" d="M387.01,-230.75C385.83,-223.8 384.14,-213.85 382.66,-205.13"/>
<polygon fill="#63b8ff" stroke="#63b8ff" points="386.08,-204.36 380.96,-195.09 379.18,-205.53 386.08,-204.36"/>
</a>
</g>
</g>
<!-- Node7 -->
<g id="Node000007" class="node">
<title>Node7</title>
<g id="a_Node000007"><a xlink:href="../../d0/dd1/vkstAllocatorBase_8hpp.html" target="_top" xlink:title=" ">
<polygon fill="white" stroke="#666666" points="335.5,-195 179.5,-195 179.5,-176 335.5,-176 335.5,-195"/>
<text text-anchor="middle" x="257.5" y="-183" font-family="Helvetica,sans-Serif" font-size="10.00">Allocator/vkstAllocatorBase.hpp</text>
</a>
</g>
</g>
<!-- Node5&#45;&gt;Node7 -->
<g id="edge6_Node000005_Node000007" class="edge">
<title>Node5&#45;&gt;Node7</title>
<g id="a_edge6_Node000005_Node000007"><a xlink:title=" ">
<path fill="none" stroke="#63b8ff" d="M367.45,-230.98C346.09,-222.34 312.8,-208.87 288.44,-199.02"/>
<polygon fill="#63b8ff" stroke="#63b8ff" points="289.51,-195.68 278.93,-195.17 286.89,-202.17 289.51,-195.68"/>
</a>
</g>
</g>
<!-- Node23 -->
<g id="Node000023" class="node">
<title>Node23</title>
<g id="a_Node000023"><a xlink:href="../../d5/d82/vkstMallocAllocator_8hpp.html" target="_top" xlink:title=" ">
<polygon fill="white" stroke="#666666" points="161,-195 0,-195 0,-176 161,-176 161,-195"/>
<text text-anchor="middle" x="80.5" y="-183" font-family="Helvetica,sans-Serif" font-size="10.00">Allocator/vkstMallocAllocator.hpp</text>
</a>
</g>
</g>
<!-- Node5&#45;&gt;Node23 -->
<g id="edge27_Node000005_Node000023" class="edge">
<title>Node5&#45;&gt;Node23</title>
<g id="a_edge27_Node000005_Node000023"><a xlink:title=" ">
<path fill="none" stroke="#63b8ff" d="M342.39,-231.57C288.45,-222.28 199.03,-206.9 139.93,-196.73"/>
<polygon fill="#63b8ff" stroke="#63b8ff" points="140.44,-193.26 129.99,-195.02 139.25,-200.16 140.44,-193.26"/>
</a>
</g>
</g>
<!-- Node24 -->
<g id="Node000024" class="node">
<title>Node24</title>
<g id="a_Node000024"><a xlink:href="../../d5/d58/vkstAllocatorMaximalFilter_8hpp.html" target="_top" xlink:title=" ">
<polygon fill="white" stroke="#666666" points="443.5,-140 291.5,-140 291.5,-110 443.5,-110 443.5,-140"/>
<text text-anchor="start" x="299.5" y="-128" font-family="Helvetica,sans-Serif" font-size="10.00">Allocator/vkstAllocatorMaximal</text>
<text text-anchor="middle" x="367.5" y="-117" font-family="Helvetica,sans-Serif" font-size="10.00">Filter.hpp</text>
</a>
</g>
</g>
<!-- Node5&#45;&gt;Node24 -->
<g id="edge29_Node000005_Node000024" class="edge">
<title>Node5&#45;&gt;Node24</title>
<g id="a_edge29_Node000005_Node000024"><a xlink:title=" ">
<path fill="none" stroke="#63b8ff" d="M396.45,-230.9C406.69,-218.71 422.31,-195.71 414.5,-176 410.2,-165.15 402.3,-155.27 394.2,-147.22"/>
<polygon fill="#63b8ff" stroke="#63b8ff" points="396.5,-144.59 386.79,-140.37 391.75,-149.73 396.5,-144.59"/>
</a>
</g>
</g>
<!-- Node7&#45;&gt;Node3 -->
<g id="edge7_Node000007_Node000003" class="edge">
<title>Node7&#45;&gt;Node3</title>
<g id="a_edge7_Node000007_Node000003"><a xlink:title=" ">
<path fill="none" stroke="#63b8ff" d="M258.33,-175.65C260.18,-160.55 265.86,-129.52 282.5,-110 296.18,-93.96 317.11,-82.9 334.78,-75.82"/>
<polygon fill="#63b8ff" stroke="#63b8ff" points="336.05,-79.08 344.19,-72.29 333.6,-72.53 336.05,-79.08"/>
</a>
</g>
</g>
<!-- Node8 -->
<g id="Node000008" class="node">
<title>Node8</title>
<g id="a_Node000008"><a xlink:href="../../d1/d72/vkstAllocatorFilter_8hpp.html" target="_top" xlink:title=" ">
<polygon fill="white" stroke="#666666" points="613,-134.5 500,-134.5 500,-115.5 613,-115.5 613,-134.5"/>
<text text-anchor="middle" x="556.5" y="-122.5" font-family="Helvetica,sans-Serif" font-size="10.00">vkstAllocatorFilter.hpp</text>
</a>
</g>
</g>
<!-- Node7&#45;&gt;Node8 -->
<g id="edge8_Node000007_Node000008" class="edge">
<title>Node7&#45;&gt;Node8</title>
<g id="a_edge8_Node000007_Node000008"><a xlink:title=" ">
<path fill="none" stroke="#63b8ff" d="M300.98,-175.99C354.45,-165.53 445.22,-147.77 502.95,-136.48"/>
<polygon fill="#63b8ff" stroke="#63b8ff" points="503.83,-139.87 512.97,-134.52 502.48,-133 503.83,-139.87"/>
</a>
</g>
</g>
<!-- Node14 -->
<g id="Node000014" class="node">
<title>Node14</title>
<g id="a_Node000014"><a xlink:href="../../d0/dcf/vkstAllocatorTraits_8hpp.html" target="_top" xlink:title=" ">
<polygon fill="white" stroke="#666666" points="194,-134.5 77,-134.5 77,-115.5 194,-115.5 194,-134.5"/>
<text text-anchor="middle" x="135.5" y="-122.5" font-family="Helvetica,sans-Serif" font-size="10.00">vkstAllocatorTraits.hpp</text>
</a>
</g>
</g>
<!-- Node7&#45;&gt;Node14 -->
<g id="edge15_Node000007_Node000014" class="edge">
<title>Node7&#45;&gt;Node14</title>
<g id="a_edge15_Node000007_Node000014"><a xlink:title=" ">
<path fill="none" stroke="#63b8ff" d="M239.76,-175.99C219.43,-166.25 185.89,-150.16 162.36,-138.88"/>
<polygon fill="#63b8ff" stroke="#63b8ff" points="163.79,-135.68 153.26,-134.52 160.76,-142 163.79,-135.68"/>
</a>
</g>
</g>
<!-- Node18 -->
<g id="Node000018" class="node">
<title>Node18</title>
<g id="a_Node000018"><a xlink:href="../../d0/d1f/vkstAlignment_8hpp.html" target="_top" xlink:title=" ">
<polygon fill="white" stroke="#666666" points="283,-74 176,-74 176,-55 283,-55 283,-74"/>
<text text-anchor="middle" x="229.5" y="-62" font-family="Helvetica,sans-Serif" font-size="10.00">../vkstAlignment.hpp</text>
</a>
</g>
</g>
<!-- Node7&#45;&gt;Node18 -->
<g id="edge26_Node000007_Node000018" class="edge">
<title>Node7&#45;&gt;Node18</title>
<g id="a_edge26_Node000007_Node000018"><a xlink:title=" ">
<path fill="none" stroke="#63b8ff" d="M255.49,-175.94C250.99,-156.82 240.04,-110.27 233.88,-84.12"/>
<polygon fill="#63b8ff" stroke="#63b8ff" points="237.27,-83.23 231.57,-74.3 230.45,-84.84 237.27,-83.23"/>
</a>
</g>
</g>
<!-- Node8&#45;&gt;Node3 -->
<g id="edge9_Node000008_Node000003" class="edge">
<title>Node8&#45;&gt;Node3</title>
<g id="a_edge9_Node000008_Node000003"><a xlink:title=" ">
<path fill="none" stroke="#63b8ff" d="M529.02,-115.49C494.86,-104.92 436.64,-86.9 400.21,-75.63"/>
<polygon fill="#63b8ff" stroke="#63b8ff" points="401.14,-72.25 390.56,-72.64 399.07,-78.94 401.14,-72.25"/>
</a>
</g>
</g>
<!-- Node9 -->
<g id="Node000009" class="node">
<title>Node9</title>
<g id="a_Node000009"><a xlink:title=" ">
<polygon fill="#e0e0e0" stroke="#999999" points="535.5,-74 483.5,-74 483.5,-55 535.5,-55 535.5,-74"/>
<text text-anchor="middle" x="509.5" y="-62" font-family="Helvetica,sans-Serif" font-size="10.00">sstream</text>
</a>
</g>
</g>
<!-- Node8&#45;&gt;Node9 -->
<g id="edge10_Node000008_Node000009" class="edge">
<title>Node8&#45;&gt;Node9</title>
<g id="a_edge10_Node000008_Node000009"><a xlink:title=" ">
<path fill="none" stroke="#63b8ff" d="M549.56,-115.37C542.55,-106.64 531.54,-92.93 522.83,-82.09"/>
<polygon fill="#63b8ff" stroke="#63b8ff" points="525.46,-79.77 516.46,-74.17 520,-84.16 525.46,-79.77"/>
</a>
</g>
</g>
<!-- Node8&#45;&gt;Node10 -->
<g id="edge11_Node000008_Node000010" class="edge">
<title>Node8&#45;&gt;Node10</title>
<g id="a_edge11_Node000008_Node000010"><a xlink:title=" ">
<path fill="none" stroke="#63b8ff" d="M563.29,-115.37C570.15,-106.64 580.93,-92.93 589.45,-82.09"/>
<polygon fill="#63b8ff" stroke="#63b8ff" points="592.25,-84.19 595.68,-74.17 586.75,-79.86 592.25,-84.19"/>
</a>
</g>
</g>
<!-- Node11 -->
<g id="Node000011" class="node">
<title>Node11</title>
<g id="a_Node000011"><a xlink:title=" ">
<polygon fill="#e0e0e0" stroke="#999999" points="629.5,-19 575.5,-19 575.5,0 629.5,0 629.5,-19"/>
<text text-anchor="middle" x="602.5" y="-7" font-family="Helvetica,sans-Serif" font-size="10.00">iostream</text>
</a>
</g>
</g>
<!-- Node10&#45;&gt;Node11 -->
<g id="edge12_Node000010_Node000011" class="edge">
<title>Node10&#45;&gt;Node11</title>
<g id="a_edge12_Node000010_Node000011"><a xlink:title=" ">
<path fill="none" stroke="#63b8ff" d="M602.5,-54.75C602.5,-47.8 602.5,-37.85 602.5,-29.13"/>
<polygon fill="#63b8ff" stroke="#63b8ff" points="606,-29.09 602.5,-19.09 599,-29.09 606,-29.09"/>
</a>
</g>
</g>
<!-- Node12 -->
<g id="Node000012" class="node">
<title>Node12</title>
<g id="a_Node000012"><a xlink:title=" ">
<polygon fill="#e0e0e0" stroke="#999999" points="783.5,-19 737.5,-19 737.5,0 783.5,0 783.5,-19"/>
<text text-anchor="middle" x="760.5" y="-7" font-family="Helvetica,sans-Serif" font-size="10.00">atomic</text>
</a>
</g>
</g>
<!-- Node10&#45;&gt;Node12 -->
<g id="edge13_Node000010_Node000012" class="edge">
<title>Node10&#45;&gt;Node12</title>
<g id="a_edge13_Node000010_Node000012"><a xlink:title=" ">
<path fill="none" stroke="#63b8ff" d="M627.89,-54.98C655.08,-45.86 698.33,-31.36 727.99,-21.4"/>
<polygon fill="#63b8ff" stroke="#63b8ff" points="729.12,-24.72 737.49,-18.22 726.9,-18.08 729.12,-24.72"/>
</a>
</g>
</g>
<!-- Node13 -->
<g id="Node000013" class="node">
<title>Node13</title>
<g id="a_Node000013"><a xlink:title=" ">
<polygon fill="#e0e0e0" stroke="#999999" points="696.5,-19 652.5,-19 652.5,0 696.5,0 696.5,-19"/>
<text text-anchor="middle" x="674.5" y="-7" font-family="Helvetica,sans-Serif" font-size="10.00">mutex</text>
</a>
</g>
</g>
<!-- Node10&#45;&gt;Node13 -->
<g id="edge14_Node000010_Node000013" class="edge">
<title>Node10&#45;&gt;Node13</title>
<g id="a_edge14_Node000010_Node000013"><a xlink:title=" ">
<path fill="none" stroke="#63b8ff" d="M614.07,-54.98C624.92,-47 641.38,-34.88 654.38,-25.31"/>
<polygon fill="#63b8ff" stroke="#63b8ff" points="656.74,-27.92 662.72,-19.17 652.59,-22.28 656.74,-27.92"/>
</a>
</g>
</g>
<!-- Node14&#45;&gt;Node3 -->
<g id="edge16_Node000014_Node000003" class="edge">
<title>Node14&#45;&gt;Node3</title>
<g id="a_edge16_Node000014_Node000003"><a xlink:title=" ">
<path fill="none" stroke="#63b8ff" d="M169.23,-115.49C213.45,-104.35 290.51,-84.91 334.4,-73.85"/>
<polygon fill="#63b8ff" stroke="#63b8ff" points="335.44,-77.19 344.28,-71.35 333.73,-70.41 335.44,-77.19"/>
</a>
</g>
</g>
<!-- Node15 -->
<g id="Node000015" class="node">
<title>Node15</title>
<g id="a_Node000015"><a xlink:title=" ">
<polygon fill="#e0e0e0" stroke="#999999" points="116.5,-19 54.5,-19 54.5,0 116.5,0 116.5,-19"/>
<text text-anchor="middle" x="85.5" y="-7" font-family="Helvetica,sans-Serif" font-size="10.00">type_traits</text>
</a>
</g>
</g>
<!-- Node14&#45;&gt;Node15 -->
<g id="edge17_Node000014_Node000015" class="edge">
<title>Node14&#45;&gt;Node15</title>
<g id="a_edge17_Node000014_Node000015"><a xlink:title=" ">
<path fill="none" stroke="#63b8ff" d="M128.76,-115.24C121.62,-105.6 110.43,-89.41 103.5,-74 97.03,-59.61 92.31,-42.34 89.33,-29.44"/>
<polygon fill="#63b8ff" stroke="#63b8ff" points="92.7,-28.45 87.16,-19.41 85.86,-29.93 92.7,-28.45"/>
</a>
</g>
</g>
<!-- Node16 -->
<g id="Node000016" class="node">
<title>Node16</title>
<g id="a_Node000016"><a xlink:title=" ">
<polygon fill="#e0e0e0" stroke="#999999" points="158,-74 113,-74 113,-55 158,-55 158,-74"/>
<text text-anchor="middle" x="135.5" y="-62" font-family="Helvetica,sans-Serif" font-size="10.00">cstdlib</text>
</a>
</g>
</g>
<!-- Node14&#45;&gt;Node16 -->
<g id="edge18_Node000014_Node000016" class="edge">
<title>Node14&#45;&gt;Node16</title>
<g id="a_edge18_Node000014_Node000016"><a xlink:title=" ">
<path fill="none" stroke="#63b8ff" d="M135.5,-115.37C135.5,-107.25 135.5,-94.81 135.5,-84.39"/>
<polygon fill="#63b8ff" stroke="#63b8ff" points="139,-84.17 135.5,-74.17 132,-84.17 139,-84.17"/>
</a>
</g>
</g>
<!-- Node17 -->
<g id="Node000017" class="node">
<title>Node17</title>
<g id="a_Node000017"><a xlink:title=" ">
<polygon fill="#e0e0e0" stroke="#999999" points="56.5,-74 4.5,-74 4.5,-55 56.5,-55 56.5,-74"/>
<text text-anchor="middle" x="30.5" y="-62" font-family="Helvetica,sans-Serif" font-size="10.00">memory</text>
</a>
</g>
</g>
<!-- Node14&#45;&gt;Node17 -->
<g id="edge19_Node000014_Node000017" class="edge">
<title>Node14&#45;&gt;Node17</title>
<g id="a_edge19_Node000014_Node000017"><a xlink:title=" ">
<path fill="none" stroke="#63b8ff" d="M120.01,-115.37C102.87,-105.82 75.03,-90.31 54.94,-79.12"/>
<polygon fill="#63b8ff" stroke="#63b8ff" points="56.5,-75.98 46.06,-74.17 53.09,-82.09 56.5,-75.98"/>
</a>
</g>
</g>
<!-- Node14&#45;&gt;Node18 -->
<g id="edge20_Node000014_Node000018" class="edge">
<title>Node14&#45;&gt;Node18</title>
<g id="a_edge20_Node000014_Node000018"><a xlink:title=" ">
<path fill="none" stroke="#63b8ff" d="M149.37,-115.37C164.5,-105.95 188.96,-90.73 206.88,-79.58"/>
<polygon fill="#63b8ff" stroke="#63b8ff" points="208.93,-82.42 215.57,-74.17 205.23,-76.48 208.93,-82.42"/>
</a>
</g>
</g>
<!-- Node18&#45;&gt;Node15 -->
<g id="edge25_Node000018_Node000015" class="edge">
<title>Node18&#45;&gt;Node15</title>
<g id="a_edge25_Node000018_Node000015"><a xlink:title=" ">
<path fill="none" stroke="#63b8ff" d="M206.36,-54.98C182.68,-46.27 145.63,-32.63 118.79,-22.75"/>
<polygon fill="#63b8ff" stroke="#63b8ff" points="119.65,-19.34 109.06,-19.17 117.23,-25.91 119.65,-19.34"/>
</a>
</g>
</g>
<!-- Node19 -->
<g id="Node000019" class="node">
<title>Node19</title>
<g id="a_Node000019"><a xlink:title=" ">
<polygon fill="#e0e0e0" stroke="#999999" points="186.5,-19 134.5,-19 134.5,0 186.5,0 186.5,-19"/>
<text text-anchor="middle" x="160.5" y="-7" font-family="Helvetica,sans-Serif" font-size="10.00">stddef.h</text>
</a>
</g>
</g>
<!-- Node18&#45;&gt;Node19 -->
<g id="edge21_Node000018_Node000019" class="edge">
<title>Node18&#45;&gt;Node19</title>
<g id="a_edge21_Node000018_Node000019"><a xlink:title=" ">
<path fill="none" stroke="#63b8ff" d="M218.41,-54.98C208.01,-47 192.24,-34.88 179.78,-25.31"/>
<polygon fill="#63b8ff" stroke="#63b8ff" points="181.85,-22.49 171.79,-19.17 177.59,-28.04 181.85,-22.49"/>
</a>
</g>
</g>
<!-- Node20 -->
<g id="Node000020" class="node">
<title>Node20</title>
<g id="a_Node000020"><a xlink:title=" ">
<polygon fill="#e0e0e0" stroke="#999999" points="254,-19 205,-19 205,0 254,0 254,-19"/>
<text text-anchor="middle" x="229.5" y="-7" font-family="Helvetica,sans-Serif" font-size="10.00">stdint.h</text>
</a>
</g>
</g>
<!-- Node18&#45;&gt;Node20 -->
<g id="edge22_Node000018_Node000020" class="edge">
<title>Node18&#45;&gt;Node20</title>
<g id="a_edge22_Node000018_Node000020"><a xlink:title=" ">
<path fill="none" stroke="#63b8ff" d="M229.5,-54.75C229.5,-47.8 229.5,-37.85 229.5,-29.13"/>
<polygon fill="#63b8ff" stroke="#63b8ff" points="233,-29.09 229.5,-19.09 226,-29.09 233,-29.09"/>
</a>
</g>
</g>
<!-- Node21 -->
<g id="Node000021" class="node">
<title>Node21</title>
<g id="a_Node000021"><a xlink:title=" ">
<polygon fill="#e0e0e0" stroke="#999999" points="320.5,-19 272.5,-19 272.5,0 320.5,0 320.5,-19"/>
<text text-anchor="middle" x="296.5" y="-7" font-family="Helvetica,sans-Serif" font-size="10.00">limits.h</text>
</a>
</g>
</g>
<!-- Node18&#45;&gt;Node21 -->
<g id="edge23_Node000018_Node000021" class="edge">
<title>Node18&#45;&gt;Node21</title>
<g id="a_edge23_Node000018_Node000021"><a xlink:title=" ">
<path fill="none" stroke="#63b8ff" d="M240.26,-54.98C250.27,-47.07 265.39,-35.11 277.43,-25.58"/>
<polygon fill="#63b8ff" stroke="#63b8ff" points="279.87,-28.12 285.54,-19.17 275.53,-22.63 279.87,-28.12"/>
</a>
</g>
</g>
<!-- Node22 -->
<g id="Node000022" class="node">
<title>Node22</title>
<g id="a_Node000022"><a xlink:title=" ">
<polygon fill="#e0e0e0" stroke="#999999" points="398,-19 339,-19 339,0 398,0 398,-19"/>
<text text-anchor="middle" x="368.5" y="-7" font-family="Helvetica,sans-Serif" font-size="10.00">stdalign.h</text>
</a>
</g>
</g>
<!-- Node18&#45;&gt;Node22 -->
<g id="edge24_Node000018_Node000022" class="edge">
<title>Node18&#45;&gt;Node22</title>
<g id="a_edge24_Node000018_Node000022"><a xlink:title=" ">
<path fill="none" stroke="#63b8ff" d="M251.83,-54.98C274.7,-46.27 310.46,-32.63 336.36,-22.75"/>
<polygon fill="#63b8ff" stroke="#63b8ff" points="337.66,-26 345.76,-19.17 335.17,-19.46 337.66,-26"/>
</a>
</g>
</g>
<!-- Node23&#45;&gt;Node14 -->
<g id="edge28_Node000023_Node000014" class="edge">
<title>Node23&#45;&gt;Node14</title>
<g id="a_edge28_Node000023_Node000014"><a xlink:title=" ">
<path fill="none" stroke="#63b8ff" d="M88.62,-175.87C96.9,-167.05 109.97,-153.16 120.2,-142.27"/>
<polygon fill="#63b8ff" stroke="#63b8ff" points="123.05,-144.35 127.35,-134.67 117.95,-139.56 123.05,-144.35"/>
</a>
</g>
</g>
<!-- Node24&#45;&gt;Node3 -->
<g id="edge30_Node000024_Node000003" class="edge">
<title>Node24&#45;&gt;Node3</title>
<g id="a_edge30_Node000024_Node000003"><a xlink:title=" ">
<path fill="none" stroke="#63b8ff" d="M367.5,-109.84C367.5,-102.21 367.5,-92.7 367.5,-84.45"/>
<polygon fill="#63b8ff" stroke="#63b8ff" points="371,-84.27 367.5,-74.27 364,-84.27 371,-84.27"/>
</a>
</g>
</g>
<!-- Node25&#45;&gt;Node2 -->
<g id="edge36_Node000025_Node000002" class="edge">
<title>Node25&#45;&gt;Node2</title>
<g id="a_edge36_Node000025_Node000002"><a xlink:title=" ">
<path fill="none" stroke="#63b8ff" d="M650.9,-340.98C620.89,-332.05 573.52,-317.94 540.18,-308.02"/>
<polygon fill="#63b8ff" stroke="#63b8ff" points="540.91,-304.58 530.32,-305.08 538.91,-311.29 540.91,-304.58"/>
</a>
</g>
</g>
<!-- Node25&#45;&gt;Node12 -->
<g id="edge34_Node000025_Node000012" class="edge">
<title>Node25&#45;&gt;Node12</title>
<g id="a_edge34_Node000025_Node000012"><a xlink:title=" ">
<path fill="none" stroke="#63b8ff" d="M708.52,-340.85C727,-333.94 750.09,-322.48 764.5,-305 783.24,-282.27 783.5,-270.96 783.5,-241.5 783.5,-241.5 783.5,-241.5 783.5,-124 783.5,-89.94 773.43,-51.27 766.62,-28.99"/>
<polygon fill="#63b8ff" stroke="#63b8ff" points="769.87,-27.68 763.51,-19.21 763.2,-29.8 769.87,-27.68"/>
</a>
</g>
</g>
<!-- Node25&#45;&gt;Node13 -->
<g id="edge35_Node000025_Node000013" class="edge">
<title>Node25&#45;&gt;Node13</title>
<g id="a_edge35_Node000025_Node000013"><a xlink:title=" ">
<path fill="none" stroke="#63b8ff" d="M679.5,-340.82C679.5,-322.48 679.5,-278.44 679.5,-241.5 679.5,-241.5 679.5,-241.5 679.5,-124 679.5,-90.58 677.31,-51.67 675.83,-29.18"/>
<polygon fill="#63b8ff" stroke="#63b8ff" points="679.31,-28.77 675.13,-19.04 672.32,-29.25 679.31,-28.77"/>
</a>
</g>
</g>
<!-- Node26 -->
<g id="Node000026" class="node">
<title>Node26</title>
<g id="a_Node000026"><a xlink:title=" ">
<polygon fill="#e0e0e0" stroke="#999999" points="755.5,-305 707.5,-305 707.5,-286 755.5,-286 755.5,-305"/>
<text text-anchor="middle" x="731.5" y="-293" font-family="Helvetica,sans-Serif" font-size="10.00">CL/cl.h</text>
</a>
</g>
</g>
<!-- Node25&#45;&gt;Node26 -->
<g id="edge33_Node000025_Node000026" class="edge">
<title>Node25&#45;&gt;Node26</title>
<g id="a_edge33_Node000025_Node000026"><a xlink:title=" ">
<path fill="none" stroke="#63b8ff" d="M688.09,-340.75C695.66,-333.03 706.88,-321.6 716.01,-312.28"/>
<polygon fill="#63b8ff" stroke="#63b8ff" points="718.57,-314.68 723.07,-305.09 713.57,-309.78 718.57,-314.68"/>
</a>
</g>
</g>
</g>
</svg>
