<?xml version="1.0" encoding="UTF-8" standalone="no"?>
<!DOCTYPE svg PUBLIC "-//W3C//DTD SVG 1.1//EN"
 "http://www.w3.org/Graphics/SVG/1.1/DTD/svg11.dtd">
<!-- Generated by graphviz version 2.42.4 (0)
 -->
<!-- Title: include/libvkst.hpp Pages: 1 -->
<!--zoomable 423 -->

<svg id="main" version="1.1" xmlns="http://www.w3.org/2000/svg" xmlns:xlink="http://www.w3.org/1999/xlink" xml:space="preserve" onload="init(evt)">
<style type="text/css"><![CDATA[
.node, .edge {opacity: 0.7;}
.node.selected, .edge.selected {opacity: 1;}
.edge:hover path { stroke: red; }
.edge:hover polygon { stroke: red; fill: red; }
]]></style>

<defs>
  <circle id="rim" cx="0" cy="0" r="7"/>
  <circle id="rim2" cx="0" cy="0" r="3.5"/>
  <g id="zoomPlus">
    <use xlink:href="#rim" fill="#404040"><set attributeName="fill" to="#808080" begin="zoomplus.mouseover" end="zoomplus.mouseout"/></use>
    <path d="M-4,0h8M0,-4v8" fill="none" stroke="white" stroke-width="1.5" pointer-events="none"/>
  </g>
  <g id="zoomMin">
    <use xlink:href="#rim" fill="#404040"><set attributeName="fill" to="#808080" begin="zoomminus.mouseover" end="zoomminus.mouseout"/></use>
    <path d="M-4,0h8" fill="none" stroke="white" stroke-width="1.5" pointer-events="none"/>
  </g>
  <g id="arrowUp" transform="translate(30 24)">
    <use xlink:href="#rim"/>
    <path pointer-events="none" fill="none" stroke="white" stroke-width="1.5" d="M0,-3.0v7 M-2.5,-0.5L0,-3.0L2.5,-0.5"/>
  </g>
  <g id="arrowRight" transform="rotate(90) translate(36 -43)">
    <use xlink:href="#rim"/>
    <path pointer-events="none" fill="none" stroke="white" stroke-width="1.5" d="M0,-3.0v7 M-2.5,-0.5L0,-3.0L2.5,-0.5"/>
  </g>
  <g id="arrowDown" transform="rotate(180) translate(-30 -48)">
    <use xlink:href="#rim"/>
    <path pointer-events="none" fill="none" stroke="white" stroke-width="1.5" d="M0,-3.0v7 M-2.5,-0.5L0,-3.0L2.5,-0.5"/>
  </g>
  <g id="arrowLeft" transform="rotate(270) translate(-36 17)">
    <use xlink:href="#rim"/>
    <path pointer-events="none" fill="none" stroke="white" stroke-width="1.5" d="M0,-3.0v7 M-2.5,-0.5L0,-3.0L2.5,-0.5"/>
  </g>
  <g id="resetDef">
    <use xlink:href="#rim2" fill="#404040"><set attributeName="fill" to="#808080" begin="reset.mouseover" end="reset.mouseout"/></use>
  </g>
</defs>
<script type="application/ecmascript">
var viewWidth = 889;
var viewHeight = 423;
var sectionId = 'dynsection-0';
</script>
<script type="application/ecmascript" xlink:href="../../svg.min.js"/>
<svg id="graph" class="graph">
<g id="viewport">
<title>include/libvkst.hpp</title>
<!-- Node1 -->
<g id="Node000001" class="node">
<title>Node1</title>
<g id="a_Node000001"><a xlink:title=" ">
<polygon fill="#999999" stroke="#666666" points="569,-415 471,-415 471,-396 569,-396 569,-415"/>
<text text-anchor="middle" x="520" y="-403" font-family="Helvetica,sans-Serif" font-size="10.00">include/libvkst.hpp</text>
</a>
</g>
</g>
<!-- Node2 -->
<g id="Node000002" class="node">
<title>Node2</title>
<g id="a_Node000002"><a xlink:href="../../da/dc8/vkstBuffer_8hpp.html" target="_top" xlink:title=" ">
<polygon fill="white" stroke="#666666" points="515,-360 435,-360 435,-341 515,-341 515,-360"/>
<text text-anchor="middle" x="475" y="-348" font-family="Helvetica,sans-Serif" font-size="10.00">vkstBuffer.hpp</text>
</a>
</g>
</g>
<!-- Node1&#45;&gt;Node2 -->
<g id="edge1_Node000001_Node000002" class="edge">
<title>Node1&#45;&gt;Node2</title>
<g id="a_edge1_Node000001_Node000002"><a xlink:title=" ">
<path fill="none" stroke="#63b8ff" d="M512.57,-395.75C506.15,-388.18 496.69,-377.05 488.88,-367.84"/>
<polygon fill="#63b8ff" stroke="#63b8ff" points="491.43,-365.45 482.29,-360.09 486.1,-369.98 491.43,-365.45"/>
</a>
</g>
</g>
<!-- Node24 -->
<g id="Node000024" class="node">
<title>Node24</title>
<g id="a_Node000024"><a xlink:href="../../de/d1d/vkstOpenCLBuffer_8hpp.html" target="_top" xlink:title=" ">
<polygon fill="white" stroke="#666666" points="707,-129 591,-129 591,-110 707,-110 707,-129"/>
<text text-anchor="middle" x="649" y="-117" font-family="Helvetica,sans-Serif" font-size="10.00">vkstOpenCLBuffer.hpp</text>
</a>
</g>
</g>
<!-- Node1&#45;&gt;Node24 -->
<g id="edge32_Node000001_Node000024" class="edge">
<title>Node1&#45;&gt;Node24</title>
<g id="a_edge32_Node000001_Node000024"><a xlink:title=" ">
<path fill="none" stroke="#63b8ff" d="M536.45,-395.97C564.13,-380.3 617,-344.13 617,-296.5 617,-296.5 617,-296.5 617,-239.5 617,-202.75 631.41,-161.73 640.89,-138.73"/>
<polygon fill="#63b8ff" stroke="#63b8ff" points="644.23,-139.81 644.95,-129.24 637.8,-137.06 644.23,-139.81"/>
</a>
</g>
</g>
<!-- Node3 -->
<g id="Node000003" class="node">
<title>Node3</title>
<g id="a_Node000003"><a xlink:title=" ">
<polygon fill="#e0e0e0" stroke="#999999" points="327,-74 281,-74 281,-55 327,-55 327,-74"/>
<text text-anchor="middle" x="304" y="-62" font-family="Helvetica,sans-Serif" font-size="10.00">stdio.h</text>
</a>
</g>
</g>
<!-- Node2&#45;&gt;Node3 -->
<g id="edge2_Node000002_Node000003" class="edge">
<title>Node2&#45;&gt;Node3</title>
<g id="a_edge2_Node000002_Node000003"><a xlink:title=" ">
<path fill="none" stroke="#63b8ff" d="M475.75,-340.96C477.79,-312.37 480.5,-218.81 435,-165 407.18,-132.1 378.25,-156.39 345,-129 330,-116.65 318.64,-97.34 311.72,-83.26"/>
<polygon fill="#63b8ff" stroke="#63b8ff" points="314.86,-81.71 307.48,-74.1 308.51,-84.65 314.86,-81.71"/>
</a>
</g>
</g>
<!-- Node4 -->
<g id="Node000004" class="node">
<title>Node4</title>
<g id="a_Node000004"><a xlink:title=" ">
<polygon fill="#e0e0e0" stroke="#999999" points="301,-305 249,-305 249,-286 301,-286 301,-305"/>
<text text-anchor="middle" x="275" y="-293" font-family="Helvetica,sans-Serif" font-size="10.00">assert.h</text>
</a>
</g>
</g>
<!-- Node2&#45;&gt;Node4 -->
<g id="edge3_Node000002_Node000004" class="edge">
<title>Node2&#45;&gt;Node4</title>
<g id="a_edge3_Node000002_Node000004"><a xlink:title=" ">
<path fill="none" stroke="#63b8ff" d="M442.87,-340.98C406.83,-331.44 348.54,-315.99 311,-306.04"/>
<polygon fill="#63b8ff" stroke="#63b8ff" points="311.56,-302.57 301,-303.39 309.77,-309.34 311.56,-302.57"/>
</a>
</g>
</g>
<!-- Node5 -->
<g id="Node000005" class="node">
<title>Node5</title>
<g id="a_Node000005"><a xlink:title=" ">
<polygon fill="#e0e0e0" stroke="#999999" points="520,-19 474,-19 474,0 520,0 520,-19"/>
<text text-anchor="middle" x="497" y="-7" font-family="Helvetica,sans-Serif" font-size="10.00">atomic</text>
</a>
</g>
</g>
<!-- Node2&#45;&gt;Node5 -->
<g id="edge4_Node000002_Node000005" class="edge">
<title>Node2&#45;&gt;Node5</title>
<g id="a_edge4_Node000002_Node000005"><a xlink:title=" ">
<path fill="none" stroke="#63b8ff" d="M477.7,-340.92C483.16,-322.77 495,-279.07 495,-241.5 495,-241.5 495,-241.5 495,-118.5 495,-87.18 495.85,-50.77 496.44,-29.23"/>
<polygon fill="#63b8ff" stroke="#63b8ff" points="499.94,-29.27 496.73,-19.18 492.95,-29.07 499.94,-29.27"/>
</a>
</g>
</g>
<!-- Node6 -->
<g id="Node000006" class="node">
<title>Node6</title>
<g id="a_Node000006"><a xlink:href="../../dd/d2c/vkstAllocator_8hpp.html" target="_top" xlink:title=" ">
<polygon fill="white" stroke="#666666" points="411,-305 319,-305 319,-286 411,-286 411,-305"/>
<text text-anchor="middle" x="365" y="-293" font-family="Helvetica,sans-Serif" font-size="10.00">vkstAllocator.hpp</text>
</a>
</g>
</g>
<!-- Node2&#45;&gt;Node6 -->
<g id="edge5_Node000002_Node000006" class="edge">
<title>Node2&#45;&gt;Node6</title>
<g id="a_edge5_Node000002_Node000006"><a xlink:title=" ">
<path fill="none" stroke="#63b8ff" d="M457.33,-340.98C439.71,-332.5 412.42,-319.35 392.07,-309.54"/>
<polygon fill="#63b8ff" stroke="#63b8ff" points="393.52,-306.36 382.99,-305.17 390.48,-312.66 393.52,-306.36"/>
</a>
</g>
</g>
<!-- Node11 -->
<g id="Node000011" class="node">
<title>Node11</title>
<g id="a_Node000011"><a xlink:href="../../d4/d45/vkstLogging_8hpp.html" target="_top" xlink:title=" ">
<polygon fill="white" stroke="#666666" points="620.5,-74 523.5,-74 523.5,-55 620.5,-55 620.5,-74"/>
<text text-anchor="middle" x="572" y="-62" font-family="Helvetica,sans-Serif" font-size="10.00">../vkstLogging.hpp</text>
</a>
</g>
</g>
<!-- Node2&#45;&gt;Node11 -->
<g id="edge31_Node000002_Node000011" class="edge">
<title>Node2&#45;&gt;Node11</title>
<g id="a_edge31_Node000002_Node000011"><a xlink:title=" ">
<path fill="none" stroke="#63b8ff" d="M486.41,-340.77C506.94,-323.98 548,-284.95 548,-241.5 548,-241.5 548,-241.5 548,-179 548,-144.89 558.51,-106.23 565.62,-83.97"/>
<polygon fill="#63b8ff" stroke="#63b8ff" points="569.03,-84.79 568.86,-74.2 562.39,-82.58 569.03,-84.79"/>
</a>
</g>
</g>
<!-- Node7 -->
<g id="Node000007" class="node">
<title>Node7</title>
<g id="a_Node000007"><a xlink:href="../../d5/d82/vkstMallocAllocator_8hpp.html" target="_top" xlink:title=" ">
<polygon fill="white" stroke="#666666" points="278.5,-250 117.5,-250 117.5,-231 278.5,-231 278.5,-250"/>
<text text-anchor="middle" x="198" y="-238" font-family="Helvetica,sans-Serif" font-size="10.00">Allocator/vkstMallocAllocator.hpp</text>
</a>
</g>
</g>
<!-- Node6&#45;&gt;Node7 -->
<g id="edge6_Node000006_Node000007" class="edge">
<title>Node6&#45;&gt;Node7</title>
<g id="a_edge6_Node000006_Node000007"><a xlink:title=" ">
<path fill="none" stroke="#63b8ff" d="M338.17,-285.98C310.13,-277.09 265.95,-263.07 234.7,-253.15"/>
<polygon fill="#63b8ff" stroke="#63b8ff" points="235.63,-249.77 225.04,-250.08 233.51,-256.44 235.63,-249.77"/>
</a>
</g>
</g>
<!-- Node23 -->
<g id="Node000023" class="node">
<title>Node23</title>
<g id="a_Node000023"><a xlink:href="../../d5/d58/vkstAllocatorMaximalFilter_8hpp.html" target="_top" xlink:title=" ">
<polygon fill="white" stroke="#666666" points="426,-195 274,-195 274,-165 426,-165 426,-195"/>
<text text-anchor="start" x="282" y="-183" font-family="Helvetica,sans-Serif" font-size="10.00">Allocator/vkstAllocatorMaximal</text>
<text text-anchor="middle" x="350" y="-172" font-family="Helvetica,sans-Serif" font-size="10.00">Filter.hpp</text>
</a>
</g>
</g>
<!-- Node6&#45;&gt;Node23 -->
<g id="edge29_Node000006_Node000023" class="edge">
<title>Node6&#45;&gt;Node23</title>
<g id="a_edge29_Node000006_Node000023"><a xlink:title=" ">
<path fill="none" stroke="#63b8ff" d="M363.87,-285.97C361.63,-269.01 356.54,-230.5 353.19,-205.14"/>
<polygon fill="#63b8ff" stroke="#63b8ff" points="356.65,-204.64 351.87,-195.18 349.71,-205.55 356.65,-204.64"/>
</a>
</g>
</g>
<!-- Node8 -->
<g id="Node000008" class="node">
<title>Node8</title>
<g id="a_Node000008"><a xlink:href="../../d0/dd1/vkstAllocatorBase_8hpp.html" target="_top" xlink:title=" ">
<polygon fill="white" stroke="#666666" points="255.5,-189.5 140.5,-189.5 140.5,-170.5 255.5,-170.5 255.5,-189.5"/>
<text text-anchor="middle" x="198" y="-177.5" font-family="Helvetica,sans-Serif" font-size="10.00">vkstAllocatorBase.hpp</text>
</a>
</g>
</g>
<!-- Node7&#45;&gt;Node8 -->
<g id="edge7_Node000007_Node000008" class="edge">
<title>Node7&#45;&gt;Node8</title>
<g id="a_edge7_Node000007_Node000008"><a xlink:title=" ">
<path fill="none" stroke="#63b8ff" d="M198,-230.87C198,-222.75 198,-210.31 198,-199.89"/>
<polygon fill="#63b8ff" stroke="#63b8ff" points="201.5,-199.67 198,-189.67 194.5,-199.67 201.5,-199.67"/>
</a>
</g>
</g>
<!-- Node14 -->
<g id="Node000014" class="node">
<title>Node14</title>
<g id="a_Node000014"><a xlink:href="../../d0/dcf/vkstAllocatorTraits_8hpp.html" target="_top" xlink:title=" ">
<polygon fill="white" stroke="#666666" points="170.5,-129 53.5,-129 53.5,-110 170.5,-110 170.5,-129"/>
<text text-anchor="middle" x="112" y="-117" font-family="Helvetica,sans-Serif" font-size="10.00">vkstAllocatorTraits.hpp</text>
</a>
</g>
</g>
<!-- Node7&#45;&gt;Node14 -->
<g id="edge28_Node000007_Node000014" class="edge">
<title>Node7&#45;&gt;Node14</title>
<g id="a_edge28_Node000007_Node000014"><a xlink:title=" ">
<path fill="none" stroke="#63b8ff" d="M177.74,-230.97C162.66,-223.6 142.72,-211.51 131,-195 119.31,-178.53 114.8,-155.51 113.07,-139.43"/>
<polygon fill="#63b8ff" stroke="#63b8ff" points="116.53,-138.83 112.24,-129.14 109.56,-139.4 116.53,-138.83"/>
</a>
</g>
</g>
<!-- Node8&#45;&gt;Node3 -->
<g id="edge8_Node000008_Node000003" class="edge">
<title>Node8&#45;&gt;Node3</title>
<g id="a_edge8_Node000008_Node000003"><a xlink:title=" ">
<path fill="none" stroke="#63b8ff" d="M205.97,-170.47C223.62,-151.57 266.24,-105.93 289.04,-81.52"/>
<polygon fill="#63b8ff" stroke="#63b8ff" points="291.67,-83.83 295.94,-74.13 286.56,-79.05 291.67,-83.83"/>
</a>
</g>
</g>
<!-- Node9 -->
<g id="Node000009" class="node">
<title>Node9</title>
<g id="a_Node000009"><a xlink:href="../../d1/d72/vkstAllocatorFilter_8hpp.html" target="_top" xlink:title=" ">
<polygon fill="white" stroke="#666666" points="466.5,-129 353.5,-129 353.5,-110 466.5,-110 466.5,-129"/>
<text text-anchor="middle" x="410" y="-117" font-family="Helvetica,sans-Serif" font-size="10.00">vkstAllocatorFilter.hpp</text>
</a>
</g>
</g>
<!-- Node8&#45;&gt;Node9 -->
<g id="edge9_Node000008_Node000009" class="edge">
<title>Node8&#45;&gt;Node9</title>
<g id="a_edge9_Node000008_Node000009"><a xlink:title=" ">
<path fill="none" stroke="#63b8ff" d="M228.83,-170.49C265.96,-160.25 328.45,-143 369.46,-131.69"/>
<polygon fill="#63b8ff" stroke="#63b8ff" points="370.43,-135.05 379.14,-129.02 368.57,-128.3 370.43,-135.05"/>
</a>
</g>
</g>
<!-- Node8&#45;&gt;Node14 -->
<g id="edge16_Node000008_Node000014" class="edge">
<title>Node8&#45;&gt;Node14</title>
<g id="a_edge16_Node000008_Node000014"><a xlink:title=" ">
<path fill="none" stroke="#63b8ff" d="M185.31,-170.37C171.59,-161.04 149.5,-146.01 133.15,-134.88"/>
<polygon fill="#63b8ff" stroke="#63b8ff" points="134.98,-131.9 124.74,-129.17 131.04,-137.69 134.98,-131.9"/>
</a>
</g>
</g>
<!-- Node18 -->
<g id="Node000018" class="node">
<title>Node18</title>
<g id="a_Node000018"><a xlink:href="../../d0/d1f/vkstAlignment_8hpp.html" target="_top" xlink:title=" ">
<polygon fill="white" stroke="#666666" points="262.5,-74 155.5,-74 155.5,-55 262.5,-55 262.5,-74"/>
<text text-anchor="middle" x="209" y="-62" font-family="Helvetica,sans-Serif" font-size="10.00">../vkstAlignment.hpp</text>
</a>
</g>
</g>
<!-- Node8&#45;&gt;Node18 -->
<g id="edge27_Node000008_Node000018" class="edge">
<title>Node8&#45;&gt;Node18</title>
<g id="a_edge27_Node000008_Node000018"><a xlink:title=" ">
<path fill="none" stroke="#63b8ff" d="M198.83,-170.47C200.59,-152.23 204.78,-109.07 207.19,-84.14"/>
<polygon fill="#63b8ff" stroke="#63b8ff" points="210.68,-84.42 208.16,-74.13 203.72,-83.75 210.68,-84.42"/>
</a>
</g>
</g>
<!-- Node9&#45;&gt;Node3 -->
<g id="edge10_Node000009_Node000003" class="edge">
<title>Node9&#45;&gt;Node3</title>
<g id="a_edge10_Node000009_Node000003"><a xlink:title=" ">
<path fill="none" stroke="#63b8ff" d="M392.97,-109.98C376.07,-101.54 349.94,-88.47 330.36,-78.68"/>
<polygon fill="#63b8ff" stroke="#63b8ff" points="331.85,-75.51 321.34,-74.17 328.72,-81.77 331.85,-75.51"/>
</a>
</g>
</g>
<!-- Node10 -->
<g id="Node000010" class="node">
<title>Node10</title>
<g id="a_Node000010"><a xlink:title=" ">
<polygon fill="#e0e0e0" stroke="#999999" points="436,-74 384,-74 384,-55 436,-55 436,-74"/>
<text text-anchor="middle" x="410" y="-62" font-family="Helvetica,sans-Serif" font-size="10.00">sstream</text>
</a>
</g>
</g>
<!-- Node9&#45;&gt;Node10 -->
<g id="edge11_Node000009_Node000010" class="edge">
<title>Node9&#45;&gt;Node10</title>
<g id="a_edge11_Node000009_Node000010"><a xlink:title=" ">
<path fill="none" stroke="#63b8ff" d="M410,-109.75C410,-102.8 410,-92.85 410,-84.13"/>
<polygon fill="#63b8ff" stroke="#63b8ff" points="413.5,-84.09 410,-74.09 406.5,-84.09 413.5,-84.09"/>
</a>
</g>
</g>
<!-- Node9&#45;&gt;Node11 -->
<g id="edge12_Node000009_Node000011" class="edge">
<title>Node9&#45;&gt;Node11</title>
<g id="a_edge12_Node000009_Node000011"><a xlink:title=" ">
<path fill="none" stroke="#63b8ff" d="M436.03,-109.98C463.11,-101.13 505.71,-87.19 536.01,-77.28"/>
<polygon fill="#63b8ff" stroke="#63b8ff" points="537.35,-80.52 545.77,-74.08 535.18,-73.87 537.35,-80.52"/>
</a>
</g>
</g>
<!-- Node11&#45;&gt;Node5 -->
<g id="edge14_Node000011_Node000005" class="edge">
<title>Node11&#45;&gt;Node5</title>
<g id="a_edge14_Node000011_Node000005"><a xlink:title=" ">
<path fill="none" stroke="#63b8ff" d="M559.95,-54.98C548.54,-46.92 531.17,-34.65 517.57,-25.03"/>
<polygon fill="#63b8ff" stroke="#63b8ff" points="519.46,-22.08 509.27,-19.17 515.42,-27.8 519.46,-22.08"/>
</a>
</g>
</g>
<!-- Node12 -->
<g id="Node000012" class="node">
<title>Node12</title>
<g id="a_Node000012"><a xlink:title=" ">
<polygon fill="#e0e0e0" stroke="#999999" points="596,-19 542,-19 542,0 596,0 596,-19"/>
<text text-anchor="middle" x="569" y="-7" font-family="Helvetica,sans-Serif" font-size="10.00">iostream</text>
</a>
</g>
</g>
<!-- Node11&#45;&gt;Node12 -->
<g id="edge13_Node000011_Node000012" class="edge">
<title>Node11&#45;&gt;Node12</title>
<g id="a_edge13_Node000011_Node000012"><a xlink:title=" ">
<path fill="none" stroke="#63b8ff" d="M571.5,-54.75C571.11,-47.8 570.55,-37.85 570.05,-29.13"/>
<polygon fill="#63b8ff" stroke="#63b8ff" points="573.55,-28.88 569.49,-19.09 566.56,-29.27 573.55,-28.88"/>
</a>
</g>
</g>
<!-- Node13 -->
<g id="Node000013" class="node">
<title>Node13</title>
<g id="a_Node000013"><a xlink:title=" ">
<polygon fill="#e0e0e0" stroke="#999999" points="658,-19 614,-19 614,0 658,0 658,-19"/>
<text text-anchor="middle" x="636" y="-7" font-family="Helvetica,sans-Serif" font-size="10.00">mutex</text>
</a>
</g>
</g>
<!-- Node11&#45;&gt;Node13 -->
<g id="edge15_Node000011_Node000013" class="edge">
<title>Node11&#45;&gt;Node13</title>
<g id="a_edge15_Node000011_Node000013"><a xlink:title=" ">
<path fill="none" stroke="#63b8ff" d="M582.28,-54.98C591.84,-47.07 606.28,-35.11 617.78,-25.58"/>
<polygon fill="#63b8ff" stroke="#63b8ff" points="620.06,-28.24 625.53,-19.17 615.6,-22.85 620.06,-28.24"/>
</a>
</g>
</g>
<!-- Node14&#45;&gt;Node3 -->
<g id="edge17_Node000014_Node000003" class="edge">
<title>Node14&#45;&gt;Node3</title>
<g id="a_edge17_Node000014_Node000003"><a xlink:title=" ">
<path fill="none" stroke="#63b8ff" d="M142.85,-109.98C177.87,-100.32 234.8,-84.6 270.78,-74.67"/>
<polygon fill="#63b8ff" stroke="#63b8ff" points="272.07,-77.95 280.78,-71.91 270.21,-71.2 272.07,-77.95"/>
</a>
</g>
</g>
<!-- Node15 -->
<g id="Node000015" class="node">
<title>Node15</title>
<g id="a_Node000015"><a xlink:title=" ">
<polygon fill="#e0e0e0" stroke="#999999" points="62,-19 0,-19 0,0 62,0 62,-19"/>
<text text-anchor="middle" x="31" y="-7" font-family="Helvetica,sans-Serif" font-size="10.00">type_traits</text>
</a>
</g>
</g>
<!-- Node14&#45;&gt;Node15 -->
<g id="edge18_Node000014_Node000015" class="edge">
<title>Node14&#45;&gt;Node15</title>
<g id="a_edge18_Node000014_Node000015"><a xlink:title=" ">
<path fill="none" stroke="#63b8ff" d="M66.54,-109.96C46.23,-103.64 24.16,-92.72 12,-74 2.83,-59.89 10.34,-41.17 18.46,-27.72"/>
<polygon fill="#63b8ff" stroke="#63b8ff" points="21.39,-29.65 23.99,-19.37 15.55,-25.78 21.39,-29.65"/>
</a>
</g>
</g>
<!-- Node16 -->
<g id="Node000016" class="node">
<title>Node16</title>
<g id="a_Node000016"><a xlink:title=" ">
<polygon fill="#e0e0e0" stroke="#999999" points="66.5,-74 21.5,-74 21.5,-55 66.5,-55 66.5,-74"/>
<text text-anchor="middle" x="44" y="-62" font-family="Helvetica,sans-Serif" font-size="10.00">cstdlib</text>
</a>
</g>
</g>
<!-- Node14&#45;&gt;Node16 -->
<g id="edge19_Node000014_Node000016" class="edge">
<title>Node14&#45;&gt;Node16</title>
<g id="a_edge19_Node000014_Node000016"><a xlink:title=" ">
<path fill="none" stroke="#63b8ff" d="M101.07,-109.98C90.92,-102.07 75.58,-90.11 63.35,-80.58"/>
<polygon fill="#63b8ff" stroke="#63b8ff" points="65.16,-77.56 55.12,-74.17 60.86,-83.08 65.16,-77.56"/>
</a>
</g>
</g>
<!-- Node17 -->
<g id="Node000017" class="node">
<title>Node17</title>
<g id="a_Node000017"><a xlink:title=" ">
<polygon fill="#e0e0e0" stroke="#999999" points="137,-74 85,-74 85,-55 137,-55 137,-74"/>
<text text-anchor="middle" x="111" y="-62" font-family="Helvetica,sans-Serif" font-size="10.00">memory</text>
</a>
</g>
</g>
<!-- Node14&#45;&gt;Node17 -->
<g id="edge20_Node000014_Node000017" class="edge">
<title>Node14&#45;&gt;Node17</title>
<g id="a_edge20_Node000014_Node000017"><a xlink:title=" ">
<path fill="none" stroke="#63b8ff" d="M111.83,-109.75C111.7,-102.8 111.52,-92.85 111.35,-84.13"/>
<polygon fill="#63b8ff" stroke="#63b8ff" points="114.85,-84.02 111.16,-74.09 107.85,-84.15 114.85,-84.02"/>
</a>
</g>
</g>
<!-- Node14&#45;&gt;Node18 -->
<g id="edge21_Node000014_Node000018" class="edge">
<title>Node14&#45;&gt;Node18</title>
<g id="a_edge21_Node000014_Node000018"><a xlink:title=" ">
<path fill="none" stroke="#63b8ff" d="M127.58,-109.98C142.77,-101.69 166.1,-88.94 183.9,-79.22"/>
<polygon fill="#63b8ff" stroke="#63b8ff" points="186.03,-82.04 193.13,-74.17 182.68,-75.89 186.03,-82.04"/>
</a>
</g>
</g>
<!-- Node18&#45;&gt;Node15 -->
<g id="edge26_Node000018_Node000015" class="edge">
<title>Node18&#45;&gt;Node15</title>
<g id="a_edge26_Node000018_Node000015"><a xlink:title=" ">
<path fill="none" stroke="#63b8ff" d="M180.4,-54.98C150.39,-46.05 103.02,-31.94 69.68,-22.02"/>
<polygon fill="#63b8ff" stroke="#63b8ff" points="70.41,-18.58 59.82,-19.08 68.41,-25.29 70.41,-18.58"/>
</a>
</g>
</g>
<!-- Node19 -->
<g id="Node000019" class="node">
<title>Node19</title>
<g id="a_Node000019"><a xlink:title=" ">
<polygon fill="#e0e0e0" stroke="#999999" points="345,-19 293,-19 293,0 345,0 345,-19"/>
<text text-anchor="middle" x="319" y="-7" font-family="Helvetica,sans-Serif" font-size="10.00">stddef.h</text>
</a>
</g>
</g>
<!-- Node18&#45;&gt;Node19 -->
<g id="edge22_Node000018_Node000019" class="edge">
<title>Node18&#45;&gt;Node19</title>
<g id="a_edge22_Node000018_Node000019"><a xlink:title=" ">
<path fill="none" stroke="#63b8ff" d="M226.67,-54.98C244.29,-46.5 271.58,-33.35 291.93,-23.54"/>
<polygon fill="#63b8ff" stroke="#63b8ff" points="293.52,-26.66 301.01,-19.17 290.48,-20.36 293.52,-26.66"/>
</a>
</g>
</g>
<!-- Node20 -->
<g id="Node000020" class="node">
<title>Node20</title>
<g id="a_Node000020"><a xlink:title=" ">
<polygon fill="#e0e0e0" stroke="#999999" points="130.5,-19 81.5,-19 81.5,0 130.5,0 130.5,-19"/>
<text text-anchor="middle" x="106" y="-7" font-family="Helvetica,sans-Serif" font-size="10.00">stdint.h</text>
</a>
</g>
</g>
<!-- Node18&#45;&gt;Node20 -->
<g id="edge23_Node000018_Node000020" class="edge">
<title>Node18&#45;&gt;Node20</title>
<g id="a_edge23_Node000018_Node000020"><a xlink:title=" ">
<path fill="none" stroke="#63b8ff" d="M192.45,-54.98C176.11,-46.57 150.87,-33.59 131.87,-23.81"/>
<polygon fill="#63b8ff" stroke="#63b8ff" points="133.34,-20.63 122.85,-19.17 130.14,-26.86 133.34,-20.63"/>
</a>
</g>
</g>
<!-- Node21 -->
<g id="Node000021" class="node">
<title>Node21</title>
<g id="a_Node000021"><a xlink:title=" ">
<polygon fill="#e0e0e0" stroke="#999999" points="197,-19 149,-19 149,0 197,0 197,-19"/>
<text text-anchor="middle" x="173" y="-7" font-family="Helvetica,sans-Serif" font-size="10.00">limits.h</text>
</a>
</g>
</g>
<!-- Node18&#45;&gt;Node21 -->
<g id="edge24_Node000018_Node000021" class="edge">
<title>Node18&#45;&gt;Node21</title>
<g id="a_edge24_Node000018_Node000021"><a xlink:title=" ">
<path fill="none" stroke="#63b8ff" d="M203.06,-54.75C198.02,-47.34 190.66,-36.5 184.49,-27.41"/>
<polygon fill="#63b8ff" stroke="#63b8ff" points="187.35,-25.39 178.83,-19.09 181.56,-29.33 187.35,-25.39"/>
</a>
</g>
</g>
<!-- Node22 -->
<g id="Node000022" class="node">
<title>Node22</title>
<g id="a_Node000022"><a xlink:title=" ">
<polygon fill="#e0e0e0" stroke="#999999" points="274.5,-19 215.5,-19 215.5,0 274.5,0 274.5,-19"/>
<text text-anchor="middle" x="245" y="-7" font-family="Helvetica,sans-Serif" font-size="10.00">stdalign.h</text>
</a>
</g>
</g>
<!-- Node18&#45;&gt;Node22 -->
<g id="edge25_Node000018_Node000022" class="edge">
<title>Node18&#45;&gt;Node22</title>
<g id="a_edge25_Node000018_Node000022"><a xlink:title=" ">
<path fill="none" stroke="#63b8ff" d="M214.94,-54.75C219.98,-47.34 227.34,-36.5 233.51,-27.41"/>
<polygon fill="#63b8ff" stroke="#63b8ff" points="236.44,-29.33 239.17,-19.09 230.65,-25.39 236.44,-29.33"/>
</a>
</g>
</g>
<!-- Node23&#45;&gt;Node3 -->
<g id="edge30_Node000023_Node000003" class="edge">
<title>Node23&#45;&gt;Node3</title>
<g id="a_edge30_Node000023_Node000003"><a xlink:title=" ">
<path fill="none" stroke="#63b8ff" d="M335.27,-164.65C326.67,-155.33 316.47,-142.46 311,-129 305.19,-114.7 303.62,-97.17 303.41,-84.16"/>
<polygon fill="#63b8ff" stroke="#63b8ff" points="306.91,-84.11 303.5,-74.08 299.91,-84.05 306.91,-84.11"/>
</a>
</g>
</g>
<!-- Node24&#45;&gt;Node11 -->
<g id="edge39_Node000024_Node000011" class="edge">
<title>Node24&#45;&gt;Node11</title>
<g id="a_edge39_Node000024_Node000011"><a xlink:title=" ">
<path fill="none" stroke="#63b8ff" d="M636.63,-109.98C624.91,-101.92 607.08,-89.65 593.11,-80.03"/>
<polygon fill="#63b8ff" stroke="#63b8ff" points="594.82,-76.96 584.6,-74.17 590.85,-82.72 594.82,-76.96"/>
</a>
</g>
</g>
<!-- Node24&#45;&gt;Node13 -->
<g id="edge34_Node000024_Node000013" class="edge">
<title>Node24&#45;&gt;Node13</title>
<g id="a_edge34_Node000024_Node000013"><a xlink:title=" ">
<path fill="none" stroke="#63b8ff" d="M647.94,-109.66C645.83,-92.17 641.09,-52.8 638.26,-29.27"/>
<polygon fill="#63b8ff" stroke="#63b8ff" points="641.71,-28.67 637.04,-19.16 634.76,-29.51 641.71,-28.67"/>
</a>
</g>
</g>
<!-- Node25 -->
<g id="Node000025" class="node">
<title>Node25</title>
<g id="a_Node000025"><a xlink:title=" ">
<polygon fill="#e0e0e0" stroke="#999999" points="881,-74 833,-74 833,-55 881,-55 881,-74"/>
<text text-anchor="middle" x="857" y="-62" font-family="Helvetica,sans-Serif" font-size="10.00">CL/cl.h</text>
</a>
</g>
</g>
<!-- Node24&#45;&gt;Node25 -->
<g id="edge33_Node000024_Node000025" class="edge">
<title>Node24&#45;&gt;Node25</title>
<g id="a_edge33_Node000024_Node000025"><a xlink:title=" ">
<path fill="none" stroke="#63b8ff" d="M682.56,-110C715.79,-101.57 768.41,-88.21 823,-74.25"/>
<polygon fill="#63b8ff" stroke="#63b8ff" points="824.03,-77.6 832.85,-71.73 822.3,-70.82 824.03,-77.6"/>
</a>
</g>
</g>
<!-- Node26 -->
<g id="Node000026" class="node">
<title>Node26</title>
<g id="a_Node000026"><a xlink:href="../../da/d5a/vkstOpenCLBufferFilter_8hpp.html" target="_top" xlink:title=" ">
<polygon fill="white" stroke="#666666" points="814.5,-74 677.5,-74 677.5,-55 814.5,-55 814.5,-74"/>
<text text-anchor="middle" x="746" y="-62" font-family="Helvetica,sans-Serif" font-size="10.00">vkstOpenCLBufferFilter.hpp</text>
</a>
</g>
</g>
<!-- Node24&#45;&gt;Node26 -->
<g id="edge35_Node000024_Node000026" class="edge">
<title>Node24&#45;&gt;Node26</title>
<g id="a_edge35_Node000024_Node000026"><a xlink:title=" ">
<path fill="none" stroke="#63b8ff" d="M664.58,-109.98C679.77,-101.69 703.1,-88.94 720.9,-79.22"/>
<polygon fill="#63b8ff" stroke="#63b8ff" points="723.03,-82.04 730.13,-74.17 719.68,-75.89 723.03,-82.04"/>
</a>
</g>
</g>
<!-- Node27 -->
<g id="Node000027" class="node">
<title>Node27</title>
<g id="a_Node000027"><a xlink:title=" ">
<polygon fill="#e0e0e0" stroke="#999999" points="781.5,-19 732.5,-19 732.5,0 781.5,0 781.5,-19"/>
<text text-anchor="middle" x="757" y="-7" font-family="Helvetica,sans-Serif" font-size="10.00">cstddef</text>
</a>
</g>
</g>
<!-- Node26&#45;&gt;Node27 -->
<g id="edge36_Node000026_Node000027" class="edge">
<title>Node26&#45;&gt;Node27</title>
<g id="a_edge36_Node000026_Node000027"><a xlink:title=" ">
<path fill="none" stroke="#63b8ff" d="M747.82,-54.75C749.26,-47.8 751.32,-37.85 753.13,-29.13"/>
<polygon fill="#63b8ff" stroke="#63b8ff" points="756.61,-29.59 755.22,-19.09 749.76,-28.17 756.61,-29.59"/>
</a>
</g>
</g>
<!-- Node28 -->
<g id="Node000028" class="node">
<title>Node28</title>
<g id="a_Node000028"><a xlink:title=" ">
<polygon fill="#e0e0e0" stroke="#999999" points="846,-19 800,-19 800,0 846,0 846,-19"/>
<text text-anchor="middle" x="823" y="-7" font-family="Helvetica,sans-Serif" font-size="10.00">cstdint</text>
</a>
</g>
</g>
<!-- Node26&#45;&gt;Node28 -->
<g id="edge37_Node000026_Node000028" class="edge">
<title>Node26&#45;&gt;Node28</title>
<g id="a_edge37_Node000026_Node000028"><a xlink:title=" ">
<path fill="none" stroke="#63b8ff" d="M758.37,-54.98C770.09,-46.92 787.92,-34.65 801.89,-25.03"/>
<polygon fill="#63b8ff" stroke="#63b8ff" points="804.15,-27.72 810.4,-19.17 800.18,-21.96 804.15,-27.72"/>
</a>
</g>
</g>
<!-- Node29 -->
<g id="Node000029" class="node">
<title>Node29</title>
<g id="a_Node000029"><a xlink:title=" ">
<polygon fill="#e0e0e0" stroke="#999999" points="714,-19 676,-19 676,0 714,0 714,-19"/>
<text text-anchor="middle" x="695" y="-7" font-family="Helvetica,sans-Serif" font-size="10.00">lz4.h</text>
</a>
</g>
</g>
<!-- Node26&#45;&gt;Node29 -->
<g id="edge38_Node000026_Node000029" class="edge">
<title>Node26&#45;&gt;Node29</title>
<g id="a_edge38_Node000026_Node000029"><a xlink:title=" ">
<path fill="none" stroke="#63b8ff" d="M737.58,-54.75C730.23,-47.11 719.37,-35.82 710.46,-26.56"/>
<polygon fill="#63b8ff" stroke="#63b8ff" points="712.72,-23.87 703.26,-19.09 707.68,-28.72 712.72,-23.87"/>
</a>
</g>
</g>
</g>
</svg>

<g id="navigator" transform="translate(0 0)" fill="#404254">
  <rect fill="#f2f5e9" fill-opacity="0.5" stroke="#606060" stroke-width=".5" x="0" y="0" width="60" height="60"/>
  <use id="zoomplus" xlink:href="#zoomPlus" x="17" y="9" onmousedown="handleZoom(evt,'in')"/>
  <use id="zoomminus" xlink:href="#zoomMin" x="42" y="9" onmousedown="handleZoom(evt,'out')"/>
  <use id="reset" xlink:href="#resetDef" x="30" y="36" onmousedown="handleReset()"/>
   <use id="arrowup" xlink:href="#arrowUp" x="0" y="0" onmousedown="handlePan(0,-1)"/>
  <use id="arrowright" xlink:href="#arrowRight" x="0" y="0" onmousedown="handlePan(1,0)"/>
  <use id="arrowdown" xlink:href="#arrowDown" x="0" y="0" onmousedown="handlePan(0,1)"/>
  <use id="arrowleft" xlink:href="#arrowLeft" x="0" y="0" onmousedown="handlePan(-1,0)"/>
</g>
<svg viewBox="0 0 15 15" width="100%" height="30px" preserveAspectRatio="xMaxYMin meet">
 <g id="arrow_out" transform="scale(0.3 0.3)">
  <a xlink:href="libvkst_8hpp__incl_org.svg" target="_base">
   <rect id="button" ry="5" rx="5" y="6" x="6" height="38" width="38"
        fill="#f2f5e9" fill-opacity="0.5" stroke="#606060" stroke-width="1.0"/>
   <path id="arrow"
     d="M 11.500037,31.436501 C 11.940474,20.09759 22.043105,11.32322 32.158766,21.979434 L 37.068811,17.246167 C 37.068811,17.246167 37.088388,32 37.088388,32 L 22.160133,31.978069 C 22.160133,31.978069 26.997745,27.140456 26.997745,27.140456 C 18.528582,18.264221 13.291696,25.230495 11.500037,31.436501 z"
     style="fill:#404040;"/>
  </a>
 </g>
</svg>

<style type='text/css'>
<![CDATA[
[data-mouse-over-selected='false'] { opacity: 0.7; }
[data-mouse-over-selected='true']  { opacity: 1.0; }
]]>
</style>
<script type="application/ecmascript"><![CDATA[
document.addEventListener('DOMContentLoaded', (event) => {
  highlightEdges();
  highlightAdjacentNodes();
});
]]></script>
</svg>
