<?xml version="1.0" encoding="UTF-8" standalone="no"?>
<!DOCTYPE svg PUBLIC "-//W3C//DTD SVG 1.1//EN"
 "http://www.w3.org/Graphics/SVG/1.1/DTD/svg11.dtd">
<!-- Generated by graphviz version 2.42.4 (0)
 -->
<!-- Title: include/vkstAlignment.hpp Pages: 1 -->
<svg width="314pt" height="379pt"
 viewBox="0.00 0.00 314.00 379.00" xmlns="http://www.w3.org/2000/svg" xmlns:xlink="http://www.w3.org/1999/xlink">

<svg id="main" version="1.1" xmlns="http://www.w3.org/2000/svg" xmlns:xlink="http://www.w3.org/1999/xlink" xml:space="preserve" onload="init(evt)">
<style type="text/css"><![CDATA[
.node, .edge {opacity: 0.7;}
.node.selected, .edge.selected {opacity: 1;}
.edge:hover path { stroke: red; }
.edge:hover polygon { stroke: red; fill: red; }
]]></style>
<script type="application/ecmascript" xlink:href="../../svg.min.js"/>
<svg id="graph" class="graph">
<g id="graph0" class="graph" transform="scale(1 1) rotate(0) translate(4 375)">
<title>include/vkstAlignment.hpp</title>
<!-- Node1 -->
<g id="Node000001" class="node">
<title>Node1</title>
<g id="a_Node000001"><a xlink:title=" ">
<polygon fill="#999999" stroke="#666666" points="191,-371 60,-371 60,-352 191,-352 191,-371"/>
<text text-anchor="middle" x="125.5" y="-359" font-family="Helvetica,sans-Serif" font-size="10.00">include/vkstAlignment.hpp</text>
</a>
</g>
</g>
<!-- Node2 -->
<g id="Node000002" class="node">
<title>Node2</title>
<g id="a_Node000002"><a xlink:href="../../d0/dd1/vkstAllocatorBase_8hpp.html" target="_top" xlink:title=" ">
<polygon fill="white" stroke="#666666" points="149,-250 0,-250 0,-220 149,-220 149,-250"/>
<text text-anchor="start" x="8" y="-238" font-family="Helvetica,sans-Serif" font-size="10.00">include/Allocator/vkstAllocator</text>
<text text-anchor="middle" x="74.5" y="-227" font-family="Helvetica,sans-Serif" font-size="10.00">Base.hpp</text>
</a>
</g>
</g>
<!-- Node1&#45;&gt;Node2 -->
<g id="edge1_Node000001_Node000002" class="edge">
<title>Node1&#45;&gt;Node2</title>
<g id="a_edge1_Node000001_Node000002"><a xlink:title=" ">
<path fill="none" stroke="#63b8ff" d="M111.38,-344.15C105.09,-336.12 98.09,-326.04 93.5,-316 83.54,-294.18 78.47,-266.55 76.16,-250.13"/>
<polygon fill="#63b8ff" stroke="#63b8ff" points="108.72,-346.43 117.77,-351.94 114.13,-341.99 108.72,-346.43"/>
</a>
</g>
</g>
<!-- Node7 -->
<g id="Node000007" class="node">
<title>Node7</title>
<g id="a_Node000007"><a xlink:href="../../d0/dcf/vkstAllocatorTraits_8hpp.html" target="_top" xlink:title=" ">
<polygon fill="white" stroke="#666666" points="251,-316 102,-316 102,-286 251,-286 251,-316"/>
<text text-anchor="start" x="110" y="-304" font-family="Helvetica,sans-Serif" font-size="10.00">include/Allocator/vkstAllocator</text>
<text text-anchor="middle" x="176.5" y="-293" font-family="Helvetica,sans-Serif" font-size="10.00">Traits.hpp</text>
</a>
</g>
</g>
<!-- Node1&#45;&gt;Node7 -->
<g id="edge7_Node000001_Node000007" class="edge">
<title>Node1&#45;&gt;Node7</title>
<g id="a_edge7_Node000001_Node000007"><a xlink:title=" ">
<path fill="none" stroke="#63b8ff" d="M139.75,-344.15C147.44,-335.34 156.83,-324.56 164.19,-316.11"/>
<polygon fill="#63b8ff" stroke="#63b8ff" points="136.96,-342.03 133.03,-351.87 142.23,-346.63 136.96,-342.03"/>
</a>
</g>
</g>
<!-- Node3 -->
<g id="Node000003" class="node">
<title>Node3</title>
<g id="a_Node000003"><a xlink:href="../../dd/d2c/vkstAllocator_8hpp.html" target="_top" xlink:title=" ">
<polygon fill="white" stroke="#666666" points="218,-184 93,-184 93,-165 218,-165 218,-184"/>
<text text-anchor="middle" x="155.5" y="-172" font-family="Helvetica,sans-Serif" font-size="10.00">include/vkstAllocator.hpp</text>
</a>
</g>
</g>
<!-- Node2&#45;&gt;Node3 -->
<g id="edge2_Node000002_Node000003" class="edge">
<title>Node2&#45;&gt;Node3</title>
<g id="a_edge2_Node000002_Node000003"><a xlink:title=" ">
<path fill="none" stroke="#63b8ff" d="M102.45,-213.82C116.41,-203.73 132.58,-192.05 143.36,-184.27"/>
<polygon fill="#63b8ff" stroke="#63b8ff" points="100.17,-211.15 94.11,-219.84 104.26,-216.82 100.17,-211.15"/>
</a>
</g>
</g>
<!-- Node4 -->
<g id="Node000004" class="node">
<title>Node4</title>
<g id="a_Node000004"><a xlink:href="../../da/dc8/vkstBuffer_8hpp.html" target="_top" xlink:title=" ">
<polygon fill="white" stroke="#666666" points="212,-129 99,-129 99,-110 212,-110 212,-129"/>
<text text-anchor="middle" x="155.5" y="-117" font-family="Helvetica,sans-Serif" font-size="10.00">include/vkstBuffer.hpp</text>
</a>
</g>
</g>
<!-- Node3&#45;&gt;Node4 -->
<g id="edge3_Node000003_Node000004" class="edge">
<title>Node3&#45;&gt;Node4</title>
<g id="a_edge3_Node000003_Node000004"><a xlink:title=" ">
<path fill="none" stroke="#63b8ff" d="M155.5,-154.66C155.5,-145.93 155.5,-135.99 155.5,-129.09"/>
<polygon fill="#63b8ff" stroke="#63b8ff" points="152,-154.75 155.5,-164.75 159,-154.75 152,-154.75"/>
</a>
</g>
</g>
<!-- Node5 -->
<g id="Node000005" class="node">
<title>Node5</title>
<g id="a_Node000005"><a xlink:href="../../d4/d2f/libvkst_8hpp.html" target="_top" xlink:title=" ">
<polygon fill="white" stroke="#666666" points="204.5,-19 106.5,-19 106.5,0 204.5,0 204.5,-19"/>
<text text-anchor="middle" x="155.5" y="-7" font-family="Helvetica,sans-Serif" font-size="10.00">include/libvkst.hpp</text>
</a>
</g>
</g>
<!-- Node4&#45;&gt;Node5 -->
<g id="edge4_Node000004_Node000005" class="edge">
<title>Node4&#45;&gt;Node5</title>
<g id="a_edge4_Node000004_Node000005"><a xlink:title=" ">
<path fill="none" stroke="#63b8ff" d="M140.05,-102.26C133.6,-94.38 126.84,-84.38 123.5,-74 116.84,-53.32 134.46,-31.06 146.13,-19.17"/>
<polygon fill="#63b8ff" stroke="#63b8ff" points="137.53,-104.69 146.75,-109.9 142.79,-100.08 137.53,-104.69"/>
</a>
</g>
</g>
<!-- Node6 -->
<g id="Node000006" class="node">
<title>Node6</title>
<g id="a_Node000006"><a xlink:href="../../de/d1d/vkstOpenCLBuffer_8hpp.html" target="_top" xlink:title=" ">
<polygon fill="white" stroke="#666666" points="281,-74 132,-74 132,-55 281,-55 281,-74"/>
<text text-anchor="middle" x="206.5" y="-62" font-family="Helvetica,sans-Serif" font-size="10.00">include/vkstOpenCLBuffer.hpp</text>
</a>
</g>
</g>
<!-- Node4&#45;&gt;Node6 -->
<g id="edge5_Node000004_Node000006" class="edge">
<title>Node4&#45;&gt;Node6</title>
<g id="a_edge5_Node000004_Node000006"><a xlink:title=" ">
<path fill="none" stroke="#63b8ff" d="M170.88,-102.52C179.87,-93.18 190.86,-81.75 198.24,-74.09"/>
<polygon fill="#63b8ff" stroke="#63b8ff" points="168.33,-100.12 163.92,-109.75 173.38,-104.97 168.33,-100.12"/>
</a>
</g>
</g>
<!-- Node6&#45;&gt;Node5 -->
<g id="edge6_Node000006_Node000005" class="edge">
<title>Node6&#45;&gt;Node5</title>
<g id="a_edge6_Node000006_Node000005"><a xlink:title=" ">
<path fill="none" stroke="#63b8ff" d="M191.12,-47.52C182.13,-38.18 171.14,-26.75 163.76,-19.09"/>
<polygon fill="#63b8ff" stroke="#63b8ff" points="188.62,-49.97 198.08,-54.75 193.67,-45.12 188.62,-49.97"/>
</a>
</g>
</g>
<!-- Node7&#45;&gt;Node2 -->
<g id="edge8_Node000007_Node000002" class="edge">
<title>Node7&#45;&gt;Node2</title>
<g id="a_edge8_Node000007_Node000002"><a xlink:title=" ">
<path fill="none" stroke="#63b8ff" d="M145.29,-280.42C129.64,-270.6 111.04,-258.93 96.83,-250.01"/>
<polygon fill="#63b8ff" stroke="#63b8ff" points="143.78,-283.6 154.12,-285.95 147.51,-277.68 143.78,-283.6"/>
</a>
</g>
</g>
<!-- Node8 -->
<g id="Node000008" class="node">
<title>Node8</title>
<g id="a_Node000008"><a xlink:href="../../d5/d82/vkstMallocAllocator_8hpp.html" target="_top" xlink:title=" ">
<polygon fill="white" stroke="#666666" points="306,-250 167,-250 167,-220 306,-220 306,-250"/>
<text text-anchor="start" x="175" y="-238" font-family="Helvetica,sans-Serif" font-size="10.00">include/Allocator/vkstMalloc</text>
<text text-anchor="middle" x="236.5" y="-227" font-family="Helvetica,sans-Serif" font-size="10.00">Allocator.hpp</text>
</a>
</g>
</g>
<!-- Node7&#45;&gt;Node8 -->
<g id="edge9_Node000007_Node000008" class="edge">
<title>Node7&#45;&gt;Node8</title>
<g id="a_edge9_Node000007_Node000008"><a xlink:title=" ">
<path fill="none" stroke="#63b8ff" d="M196.78,-278.37C205.51,-269.06 215.46,-258.44 223.22,-250.16"/>
<polygon fill="#63b8ff" stroke="#63b8ff" points="194.1,-276.11 189.82,-285.8 199.21,-280.89 194.1,-276.11"/>
</a>
</g>
</g>
<!-- Node8&#45;&gt;Node3 -->
<g id="edge10_Node000008_Node000003" class="edge">
<title>Node8&#45;&gt;Node3</title>
<g id="a_edge10_Node000008_Node000003"><a xlink:title=" ">
<path fill="none" stroke="#63b8ff" d="M208.55,-213.82C194.59,-203.73 178.42,-192.05 167.64,-184.27"/>
<polygon fill="#63b8ff" stroke="#63b8ff" points="206.74,-216.82 216.89,-219.84 210.83,-211.15 206.74,-216.82"/>
</a>
</g>
</g>
</g>
</svg>
</svg>

<style type='text/css'>
<![CDATA[
[data-mouse-over-selected='false'] { opacity: 0.7; }
[data-mouse-over-selected='true']  { opacity: 1.0; }
]]>
</style>
<script type="application/ecmascript"><![CDATA[
document.addEventListener('DOMContentLoaded', (event) => {
  highlightEdges();
  highlightAdjacentNodes();
});
]]></script>
</svg>
