<?xml version="1.0" encoding="UTF-8" standalone="no"?>
<!DOCTYPE svg PUBLIC "-//W3C//DTD SVG 1.1//EN"
 "http://www.w3.org/Graphics/SVG/1.1/DTD/svg11.dtd">
<!-- Generated by graphviz version 2.42.4 (0)
 -->
<!-- Title: include/vkstAlignment.hpp Pages: 1 -->
<svg width="259pt" height="390pt"
 viewBox="0.00 0.00 259.00 390.00" xmlns="http://www.w3.org/2000/svg" xmlns:xlink="http://www.w3.org/1999/xlink">
<g id="graph0" class="graph" transform="scale(1 1) rotate(0) translate(4 386)">
<title>include/vkstAlignment.hpp</title>
<!-- Node1 -->
<g id="Node000001" class="node">
<title>Node1</title>
<g id="a_Node000001"><a xlink:title=" ">
<polygon fill="#999999" stroke="#666666" points="191,-382 60,-382 60,-363 191,-363 191,-382"/>
<text text-anchor="middle" x="125.5" y="-370" font-family="Helvetica,sans-Serif" font-size="10.00">include/vkstAlignment.hpp</text>
</a>
</g>
</g>
<!-- Node2 -->
<g id="Node000002" class="node">
<title>Node2</title>
<g id="a_Node000002"><a xlink:href="../../d0/dd1/vkstAllocatorBase_8hpp.html" target="_top" xlink:title=" ">
<polygon fill="white" stroke="#666666" points="149,-261 0,-261 0,-231 149,-231 149,-261"/>
<text text-anchor="start" x="8" y="-249" font-family="Helvetica,sans-Serif" font-size="10.00">include/Allocator/vkstAllocator</text>
<text text-anchor="middle" x="74.5" y="-238" font-family="Helvetica,sans-Serif" font-size="10.00">Base.hpp</text>
</a>
</g>
</g>
<!-- Node1&#45;&gt;Node2 -->
<g id="edge1_Node000001_Node000002" class="edge">
<title>Node1&#45;&gt;Node2</title>
<g id="a_edge1_Node000001_Node000002"><a xlink:title=" ">
<path fill="none" stroke="#63b8ff" d="M111.38,-355.15C105.09,-347.12 98.09,-337.04 93.5,-327 83.54,-305.18 78.47,-277.55 76.16,-261.13"/>
<polygon fill="#63b8ff" stroke="#63b8ff" points="108.72,-357.43 117.77,-362.94 114.13,-352.99 108.72,-357.43"/>
</a>
</g>
</g>
<!-- Node7 -->
<g id="Node000007" class="node">
<title>Node7</title>
<g id="a_Node000007"><a xlink:href="../../d0/dcf/vkstAllocatorTraits_8hpp.html" target="_top" xlink:title=" ">
<polygon fill="white" stroke="#666666" points="251,-327 102,-327 102,-297 251,-297 251,-327"/>
<text text-anchor="start" x="110" y="-315" font-family="Helvetica,sans-Serif" font-size="10.00">include/Allocator/vkstAllocator</text>
<text text-anchor="middle" x="176.5" y="-304" font-family="Helvetica,sans-Serif" font-size="10.00">Traits.hpp</text>
</a>
</g>
</g>
<!-- Node1&#45;&gt;Node7 -->
<g id="edge6_Node000001_Node000007" class="edge">
<title>Node1&#45;&gt;Node7</title>
<g id="a_edge6_Node000001_Node000007"><a xlink:title=" ">
<path fill="none" stroke="#63b8ff" d="M139.75,-355.15C147.44,-346.34 156.83,-335.56 164.19,-327.11"/>
<polygon fill="#63b8ff" stroke="#63b8ff" points="136.96,-353.03 133.03,-362.87 142.23,-357.63 136.96,-353.03"/>
</a>
</g>
</g>
<!-- Node3 -->
<g id="Node000003" class="node">
<title>Node3</title>
<g id="a_Node000003"><a xlink:href="../../d5/d82/vkstMallocAllocator_8hpp.html" target="_top" xlink:title=" ">
<polygon fill="white" stroke="#666666" points="195,-195 56,-195 56,-165 195,-165 195,-195"/>
<text text-anchor="start" x="64" y="-183" font-family="Helvetica,sans-Serif" font-size="10.00">include/Allocator/vkstMalloc</text>
<text text-anchor="middle" x="125.5" y="-172" font-family="Helvetica,sans-Serif" font-size="10.00">Allocator.hpp</text>
</a>
</g>
</g>
<!-- Node2&#45;&gt;Node3 -->
<g id="edge2_Node000002_Node000003" class="edge">
<title>Node2&#45;&gt;Node3</title>
<g id="a_edge2_Node000002_Node000003"><a xlink:title=" ">
<path fill="none" stroke="#63b8ff" d="M92.18,-222.81C99.49,-213.64 107.75,-203.28 114.21,-195.16"/>
<polygon fill="#63b8ff" stroke="#63b8ff" points="89.31,-220.79 85.82,-230.8 94.79,-225.16 89.31,-220.79"/>
</a>
</g>
</g>
<!-- Node4 -->
<g id="Node000004" class="node">
<title>Node4</title>
<g id="a_Node000004"><a xlink:href="../../dd/d2c/vkstAllocator_8hpp.html" target="_top" xlink:title=" ">
<polygon fill="white" stroke="#666666" points="188,-129 63,-129 63,-110 188,-110 188,-129"/>
<text text-anchor="middle" x="125.5" y="-117" font-family="Helvetica,sans-Serif" font-size="10.00">include/vkstAllocator.hpp</text>
</a>
</g>
</g>
<!-- Node3&#45;&gt;Node4 -->
<g id="edge3_Node000003_Node000004" class="edge">
<title>Node3&#45;&gt;Node4</title>
<g id="a_edge3_Node000003_Node000004"><a xlink:title=" ">
<path fill="none" stroke="#63b8ff" d="M125.5,-154.75C125.5,-145.72 125.5,-136.03 125.5,-129.27"/>
<polygon fill="#63b8ff" stroke="#63b8ff" points="122,-154.84 125.5,-164.84 129,-154.84 122,-154.84"/>
</a>
</g>
</g>
<!-- Node5 -->
<g id="Node000005" class="node">
<title>Node5</title>
<g id="a_Node000005"><a xlink:href="../../da/dc8/vkstBuffer_8hpp.html" target="_top" xlink:title=" ">
<polygon fill="white" stroke="#666666" points="182,-74 69,-74 69,-55 182,-55 182,-74"/>
<text text-anchor="middle" x="125.5" y="-62" font-family="Helvetica,sans-Serif" font-size="10.00">include/vkstBuffer.hpp</text>
</a>
</g>
</g>
<!-- Node4&#45;&gt;Node5 -->
<g id="edge4_Node000004_Node000005" class="edge">
<title>Node4&#45;&gt;Node5</title>
<g id="a_edge4_Node000004_Node000005"><a xlink:title=" ">
<path fill="none" stroke="#63b8ff" d="M125.5,-99.66C125.5,-90.93 125.5,-80.99 125.5,-74.09"/>
<polygon fill="#63b8ff" stroke="#63b8ff" points="122,-99.75 125.5,-109.75 129,-99.75 122,-99.75"/>
</a>
</g>
</g>
<!-- Node6 -->
<g id="Node000006" class="node">
<title>Node6</title>
<g id="a_Node000006"><a xlink:href="../../d4/d2f/libvkst_8hpp.html" target="_top" xlink:title=" ">
<polygon fill="white" stroke="#666666" points="174.5,-19 76.5,-19 76.5,0 174.5,0 174.5,-19"/>
<text text-anchor="middle" x="125.5" y="-7" font-family="Helvetica,sans-Serif" font-size="10.00">include/libvkst.hpp</text>
</a>
</g>
</g>
<!-- Node5&#45;&gt;Node6 -->
<g id="edge5_Node000005_Node000006" class="edge">
<title>Node5&#45;&gt;Node6</title>
<g id="a_edge5_Node000005_Node000006"><a xlink:title=" ">
<path fill="none" stroke="#63b8ff" d="M125.5,-44.66C125.5,-35.93 125.5,-25.99 125.5,-19.09"/>
<polygon fill="#63b8ff" stroke="#63b8ff" points="122,-44.75 125.5,-54.75 129,-44.75 122,-44.75"/>
</a>
</g>
</g>
<!-- Node7&#45;&gt;Node2 -->
<g id="edge7_Node000007_Node000002" class="edge">
<title>Node7&#45;&gt;Node2</title>
<g id="a_edge7_Node000007_Node000002"><a xlink:title=" ">
<path fill="none" stroke="#63b8ff" d="M145.29,-291.42C129.64,-281.6 111.04,-269.93 96.83,-261.01"/>
<polygon fill="#63b8ff" stroke="#63b8ff" points="143.78,-294.6 154.12,-296.95 147.51,-288.68 143.78,-294.6"/>
</a>
</g>
</g>
<!-- Node7&#45;&gt;Node3 -->
<g id="edge8_Node000007_Node000003" class="edge">
<title>Node7&#45;&gt;Node3</title>
<g id="a_edge8_Node000007_Node000003"><a xlink:title=" ">
<path fill="none" stroke="#63b8ff" d="M172.92,-286.7C170.01,-270.49 165.11,-248.94 157.5,-231 152.03,-218.1 143.34,-204.79 136.39,-195.15"/>
<polygon fill="#63b8ff" stroke="#63b8ff" points="169.53,-287.68 174.63,-296.97 176.44,-286.53 169.53,-287.68"/>
</a>
</g>
</g>
</g>
</svg>
