<?xml version="1.0" encoding="UTF-8" standalone="no"?>
<!DOCTYPE svg PUBLIC "-//W3C//DTD SVG 1.1//EN"
 "http://www.w3.org/Graphics/SVG/1.1/DTD/svg11.dtd">
<!-- Generated by graphviz version 2.42.4 (0)
 -->
<!-- Title: vkst::basic_allocator_filter Pages: 1 -->
<svg width="137pt" height="168pt"
 viewBox="0.00 0.00 137.00 168.00" xmlns="http://www.w3.org/2000/svg" xmlns:xlink="http://www.w3.org/1999/xlink">
<g id="graph0" class="graph" transform="scale(1 1) rotate(0) translate(4 164)">
<title>vkst::basic_allocator_filter</title>
<!-- Node1 -->
<g id="Node000001" class="node">
<title>Node1</title>
<g id="a_Node000001"><a xlink:title=" ">
<polygon fill="#999999" stroke="transparent" points="129,-160 0,-160 0,0 129,0 129,-160"/>
<text text-anchor="start" x="19.5" y="-148" font-family="Helvetica,sans-Serif" font-size="10.00">vkst::basic_allocator</text>
<text text-anchor="start" x="52.5" y="-137" font-family="Helvetica,sans-Serif" font-size="10.00">_filter</text>
<text text-anchor="start" x="63" y="-122" font-family="Helvetica,sans-Serif" font-size="10.00"> </text>
<text text-anchor="start" x="4.5" y="-107" font-family="Helvetica,sans-Serif" font-size="10.00">+</text>
<text text-anchor="start" x="15.5" y="-107" font-family="Helvetica,sans-Serif" font-size="10.00">bool on_pre_alloc(size</text>
<text text-anchor="start" x="15.5" y="-96" font-family="Helvetica,sans-Serif" font-size="10.00">_t size, size_t alignment)</text>
<text text-anchor="start" x="4.5" y="-81" font-family="Helvetica,sans-Serif" font-size="10.00">+</text>
<text text-anchor="start" x="15.5" y="-81" font-family="Helvetica,sans-Serif" font-size="10.00">void on_alloc(size</text>
<text text-anchor="start" x="15.5" y="-70" font-family="Helvetica,sans-Serif" font-size="10.00">_t size, size_t alignment)</text>
<text text-anchor="start" x="4.5" y="-55" font-family="Helvetica,sans-Serif" font-size="10.00">+</text>
<text text-anchor="start" x="15.5" y="-55" font-family="Helvetica,sans-Serif" font-size="10.00">bool on_pre_dealloc</text>
<text text-anchor="start" x="15.5" y="-44" font-family="Helvetica,sans-Serif" font-size="10.00">(size_t size, size_t</text>
<text text-anchor="start" x="15.5" y="-33" font-family="Helvetica,sans-Serif" font-size="10.00"> alignment)</text>
<text text-anchor="start" x="4.5" y="-18" font-family="Helvetica,sans-Serif" font-size="10.00">+</text>
<text text-anchor="start" x="15.5" y="-18" font-family="Helvetica,sans-Serif" font-size="10.00">void on_dealloc(size</text>
<text text-anchor="start" x="15.5" y="-7" font-family="Helvetica,sans-Serif" font-size="10.00">_t size, size_t alignment)</text>
<polygon fill="#666666" stroke="#666666" points="0.5,-132 0.5,-132 129.5,-132 129.5,-132 0.5,-132"/>
<polygon fill="#666666" stroke="#666666" points="0.5,-117 0.5,-117 129.5,-117 129.5,-117 0.5,-117"/>
<polygon fill="none" stroke="#666666" points="0,0 0,-160 129,-160 129,0 0,0"/>
</a>
</g>
</g>
</g>
</svg>
