<?xml version="1.0" encoding="UTF-8" standalone="no"?>
<!DOCTYPE svg PUBLIC "-//W3C//DTD SVG 1.1//EN"
 "http://www.w3.org/Graphics/SVG/1.1/DTD/svg11.dtd">
<!-- Generated by graphviz version 2.42.4 (0)
 -->
<!-- Title: Grafische Darstellung der Klassenhierarchie Pages: 1 -->
<svg width="231pt" height="326pt"
 viewBox="0.00 0.00 231.00 326.00" xmlns="http://www.w3.org/2000/svg" xmlns:xlink="http://www.w3.org/1999/xlink">
<g id="graph0" class="graph" transform="scale(1 1) rotate(0) translate(4 322)">
<title>Grafische Darstellung der Klassenhierarchie</title>
<!-- Node0 -->
<g id="Node000000" class="node">
<title>Node0</title>
<g id="a_Node000000"><a xlink:title=" ">
<polygon fill="#e0e0e0" stroke="#999999" points="77,-168.5 0,-168.5 0,-149.5 77,-149.5 77,-168.5"/>
<text text-anchor="middle" x="38.5" y="-156.5" font-family="Helvetica,sans-Serif" font-size="10.00">std::true_type</text>
</a>
</g>
</g>
<!-- Node1 -->
<g id="Node000001" class="node">
<title>Node1</title>
<g id="a_Node000001"><a xlink:href="d5/d96/structvkst_1_1is__pod_3_01internal_1_1aligned1_01_4.html" target="_top" xlink:title=" ">
<polygon fill="white" stroke="#666666" points="223,-318 113,-318 113,-288 223,-288 223,-318"/>
<text text-anchor="start" x="121" y="-306" font-family="Helvetica,sans-Serif" font-size="10.00">vkst::is_pod&lt; internal</text>
<text text-anchor="middle" x="168" y="-295" font-family="Helvetica,sans-Serif" font-size="10.00">::aligned1 &gt;</text>
</a>
</g>
</g>
<!-- Node0&#45;&gt;Node1 -->
<g id="edge3_Node000000_Node000001" class="edge">
<title>Node0&#45;&gt;Node1</title>
<g id="a_edge3_Node000000_Node000001"><a xlink:title=" ">
<path fill="none" stroke="#63b8ff" d="M46.95,-178.24C57.88,-204.22 80.54,-250.55 113,-279 116.86,-282.38 121.27,-285.36 125.87,-287.96"/>
<polygon fill="#63b8ff" stroke="#63b8ff" points="50.11,-176.71 43.11,-168.75 43.62,-179.34 50.11,-176.71"/>
</a>
</g>
</g>
<!-- Node2 -->
<g id="Node000002" class="node">
<title>Node2</title>
<g id="a_Node000002"><a xlink:href="d5/d7e/structvkst_1_1is__pod_3_01internal_1_1aligned16_01_4.html" target="_top" xlink:title=" ">
<polygon fill="white" stroke="#666666" points="223,-270 113,-270 113,-240 223,-240 223,-270"/>
<text text-anchor="start" x="121" y="-258" font-family="Helvetica,sans-Serif" font-size="10.00">vkst::is_pod&lt; internal</text>
<text text-anchor="middle" x="168" y="-247" font-family="Helvetica,sans-Serif" font-size="10.00">::aligned16 &gt;</text>
</a>
</g>
</g>
<!-- Node0&#45;&gt;Node2 -->
<g id="edge4_Node000000_Node000002" class="edge">
<title>Node0&#45;&gt;Node2</title>
<g id="a_edge4_Node000000_Node000002"><a xlink:title=" ">
<path fill="none" stroke="#63b8ff" d="M54.26,-176.7C68.15,-192.51 90.18,-215.5 113,-231 117.84,-234.29 123.2,-237.3 128.61,-240"/>
<polygon fill="#63b8ff" stroke="#63b8ff" points="56.6,-174.05 47.42,-168.74 51.29,-178.61 56.6,-174.05"/>
</a>
</g>
</g>
<!-- Node3 -->
<g id="Node000003" class="node">
<title>Node3</title>
<g id="a_Node000003"><a xlink:href="db/dca/structvkst_1_1is__pod_3_01internal_1_1aligned2_01_4.html" target="_top" xlink:title=" ">
<polygon fill="white" stroke="#666666" points="223,-222 113,-222 113,-192 223,-192 223,-222"/>
<text text-anchor="start" x="121" y="-210" font-family="Helvetica,sans-Serif" font-size="10.00">vkst::is_pod&lt; internal</text>
<text text-anchor="middle" x="168" y="-199" font-family="Helvetica,sans-Serif" font-size="10.00">::aligned2 &gt;</text>
</a>
</g>
</g>
<!-- Node0&#45;&gt;Node3 -->
<g id="edge5_Node000000_Node000003" class="edge">
<title>Node0&#45;&gt;Node3</title>
<g id="a_edge5_Node000000_Node000003"><a xlink:title=" ">
<path fill="none" stroke="#63b8ff" d="M74.64,-172.23C90.87,-178.34 110.21,-185.62 126.99,-191.94"/>
<polygon fill="#63b8ff" stroke="#63b8ff" points="75.59,-168.85 65,-168.6 73.12,-175.4 75.59,-168.85"/>
</a>
</g>
</g>
<!-- Node4 -->
<g id="Node000004" class="node">
<title>Node4</title>
<g id="a_Node000004"><a xlink:href="de/d2c/structvkst_1_1is__pod_3_01internal_1_1aligned32_01_4.html" target="_top" xlink:title=" ">
<polygon fill="white" stroke="#666666" points="223,-174 113,-174 113,-144 223,-144 223,-174"/>
<text text-anchor="start" x="121" y="-162" font-family="Helvetica,sans-Serif" font-size="10.00">vkst::is_pod&lt; internal</text>
<text text-anchor="middle" x="168" y="-151" font-family="Helvetica,sans-Serif" font-size="10.00">::aligned32 &gt;</text>
</a>
</g>
</g>
<!-- Node0&#45;&gt;Node4 -->
<g id="edge6_Node000000_Node000004" class="edge">
<title>Node0&#45;&gt;Node4</title>
<g id="a_edge6_Node000000_Node000004"><a xlink:title=" ">
<path fill="none" stroke="#63b8ff" d="M87.31,-159C95.59,-159 104.26,-159 112.7,-159"/>
<polygon fill="#63b8ff" stroke="#63b8ff" points="87.06,-155.5 77.06,-159 87.06,-162.5 87.06,-155.5"/>
</a>
</g>
</g>
<!-- Node5 -->
<g id="Node000005" class="node">
<title>Node5</title>
<g id="a_Node000005"><a xlink:href="d4/df1/structvkst_1_1is__pod_3_01internal_1_1aligned4_01_4.html" target="_top" xlink:title=" ">
<polygon fill="white" stroke="#666666" points="223,-126 113,-126 113,-96 223,-96 223,-126"/>
<text text-anchor="start" x="121" y="-114" font-family="Helvetica,sans-Serif" font-size="10.00">vkst::is_pod&lt; internal</text>
<text text-anchor="middle" x="168" y="-103" font-family="Helvetica,sans-Serif" font-size="10.00">::aligned4 &gt;</text>
</a>
</g>
</g>
<!-- Node0&#45;&gt;Node5 -->
<g id="edge7_Node000000_Node000005" class="edge">
<title>Node0&#45;&gt;Node5</title>
<g id="a_edge7_Node000000_Node000005"><a xlink:title=" ">
<path fill="none" stroke="#63b8ff" d="M74.64,-145.77C90.87,-139.66 110.21,-132.38 126.99,-126.06"/>
<polygon fill="#63b8ff" stroke="#63b8ff" points="73.12,-142.6 65,-149.4 75.59,-149.15 73.12,-142.6"/>
</a>
</g>
</g>
<!-- Node6 -->
<g id="Node000006" class="node">
<title>Node6</title>
<g id="a_Node000006"><a xlink:href="d5/d55/structvkst_1_1is__pod_3_01internal_1_1aligned64_01_4.html" target="_top" xlink:title=" ">
<polygon fill="white" stroke="#666666" points="223,-78 113,-78 113,-48 223,-48 223,-78"/>
<text text-anchor="start" x="121" y="-66" font-family="Helvetica,sans-Serif" font-size="10.00">vkst::is_pod&lt; internal</text>
<text text-anchor="middle" x="168" y="-55" font-family="Helvetica,sans-Serif" font-size="10.00">::aligned64 &gt;</text>
</a>
</g>
</g>
<!-- Node0&#45;&gt;Node6 -->
<g id="edge8_Node000000_Node000006" class="edge">
<title>Node0&#45;&gt;Node6</title>
<g id="a_edge8_Node000000_Node000006"><a xlink:title=" ">
<path fill="none" stroke="#63b8ff" d="M54.26,-141.3C68.15,-125.49 90.18,-102.5 113,-87 117.84,-83.71 123.2,-80.7 128.61,-78"/>
<polygon fill="#63b8ff" stroke="#63b8ff" points="51.29,-139.39 47.42,-149.26 56.6,-143.95 51.29,-139.39"/>
</a>
</g>
</g>
<!-- Node7 -->
<g id="Node000007" class="node">
<title>Node7</title>
<g id="a_Node000007"><a xlink:href="db/d2c/structvkst_1_1is__pod_3_01internal_1_1aligned8_01_4.html" target="_top" xlink:title=" ">
<polygon fill="white" stroke="#666666" points="223,-30 113,-30 113,0 223,0 223,-30"/>
<text text-anchor="start" x="121" y="-18" font-family="Helvetica,sans-Serif" font-size="10.00">vkst::is_pod&lt; internal</text>
<text text-anchor="middle" x="168" y="-7" font-family="Helvetica,sans-Serif" font-size="10.00">::aligned8 &gt;</text>
</a>
</g>
</g>
<!-- Node0&#45;&gt;Node7 -->
<g id="edge9_Node000000_Node000007" class="edge">
<title>Node0&#45;&gt;Node7</title>
<g id="a_edge9_Node000000_Node000007"><a xlink:title=" ">
<path fill="none" stroke="#63b8ff" d="M46.95,-139.76C57.88,-113.78 80.54,-67.45 113,-39 116.86,-35.62 121.27,-32.64 125.87,-30.04"/>
<polygon fill="#63b8ff" stroke="#63b8ff" points="43.62,-138.66 43.11,-149.25 50.11,-141.29 43.62,-138.66"/>
</a>
</g>
</g>
</g>
</svg>
