<?xml version="1.0" encoding="UTF-8" standalone="no"?>
<!DOCTYPE svg PUBLIC "-//W3C//DTD SVG 1.1//EN"
 "http://www.w3.org/Graphics/SVG/1.1/DTD/svg11.dtd">
<!-- Generated by graphviz version 2.42.4 (0)
 -->
<!-- Title: Grafische Darstellung der Klassenhierarchie Pages: 1 -->
<svg width="260pt" height="76pt"
 viewBox="0.00 0.00 260.00 75.50" xmlns="http://www.w3.org/2000/svg" xmlns:xlink="http://www.w3.org/1999/xlink">
<g id="graph0" class="graph" transform="scale(1 1) rotate(0) translate(4 71.5)">
<title>Grafische Darstellung der Klassenhierarchie</title>
<!-- Node0 -->
<g id="Node000000" class="node">
<title>Node0</title>
<g id="a_Node000000"><a xlink:title=" ">
<polygon fill="#e0e0e0" stroke="#999999" points="110,-45.5 0,-45.5 0,-26.5 110,-26.5 110,-45.5"/>
<text text-anchor="middle" x="55" y="-33.5" font-family="Helvetica,sans-Serif" font-size="10.00">std::integral_constant</text>
</a>
</g>
</g>
<!-- Node1 -->
<g id="Node000001" class="node">
<title>Node1</title>
<g id="a_Node000001"><a xlink:href="d2/dc0/structvkst_1_1is__pod.html" target="_top" xlink:title="A type trait to check if a type is a Plain Old Data (POD) type.">
<polygon fill="white" stroke="#666666" points="246,-67.5 152,-67.5 152,-48.5 246,-48.5 246,-67.5"/>
<text text-anchor="middle" x="199" y="-55.5" font-family="Helvetica,sans-Serif" font-size="10.00">vkst::is_pod&lt; T &gt;</text>
</a>
</g>
</g>
<!-- Node0&#45;&gt;Node1 -->
<g id="edge1_Node000000_Node000001" class="edge">
<title>Node0&#45;&gt;Node1</title>
<g id="a_edge1_Node000000_Node000001"><a xlink:title=" ">
<path fill="none" stroke="#63b8ff" d="M120.24,-45.95C130.92,-47.61 141.82,-49.3 151.93,-50.86"/>
<polygon fill="#63b8ff" stroke="#63b8ff" points="120.51,-42.45 110.09,-44.38 119.44,-49.37 120.51,-42.45"/>
</a>
</g>
</g>
<!-- Node2 -->
<g id="Node000002" class="node">
<title>Node2</title>
<g id="a_Node000002"><a xlink:href="d1/d4b/structvkst_1_1is__thread__safe__allocator.html" target="_top" xlink:title="Checks whether a given allocator is thread&#45;safe.">
<polygon fill="white" stroke="#666666" points="252,-30 146,-30 146,0 252,0 252,-30"/>
<text text-anchor="start" x="154" y="-18" font-family="Helvetica,sans-Serif" font-size="10.00">vkst::is_thread_safe</text>
<text text-anchor="middle" x="199" y="-7" font-family="Helvetica,sans-Serif" font-size="10.00">_allocator&lt; TAlloC &gt;</text>
</a>
</g>
</g>
<!-- Node0&#45;&gt;Node2 -->
<g id="edge2_Node000000_Node000002" class="edge">
<title>Node0&#45;&gt;Node2</title>
<g id="a_edge2_Node000000_Node000002"><a xlink:title=" ">
<path fill="none" stroke="#63b8ff" d="M120.13,-26.52C128.77,-25.24 137.54,-23.94 145.94,-22.7"/>
<polygon fill="#63b8ff" stroke="#63b8ff" points="119.47,-23.08 110.09,-28 120.49,-30 119.47,-23.08"/>
</a>
</g>
</g>
</g>
</svg>
