<?xml version="1.0" encoding="UTF-8" standalone="no"?>
<!DOCTYPE svg PUBLIC "-//W3C//DTD SVG 1.1//EN"
 "http://www.w3.org/Graphics/SVG/1.1/DTD/svg11.dtd">
<!-- Generated by graphviz version 2.42.4 (0)
 -->
<!-- Title: include/Allocator/vkstAllocatorFilter.hpp Pages: 1 -->
<svg width="157pt" height="335pt"
 viewBox="0.00 0.00 157.00 335.00" xmlns="http://www.w3.org/2000/svg" xmlns:xlink="http://www.w3.org/1999/xlink">
<g id="graph0" class="graph" transform="scale(1 1) rotate(0) translate(4 331)">
<title>include/Allocator/vkstAllocatorFilter.hpp</title>
<!-- Node1 -->
<g id="Node000001" class="node">
<title>Node1</title>
<g id="a_Node000001"><a xlink:title=" ">
<polygon fill="#999999" stroke="#666666" points="149,-327 0,-327 0,-297 149,-297 149,-327"/>
<text text-anchor="start" x="8" y="-315" font-family="Helvetica,sans-Serif" font-size="10.00">include/Allocator/vkstAllocator</text>
<text text-anchor="middle" x="74.5" y="-304" font-family="Helvetica,sans-Serif" font-size="10.00">Filter.hpp</text>
</a>
</g>
</g>
<!-- Node2 -->
<g id="Node000002" class="node">
<title>Node2</title>
<g id="a_Node000002"><a xlink:href="../../d0/dd1/vkstAllocatorBase_8hpp.html" target="_top" xlink:title=" ">
<polygon fill="white" stroke="#666666" points="149,-261 0,-261 0,-231 149,-231 149,-261"/>
<text text-anchor="start" x="8" y="-249" font-family="Helvetica,sans-Serif" font-size="10.00">include/Allocator/vkstAllocator</text>
<text text-anchor="middle" x="74.5" y="-238" font-family="Helvetica,sans-Serif" font-size="10.00">Base.hpp</text>
</a>
</g>
</g>
<!-- Node1&#45;&gt;Node2 -->
<g id="edge1_Node000001_Node000002" class="edge">
<title>Node1&#45;&gt;Node2</title>
<g id="a_edge1_Node000001_Node000002"><a xlink:title=" ">
<path fill="none" stroke="#63b8ff" d="M74.5,-286.54C74.5,-277.96 74.5,-268.61 74.5,-261.16"/>
<polygon fill="#63b8ff" stroke="#63b8ff" points="71,-286.8 74.5,-296.8 78,-286.8 71,-286.8"/>
</a>
</g>
</g>
<!-- Node3 -->
<g id="Node000003" class="node">
<title>Node3</title>
<g id="a_Node000003"><a xlink:href="../../d5/d82/vkstMallocAllocator_8hpp.html" target="_top" xlink:title=" ">
<polygon fill="white" stroke="#666666" points="144,-195 5,-195 5,-165 144,-165 144,-195"/>
<text text-anchor="start" x="13" y="-183" font-family="Helvetica,sans-Serif" font-size="10.00">include/Allocator/vkstMalloc</text>
<text text-anchor="middle" x="74.5" y="-172" font-family="Helvetica,sans-Serif" font-size="10.00">Allocator.hpp</text>
</a>
</g>
</g>
<!-- Node2&#45;&gt;Node3 -->
<g id="edge2_Node000002_Node000003" class="edge">
<title>Node2&#45;&gt;Node3</title>
<g id="a_edge2_Node000002_Node000003"><a xlink:title=" ">
<path fill="none" stroke="#63b8ff" d="M74.5,-220.54C74.5,-211.96 74.5,-202.61 74.5,-195.16"/>
<polygon fill="#63b8ff" stroke="#63b8ff" points="71,-220.8 74.5,-230.8 78,-220.8 71,-220.8"/>
</a>
</g>
</g>
<!-- Node4 -->
<g id="Node000004" class="node">
<title>Node4</title>
<g id="a_Node000004"><a xlink:href="../../dd/d2c/vkstAllocator_8hpp.html" target="_top" xlink:title=" ">
<polygon fill="white" stroke="#666666" points="137,-129 12,-129 12,-110 137,-110 137,-129"/>
<text text-anchor="middle" x="74.5" y="-117" font-family="Helvetica,sans-Serif" font-size="10.00">include/vkstAllocator.hpp</text>
</a>
</g>
</g>
<!-- Node3&#45;&gt;Node4 -->
<g id="edge3_Node000003_Node000004" class="edge">
<title>Node3&#45;&gt;Node4</title>
<g id="a_edge3_Node000003_Node000004"><a xlink:title=" ">
<path fill="none" stroke="#63b8ff" d="M74.5,-154.75C74.5,-145.72 74.5,-136.03 74.5,-129.27"/>
<polygon fill="#63b8ff" stroke="#63b8ff" points="71,-154.84 74.5,-164.84 78,-154.84 71,-154.84"/>
</a>
</g>
</g>
<!-- Node5 -->
<g id="Node000005" class="node">
<title>Node5</title>
<g id="a_Node000005"><a xlink:href="../../da/dc8/vkstBuffer_8hpp.html" target="_top" xlink:title=" ">
<polygon fill="white" stroke="#666666" points="131,-74 18,-74 18,-55 131,-55 131,-74"/>
<text text-anchor="middle" x="74.5" y="-62" font-family="Helvetica,sans-Serif" font-size="10.00">include/vkstBuffer.hpp</text>
</a>
</g>
</g>
<!-- Node4&#45;&gt;Node5 -->
<g id="edge4_Node000004_Node000005" class="edge">
<title>Node4&#45;&gt;Node5</title>
<g id="a_edge4_Node000004_Node000005"><a xlink:title=" ">
<path fill="none" stroke="#63b8ff" d="M74.5,-99.66C74.5,-90.93 74.5,-80.99 74.5,-74.09"/>
<polygon fill="#63b8ff" stroke="#63b8ff" points="71,-99.75 74.5,-109.75 78,-99.75 71,-99.75"/>
</a>
</g>
</g>
<!-- Node6 -->
<g id="Node000006" class="node">
<title>Node6</title>
<g id="a_Node000006"><a xlink:href="../../d4/d2f/libvkst_8hpp.html" target="_top" xlink:title=" ">
<polygon fill="white" stroke="#666666" points="123.5,-19 25.5,-19 25.5,0 123.5,0 123.5,-19"/>
<text text-anchor="middle" x="74.5" y="-7" font-family="Helvetica,sans-Serif" font-size="10.00">include/libvkst.hpp</text>
</a>
</g>
</g>
<!-- Node5&#45;&gt;Node6 -->
<g id="edge5_Node000005_Node000006" class="edge">
<title>Node5&#45;&gt;Node6</title>
<g id="a_edge5_Node000005_Node000006"><a xlink:title=" ">
<path fill="none" stroke="#63b8ff" d="M74.5,-44.66C74.5,-35.93 74.5,-25.99 74.5,-19.09"/>
<polygon fill="#63b8ff" stroke="#63b8ff" points="71,-44.75 74.5,-54.75 78,-44.75 71,-44.75"/>
</a>
</g>
</g>
</g>
</svg>
