<?xml version="1.0" encoding="UTF-8" standalone="no"?>
<!DOCTYPE svg PUBLIC "-//W3C//DTD SVG 1.1//EN"
 "http://www.w3.org/Graphics/SVG/1.1/DTD/svg11.dtd">
<!-- Generated by graphviz version 2.42.4 (0)
 -->
<!-- Title: include/vkstAllocator.hpp Pages: 1 -->
<svg width="670pt" height="258pt"
 viewBox="0.00 0.00 670.00 258.00" xmlns="http://www.w3.org/2000/svg" xmlns:xlink="http://www.w3.org/1999/xlink">
<g id="graph0" class="graph" transform="scale(1 1) rotate(0) translate(4 254)">
<title>include/vkstAllocator.hpp</title>
<!-- Node1 -->
<g id="Node000001" class="node">
<title>Node1</title>
<g id="a_Node000001"><a xlink:title=" ">
<polygon fill="#999999" stroke="#666666" points="406.5,-250 281.5,-250 281.5,-231 406.5,-231 406.5,-250"/>
<text text-anchor="middle" x="344" y="-238" font-family="Helvetica,sans-Serif" font-size="10.00">include/vkstAllocator.hpp</text>
</a>
</g>
</g>
<!-- Node2 -->
<g id="Node000002" class="node">
<title>Node2</title>
<g id="a_Node000002"><a xlink:title=" ">
<polygon fill="#e0e0e0" stroke="#999999" points="262.5,-195 211.5,-195 211.5,-176 262.5,-176 262.5,-195"/>
<text text-anchor="middle" x="237" y="-183" font-family="Helvetica,sans-Serif" font-size="10.00">config.h</text>
</a>
</g>
</g>
<!-- Node1&#45;&gt;Node2 -->
<g id="edge1_Node000001_Node000002" class="edge">
<title>Node1&#45;&gt;Node2</title>
<g id="a_edge1_Node000001_Node000002"><a xlink:title=" ">
<path fill="none" stroke="#63b8ff" d="M326.81,-230.98C309.75,-222.54 283.37,-209.47 263.6,-199.68"/>
<polygon fill="#63b8ff" stroke="#63b8ff" points="265.02,-196.47 254.5,-195.17 261.91,-202.75 265.02,-196.47"/>
</a>
</g>
</g>
<!-- Node3 -->
<g id="Node000003" class="node">
<title>Node3</title>
<g id="a_Node000003"><a xlink:href="../../d0/dd1/vkstAllocatorBase_8hpp.html" target="_top" xlink:title=" ">
<polygon fill="white" stroke="#666666" points="475,-195 319,-195 319,-176 475,-176 475,-195"/>
<text text-anchor="middle" x="397" y="-183" font-family="Helvetica,sans-Serif" font-size="10.00">Allocator/vkstAllocatorBase.hpp</text>
</a>
</g>
</g>
<!-- Node1&#45;&gt;Node3 -->
<g id="edge2_Node000001_Node000003" class="edge">
<title>Node1&#45;&gt;Node3</title>
<g id="a_edge2_Node000001_Node000003"><a xlink:title=" ">
<path fill="none" stroke="#63b8ff" d="M352.75,-230.75C360.47,-223.03 371.9,-211.6 381.22,-202.28"/>
<polygon fill="#63b8ff" stroke="#63b8ff" points="383.81,-204.64 388.41,-195.09 378.86,-199.69 383.81,-204.64"/>
</a>
</g>
</g>
<!-- Node20 -->
<g id="Node000020" class="node">
<title>Node20</title>
<g id="a_Node000020"><a xlink:href="../../d5/d82/vkstMallocAllocator_8hpp.html" target="_top" xlink:title=" ">
<polygon fill="white" stroke="#666666" points="654.5,-195 493.5,-195 493.5,-176 654.5,-176 654.5,-195"/>
<text text-anchor="middle" x="574" y="-183" font-family="Helvetica,sans-Serif" font-size="10.00">Allocator/vkstMallocAllocator.hpp</text>
</a>
</g>
</g>
<!-- Node1&#45;&gt;Node20 -->
<g id="edge23_Node000001_Node000020" class="edge">
<title>Node1&#45;&gt;Node20</title>
<g id="a_edge23_Node000001_Node000020"><a xlink:title=" ">
<path fill="none" stroke="#63b8ff" d="M380.95,-230.98C420.57,-221.86 483.59,-207.33 526.77,-197.38"/>
<polygon fill="#63b8ff" stroke="#63b8ff" points="527.8,-200.74 536.76,-195.08 526.23,-193.92 527.8,-200.74"/>
</a>
</g>
</g>
<!-- Node21 -->
<g id="Node000021" class="node">
<title>Node21</title>
<g id="a_Node000021"><a xlink:href="../../d5/d58/vkstAllocatorMaximalFilter_8hpp.html" target="_top" xlink:title=" ">
<polygon fill="white" stroke="#666666" points="368,-140 216,-140 216,-110 368,-110 368,-140"/>
<text text-anchor="start" x="224" y="-128" font-family="Helvetica,sans-Serif" font-size="10.00">Allocator/vkstAllocatorMaximal</text>
<text text-anchor="middle" x="292" y="-117" font-family="Helvetica,sans-Serif" font-size="10.00">Filter.hpp</text>
</a>
</g>
</g>
<!-- Node1&#45;&gt;Node21 -->
<g id="edge25_Node000001_Node000021" class="edge">
<title>Node1&#45;&gt;Node21</title>
<g id="a_edge25_Node000001_Node000021"><a xlink:title=" ">
<path fill="none" stroke="#63b8ff" d="M335.83,-231C328.11,-222.52 316.73,-208.81 310,-195 303.11,-180.86 298.62,-163.77 295.85,-150.13"/>
<polygon fill="#63b8ff" stroke="#63b8ff" points="299.25,-149.25 293.99,-140.05 292.37,-150.52 299.25,-149.25"/>
</a>
</g>
</g>
<!-- Node4 -->
<g id="Node000004" class="node">
<title>Node4</title>
<g id="a_Node000004"><a xlink:title=" ">
<polygon fill="#e0e0e0" stroke="#999999" points="339,-74 293,-74 293,-55 339,-55 339,-74"/>
<text text-anchor="middle" x="316" y="-62" font-family="Helvetica,sans-Serif" font-size="10.00">stdio.h</text>
</a>
</g>
</g>
<!-- Node3&#45;&gt;Node4 -->
<g id="edge3_Node000003_Node000004" class="edge">
<title>Node3&#45;&gt;Node4</title>
<g id="a_edge3_Node000003_Node000004"><a xlink:title=" ">
<path fill="none" stroke="#63b8ff" d="M396.53,-175.92C395.35,-161.21 391.25,-130.76 377,-110 368.25,-97.25 354.62,-86.81 342.46,-79.25"/>
<polygon fill="#63b8ff" stroke="#63b8ff" points="343.95,-76.06 333.55,-74.04 340.41,-82.11 343.95,-76.06"/>
</a>
</g>
</g>
<!-- Node5 -->
<g id="Node000005" class="node">
<title>Node5</title>
<g id="a_Node000005"><a xlink:href="../../d1/d72/vkstAllocatorFilter_8hpp.html" target="_top" xlink:title=" ">
<polygon fill="white" stroke="#666666" points="197.5,-134.5 84.5,-134.5 84.5,-115.5 197.5,-115.5 197.5,-134.5"/>
<text text-anchor="middle" x="141" y="-122.5" font-family="Helvetica,sans-Serif" font-size="10.00">vkstAllocatorFilter.hpp</text>
</a>
</g>
</g>
<!-- Node3&#45;&gt;Node5 -->
<g id="edge4_Node000003_Node000005" class="edge">
<title>Node3&#45;&gt;Node5</title>
<g id="a_edge4_Node000003_Node000005"><a xlink:title=" ">
<path fill="none" stroke="#63b8ff" d="M359.78,-175.99C314.37,-165.62 237.56,-148.07 188.09,-136.76"/>
<polygon fill="#63b8ff" stroke="#63b8ff" points="188.8,-133.33 178.27,-134.52 187.24,-140.16 188.8,-133.33"/>
</a>
</g>
</g>
<!-- Node11 -->
<g id="Node000011" class="node">
<title>Node11</title>
<g id="a_Node000011"><a xlink:href="../../d0/dcf/vkstAllocatorTraits_8hpp.html" target="_top" xlink:title=" ">
<polygon fill="white" stroke="#666666" points="579.5,-134.5 462.5,-134.5 462.5,-115.5 579.5,-115.5 579.5,-134.5"/>
<text text-anchor="middle" x="521" y="-122.5" font-family="Helvetica,sans-Serif" font-size="10.00">vkstAllocatorTraits.hpp</text>
</a>
</g>
</g>
<!-- Node3&#45;&gt;Node11 -->
<g id="edge11_Node000003_Node000011" class="edge">
<title>Node3&#45;&gt;Node11</title>
<g id="a_edge11_Node000003_Node000011"><a xlink:title=" ">
<path fill="none" stroke="#63b8ff" d="M415.03,-175.99C435.69,-166.25 469.78,-150.16 493.7,-138.88"/>
<polygon fill="#63b8ff" stroke="#63b8ff" points="495.4,-141.95 502.95,-134.52 492.41,-135.62 495.4,-141.95"/>
</a>
</g>
</g>
<!-- Node15 -->
<g id="Node000015" class="node">
<title>Node15</title>
<g id="a_Node000015"><a xlink:href="../../d0/d1f/vkstAlignment_8hpp.html" target="_top" xlink:title=" ">
<polygon fill="white" stroke="#666666" points="487.5,-74 380.5,-74 380.5,-55 487.5,-55 487.5,-74"/>
<text text-anchor="middle" x="434" y="-62" font-family="Helvetica,sans-Serif" font-size="10.00">../vkstAlignment.hpp</text>
</a>
</g>
</g>
<!-- Node3&#45;&gt;Node15 -->
<g id="edge22_Node000003_Node000015" class="edge">
<title>Node3&#45;&gt;Node15</title>
<g id="a_edge22_Node000003_Node000015"><a xlink:title=" ">
<path fill="none" stroke="#63b8ff" d="M399.66,-175.94C405.61,-156.82 420.08,-110.27 428.21,-84.12"/>
<polygon fill="#63b8ff" stroke="#63b8ff" points="431.64,-84.89 431.26,-74.3 424.95,-82.81 431.64,-84.89"/>
</a>
</g>
</g>
<!-- Node5&#45;&gt;Node4 -->
<g id="edge5_Node000005_Node000004" class="edge">
<title>Node5&#45;&gt;Node4</title>
<g id="a_edge5_Node000005_Node000004"><a xlink:title=" ">
<path fill="none" stroke="#63b8ff" d="M166.45,-115.49C197.2,-105.21 249.03,-87.89 282.88,-76.57"/>
<polygon fill="#63b8ff" stroke="#63b8ff" points="284.39,-79.76 292.76,-73.27 282.17,-73.12 284.39,-79.76"/>
</a>
</g>
</g>
<!-- Node6 -->
<g id="Node000006" class="node">
<title>Node6</title>
<g id="a_Node000006"><a xlink:title=" ">
<polygon fill="#e0e0e0" stroke="#999999" points="214,-74 162,-74 162,-55 214,-55 214,-74"/>
<text text-anchor="middle" x="188" y="-62" font-family="Helvetica,sans-Serif" font-size="10.00">sstream</text>
</a>
</g>
</g>
<!-- Node5&#45;&gt;Node6 -->
<g id="edge6_Node000005_Node000006" class="edge">
<title>Node5&#45;&gt;Node6</title>
<g id="a_edge6_Node000005_Node000006"><a xlink:title=" ">
<path fill="none" stroke="#63b8ff" d="M147.94,-115.37C154.95,-106.64 165.96,-92.93 174.67,-82.09"/>
<polygon fill="#63b8ff" stroke="#63b8ff" points="177.5,-84.16 181.04,-74.17 172.04,-79.77 177.5,-84.16"/>
</a>
</g>
</g>
<!-- Node7 -->
<g id="Node000007" class="node">
<title>Node7</title>
<g id="a_Node000007"><a xlink:href="../../d4/d45/vkstLogging_8hpp.html" target="_top" xlink:title=" ">
<polygon fill="white" stroke="#666666" points="143.5,-74 46.5,-74 46.5,-55 143.5,-55 143.5,-74"/>
<text text-anchor="middle" x="95" y="-62" font-family="Helvetica,sans-Serif" font-size="10.00">../vkstLogging.hpp</text>
</a>
</g>
</g>
<!-- Node5&#45;&gt;Node7 -->
<g id="edge7_Node000005_Node000007" class="edge">
<title>Node5&#45;&gt;Node7</title>
<g id="a_edge7_Node000005_Node000007"><a xlink:title=" ">
<path fill="none" stroke="#63b8ff" d="M134.21,-115.37C127.35,-106.64 116.57,-92.93 108.05,-82.09"/>
<polygon fill="#63b8ff" stroke="#63b8ff" points="110.75,-79.86 101.82,-74.17 105.25,-84.19 110.75,-79.86"/>
</a>
</g>
</g>
<!-- Node8 -->
<g id="Node000008" class="node">
<title>Node8</title>
<g id="a_Node000008"><a xlink:title=" ">
<polygon fill="#e0e0e0" stroke="#999999" points="54,-19 0,-19 0,0 54,0 54,-19"/>
<text text-anchor="middle" x="27" y="-7" font-family="Helvetica,sans-Serif" font-size="10.00">iostream</text>
</a>
</g>
</g>
<!-- Node7&#45;&gt;Node8 -->
<g id="edge8_Node000007_Node000008" class="edge">
<title>Node7&#45;&gt;Node8</title>
<g id="a_edge8_Node000007_Node000008"><a xlink:title=" ">
<path fill="none" stroke="#63b8ff" d="M84.07,-54.98C73.92,-47.07 58.58,-35.11 46.35,-25.58"/>
<polygon fill="#63b8ff" stroke="#63b8ff" points="48.16,-22.56 38.12,-19.17 43.86,-28.08 48.16,-22.56"/>
</a>
</g>
</g>
<!-- Node9 -->
<g id="Node000009" class="node">
<title>Node9</title>
<g id="a_Node000009"><a xlink:title=" ">
<polygon fill="#e0e0e0" stroke="#999999" points="118,-19 72,-19 72,0 118,0 118,-19"/>
<text text-anchor="middle" x="95" y="-7" font-family="Helvetica,sans-Serif" font-size="10.00">atomic</text>
</a>
</g>
</g>
<!-- Node7&#45;&gt;Node9 -->
<g id="edge9_Node000007_Node000009" class="edge">
<title>Node7&#45;&gt;Node9</title>
<g id="a_edge9_Node000007_Node000009"><a xlink:title=" ">
<path fill="none" stroke="#63b8ff" d="M95,-54.75C95,-47.8 95,-37.85 95,-29.13"/>
<polygon fill="#63b8ff" stroke="#63b8ff" points="98.5,-29.09 95,-19.09 91.5,-29.09 98.5,-29.09"/>
</a>
</g>
</g>
<!-- Node10 -->
<g id="Node000010" class="node">
<title>Node10</title>
<g id="a_Node000010"><a xlink:title=" ">
<polygon fill="#e0e0e0" stroke="#999999" points="180,-19 136,-19 136,0 180,0 180,-19"/>
<text text-anchor="middle" x="158" y="-7" font-family="Helvetica,sans-Serif" font-size="10.00">mutex</text>
</a>
</g>
</g>
<!-- Node7&#45;&gt;Node10 -->
<g id="edge10_Node000007_Node000010" class="edge">
<title>Node7&#45;&gt;Node10</title>
<g id="a_edge10_Node000007_Node000010"><a xlink:title=" ">
<path fill="none" stroke="#63b8ff" d="M105.12,-54.98C114.44,-47.15 128.47,-35.34 139.74,-25.86"/>
<polygon fill="#63b8ff" stroke="#63b8ff" points="142.29,-28.29 147.69,-19.17 137.79,-22.93 142.29,-28.29"/>
</a>
</g>
</g>
<!-- Node11&#45;&gt;Node4 -->
<g id="edge12_Node000011_Node000004" class="edge">
<title>Node11&#45;&gt;Node4</title>
<g id="a_edge12_Node000011_Node000004"><a xlink:title=" ">
<path fill="none" stroke="#63b8ff" d="M491.19,-115.49C453.29,-104.68 388.08,-86.07 348.8,-74.86"/>
<polygon fill="#63b8ff" stroke="#63b8ff" points="349.74,-71.49 339.17,-72.11 347.82,-78.22 349.74,-71.49"/>
</a>
</g>
</g>
<!-- Node12 -->
<g id="Node000012" class="node">
<title>Node12</title>
<g id="a_Node000012"><a xlink:title=" ">
<polygon fill="#e0e0e0" stroke="#999999" points="577,-19 515,-19 515,0 577,0 577,-19"/>
<text text-anchor="middle" x="546" y="-7" font-family="Helvetica,sans-Serif" font-size="10.00">type_traits</text>
</a>
</g>
</g>
<!-- Node11&#45;&gt;Node12 -->
<g id="edge13_Node000011_Node000012" class="edge">
<title>Node11&#45;&gt;Node12</title>
<g id="a_edge13_Node000011_Node000012"><a xlink:title=" ">
<path fill="none" stroke="#63b8ff" d="M522.88,-115.47C526.9,-97.23 536.4,-54.07 541.89,-29.14"/>
<polygon fill="#63b8ff" stroke="#63b8ff" points="545.37,-29.65 544.1,-19.13 538.53,-28.14 545.37,-29.65"/>
</a>
</g>
</g>
<!-- Node13 -->
<g id="Node000013" class="node">
<title>Node13</title>
<g id="a_Node000013"><a xlink:title=" ">
<polygon fill="#e0e0e0" stroke="#999999" points="591.5,-74 546.5,-74 546.5,-55 591.5,-55 591.5,-74"/>
<text text-anchor="middle" x="569" y="-62" font-family="Helvetica,sans-Serif" font-size="10.00">cstdlib</text>
</a>
</g>
</g>
<!-- Node11&#45;&gt;Node13 -->
<g id="edge14_Node000011_Node000013" class="edge">
<title>Node11&#45;&gt;Node13</title>
<g id="a_edge14_Node000011_Node000013"><a xlink:title=" ">
<path fill="none" stroke="#63b8ff" d="M528.08,-115.37C535.24,-106.64 546.49,-92.93 555.39,-82.09"/>
<polygon fill="#63b8ff" stroke="#63b8ff" points="558.25,-84.12 561.89,-74.17 552.84,-79.68 558.25,-84.12"/>
</a>
</g>
</g>
<!-- Node14 -->
<g id="Node000014" class="node">
<title>Node14</title>
<g id="a_Node000014"><a xlink:title=" ">
<polygon fill="#e0e0e0" stroke="#999999" points="662,-74 610,-74 610,-55 662,-55 662,-74"/>
<text text-anchor="middle" x="636" y="-62" font-family="Helvetica,sans-Serif" font-size="10.00">memory</text>
</a>
</g>
</g>
<!-- Node11&#45;&gt;Node14 -->
<g id="edge15_Node000011_Node000014" class="edge">
<title>Node11&#45;&gt;Node14</title>
<g id="a_edge15_Node000011_Node000014"><a xlink:title=" ">
<path fill="none" stroke="#63b8ff" d="M537.97,-115.37C556.91,-105.73 587.79,-90.03 609.83,-78.81"/>
<polygon fill="#63b8ff" stroke="#63b8ff" points="611.64,-81.82 618.96,-74.17 608.46,-75.58 611.64,-81.82"/>
</a>
</g>
</g>
<!-- Node11&#45;&gt;Node15 -->
<g id="edge16_Node000011_Node000015" class="edge">
<title>Node11&#45;&gt;Node15</title>
<g id="a_edge16_Node000011_Node000015"><a xlink:title=" ">
<path fill="none" stroke="#63b8ff" d="M508.16,-115.37C494.28,-106.04 471.93,-91.01 455.39,-79.88"/>
<polygon fill="#63b8ff" stroke="#63b8ff" points="457.14,-76.84 446.89,-74.17 453.24,-82.65 457.14,-76.84"/>
</a>
</g>
</g>
<!-- Node15&#45;&gt;Node12 -->
<g id="edge21_Node000015_Node000012" class="edge">
<title>Node15&#45;&gt;Node12</title>
<g id="a_edge21_Node000015_Node000012"><a xlink:title=" ">
<path fill="none" stroke="#63b8ff" d="M451.99,-54.98C469.93,-46.5 497.72,-33.35 518.43,-23.54"/>
<polygon fill="#63b8ff" stroke="#63b8ff" points="520.14,-26.61 527.68,-19.17 517.14,-20.28 520.14,-26.61"/>
</a>
</g>
</g>
<!-- Node16 -->
<g id="Node000016" class="node">
<title>Node16</title>
<g id="a_Node000016"><a xlink:title=" ">
<polygon fill="#e0e0e0" stroke="#999999" points="363,-19 311,-19 311,0 363,0 363,-19"/>
<text text-anchor="middle" x="337" y="-7" font-family="Helvetica,sans-Serif" font-size="10.00">stddef.h</text>
</a>
</g>
</g>
<!-- Node15&#45;&gt;Node16 -->
<g id="edge17_Node000015_Node000016" class="edge">
<title>Node15&#45;&gt;Node16</title>
<g id="a_edge17_Node000015_Node000016"><a xlink:title=" ">
<path fill="none" stroke="#63b8ff" d="M418.42,-54.98C403.23,-46.69 379.9,-33.94 362.1,-24.22"/>
<polygon fill="#63b8ff" stroke="#63b8ff" points="363.32,-20.89 352.87,-19.17 359.97,-27.04 363.32,-20.89"/>
</a>
</g>
</g>
<!-- Node17 -->
<g id="Node000017" class="node">
<title>Node17</title>
<g id="a_Node000017"><a xlink:title=" ">
<polygon fill="#e0e0e0" stroke="#999999" points="430.5,-19 381.5,-19 381.5,0 430.5,0 430.5,-19"/>
<text text-anchor="middle" x="406" y="-7" font-family="Helvetica,sans-Serif" font-size="10.00">stdint.h</text>
</a>
</g>
</g>
<!-- Node15&#45;&gt;Node17 -->
<g id="edge18_Node000015_Node000017" class="edge">
<title>Node15&#45;&gt;Node17</title>
<g id="a_edge18_Node000015_Node000017"><a xlink:title=" ">
<path fill="none" stroke="#63b8ff" d="M429.38,-54.75C425.54,-47.49 419.98,-36.95 415.24,-27.98"/>
<polygon fill="#63b8ff" stroke="#63b8ff" points="418.3,-26.3 410.54,-19.09 412.11,-29.57 418.3,-26.3"/>
</a>
</g>
</g>
<!-- Node18 -->
<g id="Node000018" class="node">
<title>Node18</title>
<g id="a_Node000018"><a xlink:title=" ">
<polygon fill="#e0e0e0" stroke="#999999" points="497,-19 449,-19 449,0 497,0 497,-19"/>
<text text-anchor="middle" x="473" y="-7" font-family="Helvetica,sans-Serif" font-size="10.00">limits.h</text>
</a>
</g>
</g>
<!-- Node15&#45;&gt;Node18 -->
<g id="edge19_Node000015_Node000018" class="edge">
<title>Node15&#45;&gt;Node18</title>
<g id="a_edge19_Node000015_Node000018"><a xlink:title=" ">
<path fill="none" stroke="#63b8ff" d="M440.44,-54.75C445.89,-47.34 453.86,-36.5 460.56,-27.41"/>
<polygon fill="#63b8ff" stroke="#63b8ff" points="463.57,-29.22 466.68,-19.09 457.93,-25.07 463.57,-29.22"/>
</a>
</g>
</g>
<!-- Node19 -->
<g id="Node000019" class="node">
<title>Node19</title>
<g id="a_Node000019"><a xlink:title=" ">
<polygon fill="#e0e0e0" stroke="#999999" points="292.5,-19 233.5,-19 233.5,0 292.5,0 292.5,-19"/>
<text text-anchor="middle" x="263" y="-7" font-family="Helvetica,sans-Serif" font-size="10.00">stdalign.h</text>
</a>
</g>
</g>
<!-- Node15&#45;&gt;Node19 -->
<g id="edge20_Node000015_Node000019" class="edge">
<title>Node15&#45;&gt;Node19</title>
<g id="a_edge20_Node000015_Node000019"><a xlink:title=" ">
<path fill="none" stroke="#63b8ff" d="M406.53,-54.98C377.82,-46.09 332.58,-32.07 300.58,-22.15"/>
<polygon fill="#63b8ff" stroke="#63b8ff" points="301.28,-18.7 290.69,-19.08 299.2,-25.39 301.28,-18.7"/>
</a>
</g>
</g>
<!-- Node20&#45;&gt;Node11 -->
<g id="edge24_Node000020_Node000011" class="edge">
<title>Node20&#45;&gt;Node11</title>
<g id="a_edge24_Node000020_Node000011"><a xlink:title=" ">
<path fill="none" stroke="#63b8ff" d="M566.18,-175.87C558.19,-167.05 545.61,-153.16 535.74,-142.27"/>
<polygon fill="#63b8ff" stroke="#63b8ff" points="538.16,-139.73 528.85,-134.67 532.97,-144.43 538.16,-139.73"/>
</a>
</g>
</g>
<!-- Node21&#45;&gt;Node4 -->
<g id="edge26_Node000021_Node000004" class="edge">
<title>Node21&#45;&gt;Node4</title>
<g id="a_edge26_Node000021_Node000004"><a xlink:title=" ">
<path fill="none" stroke="#63b8ff" d="M297.81,-109.84C301.04,-101.95 305.11,-92.05 308.57,-83.61"/>
<polygon fill="#63b8ff" stroke="#63b8ff" points="311.85,-84.85 312.4,-74.27 305.37,-82.19 311.85,-84.85"/>
</a>
</g>
</g>
</g>
</svg>
