<?xml version="1.0" encoding="UTF-8" standalone="no"?>
<!DOCTYPE svg PUBLIC "-//W3C//DTD SVG 1.1//EN"
 "http://www.w3.org/Graphics/SVG/1.1/DTD/svg11.dtd">
<!-- Generated by graphviz version 2.42.4 (0)
 -->
<!-- Title: include/vkstLogging.hpp Pages: 1 -->
<svg width="361pt" height="390pt"
 viewBox="0.00 0.00 361.00 390.00" xmlns="http://www.w3.org/2000/svg" xmlns:xlink="http://www.w3.org/1999/xlink">
<g id="graph0" class="graph" transform="scale(1 1) rotate(0) translate(4 386)">
<title>include/vkstLogging.hpp</title>
<!-- Node1 -->
<g id="Node000001" class="node">
<title>Node1</title>
<g id="a_Node000001"><a xlink:title=" ">
<polygon fill="#999999" stroke="#666666" points="256.5,-382 134.5,-382 134.5,-363 256.5,-363 256.5,-382"/>
<text text-anchor="middle" x="195.5" y="-370" font-family="Helvetica,sans-Serif" font-size="10.00">include/vkstLogging.hpp</text>
</a>
</g>
</g>
<!-- Node2 -->
<g id="Node000002" class="node">
<title>Node2</title>
<g id="a_Node000002"><a xlink:href="../../d1/d72/vkstAllocatorFilter_8hpp.html" target="_top" xlink:title=" ">
<polygon fill="white" stroke="#666666" points="149,-327 0,-327 0,-297 149,-297 149,-327"/>
<text text-anchor="start" x="8" y="-315" font-family="Helvetica,sans-Serif" font-size="10.00">include/Allocator/vkstAllocator</text>
<text text-anchor="middle" x="74.5" y="-304" font-family="Helvetica,sans-Serif" font-size="10.00">Filter.hpp</text>
</a>
</g>
</g>
<!-- Node1&#45;&gt;Node2 -->
<g id="edge1_Node000001_Node000002" class="edge">
<title>Node1&#45;&gt;Node2</title>
<g id="a_edge1_Node000001_Node000002"><a xlink:title=" ">
<path fill="none" stroke="#63b8ff" d="M168.8,-358.59C149.57,-349.29 123.63,-336.75 103.82,-327.18"/>
<polygon fill="#63b8ff" stroke="#63b8ff" points="167.38,-361.79 177.91,-362.99 170.43,-355.49 167.38,-361.79"/>
</a>
</g>
</g>
<!-- Node6 -->
<g id="Node000006" class="node">
<title>Node6</title>
<g id="a_Node000006"><a xlink:href="../../da/dc8/vkstBuffer_8hpp.html" target="_top" xlink:title=" ">
<polygon fill="white" stroke="#666666" points="233,-74 120,-74 120,-55 233,-55 233,-74"/>
<text text-anchor="middle" x="176.5" y="-62" font-family="Helvetica,sans-Serif" font-size="10.00">include/vkstBuffer.hpp</text>
</a>
</g>
</g>
<!-- Node1&#45;&gt;Node6 -->
<g id="edge7_Node000001_Node000006" class="edge">
<title>Node1&#45;&gt;Node6</title>
<g id="a_edge7_Node000001_Node000006"><a xlink:title=" ">
<path fill="none" stroke="#63b8ff" d="M190.85,-352.87C185.23,-328.65 176.5,-284.94 176.5,-247 176.5,-247 176.5,-247 176.5,-179 176.5,-139.79 176.5,-92.95 176.5,-74.04"/>
<polygon fill="#63b8ff" stroke="#63b8ff" points="187.5,-353.91 193.25,-362.81 194.31,-352.27 187.5,-353.91"/>
</a>
</g>
</g>
<!-- Node8 -->
<g id="Node000008" class="node">
<title>Node8</title>
<g id="a_Node000008"><a xlink:href="../../de/d1d/vkstOpenCLBuffer_8hpp.html" target="_top" xlink:title=" ">
<polygon fill="white" stroke="#666666" points="353,-255.5 204,-255.5 204,-236.5 353,-236.5 353,-255.5"/>
<text text-anchor="middle" x="278.5" y="-243.5" font-family="Helvetica,sans-Serif" font-size="10.00">include/vkstOpenCLBuffer.hpp</text>
</a>
</g>
</g>
<!-- Node1&#45;&gt;Node8 -->
<g id="edge8_Node000001_Node000008" class="edge">
<title>Node1&#45;&gt;Node8</title>
<g id="a_edge8_Node000001_Node000008"><a xlink:title=" ">
<path fill="none" stroke="#63b8ff" d="M203.15,-353.34C210.07,-337.78 221.07,-315.08 233.5,-297 244.35,-281.22 259.77,-265.14 269.45,-255.62"/>
<polygon fill="#63b8ff" stroke="#63b8ff" points="199.8,-352.26 199.04,-362.83 206.22,-355.04 199.8,-352.26"/>
</a>
</g>
</g>
<!-- Node9 -->
<g id="Node000009" class="node">
<title>Node9</title>
<g id="a_Node000009"><a xlink:href="../../d0/d76/vkstLogging_8cpp.html" target="_top" xlink:title=" ">
<polygon fill="white" stroke="#666666" points="346.5,-321.5 242.5,-321.5 242.5,-302.5 346.5,-302.5 346.5,-321.5"/>
<text text-anchor="middle" x="294.5" y="-309.5" font-family="Helvetica,sans-Serif" font-size="10.00">src/vkstLogging.cpp</text>
</a>
</g>
</g>
<!-- Node1&#45;&gt;Node9 -->
<g id="edge10_Node000001_Node000009" class="edge">
<title>Node1&#45;&gt;Node9</title>
<g id="a_edge10_Node000001_Node000009"><a xlink:title=" ">
<path fill="none" stroke="#63b8ff" d="M218.73,-357.77C237.63,-346.6 263.72,-331.19 279.83,-321.67"/>
<polygon fill="#63b8ff" stroke="#63b8ff" points="216.94,-354.77 210.11,-362.87 220.5,-360.79 216.94,-354.77"/>
</a>
</g>
</g>
<!-- Node3 -->
<g id="Node000003" class="node">
<title>Node3</title>
<g id="a_Node000003"><a xlink:href="../../d0/dd1/vkstAllocatorBase_8hpp.html" target="_top" xlink:title=" ">
<polygon fill="white" stroke="#666666" points="149,-261 0,-261 0,-231 149,-231 149,-261"/>
<text text-anchor="start" x="8" y="-249" font-family="Helvetica,sans-Serif" font-size="10.00">include/Allocator/vkstAllocator</text>
<text text-anchor="middle" x="74.5" y="-238" font-family="Helvetica,sans-Serif" font-size="10.00">Base.hpp</text>
</a>
</g>
</g>
<!-- Node2&#45;&gt;Node3 -->
<g id="edge2_Node000002_Node000003" class="edge">
<title>Node2&#45;&gt;Node3</title>
<g id="a_edge2_Node000002_Node000003"><a xlink:title=" ">
<path fill="none" stroke="#63b8ff" d="M74.5,-286.54C74.5,-277.96 74.5,-268.61 74.5,-261.16"/>
<polygon fill="#63b8ff" stroke="#63b8ff" points="71,-286.8 74.5,-296.8 78,-286.8 71,-286.8"/>
</a>
</g>
</g>
<!-- Node4 -->
<g id="Node000004" class="node">
<title>Node4</title>
<g id="a_Node000004"><a xlink:href="../../d5/d82/vkstMallocAllocator_8hpp.html" target="_top" xlink:title=" ">
<polygon fill="white" stroke="#666666" points="146,-195 7,-195 7,-165 146,-165 146,-195"/>
<text text-anchor="start" x="15" y="-183" font-family="Helvetica,sans-Serif" font-size="10.00">include/Allocator/vkstMalloc</text>
<text text-anchor="middle" x="76.5" y="-172" font-family="Helvetica,sans-Serif" font-size="10.00">Allocator.hpp</text>
</a>
</g>
</g>
<!-- Node3&#45;&gt;Node4 -->
<g id="edge3_Node000003_Node000004" class="edge">
<title>Node3&#45;&gt;Node4</title>
<g id="a_edge3_Node000003_Node000004"><a xlink:title=" ">
<path fill="none" stroke="#63b8ff" d="M75.26,-220.54C75.53,-211.96 75.82,-202.61 76.06,-195.16"/>
<polygon fill="#63b8ff" stroke="#63b8ff" points="71.76,-220.69 74.94,-230.8 78.75,-220.91 71.76,-220.69"/>
</a>
</g>
</g>
<!-- Node5 -->
<g id="Node000005" class="node">
<title>Node5</title>
<g id="a_Node000005"><a xlink:href="../../dd/d2c/vkstAllocator_8hpp.html" target="_top" xlink:title=" ">
<polygon fill="white" stroke="#666666" points="144,-129 19,-129 19,-110 144,-110 144,-129"/>
<text text-anchor="middle" x="81.5" y="-117" font-family="Helvetica,sans-Serif" font-size="10.00">include/vkstAllocator.hpp</text>
</a>
</g>
</g>
<!-- Node4&#45;&gt;Node5 -->
<g id="edge4_Node000004_Node000005" class="edge">
<title>Node4&#45;&gt;Node5</title>
<g id="a_edge4_Node000004_Node000005"><a xlink:title=" ">
<path fill="none" stroke="#63b8ff" d="M78.57,-154.75C79.34,-145.72 80.17,-136.03 80.75,-129.27"/>
<polygon fill="#63b8ff" stroke="#63b8ff" points="75.07,-154.58 77.71,-164.84 82.05,-155.17 75.07,-154.58"/>
</a>
</g>
</g>
<!-- Node5&#45;&gt;Node6 -->
<g id="edge5_Node000005_Node000006" class="edge">
<title>Node5&#45;&gt;Node6</title>
<g id="a_edge5_Node000005_Node000006"><a xlink:title=" ">
<path fill="none" stroke="#63b8ff" d="M105.76,-104.97C123.13,-95.28 145.99,-82.52 160.96,-74.17"/>
<polygon fill="#63b8ff" stroke="#63b8ff" points="103.79,-102.06 96.76,-109.98 107.2,-108.17 103.79,-102.06"/>
</a>
</g>
</g>
<!-- Node7 -->
<g id="Node000007" class="node">
<title>Node7</title>
<g id="a_Node000007"><a xlink:href="../../d4/d2f/libvkst_8hpp.html" target="_top" xlink:title=" ">
<polygon fill="white" stroke="#666666" points="267.5,-19 169.5,-19 169.5,0 267.5,0 267.5,-19"/>
<text text-anchor="middle" x="218.5" y="-7" font-family="Helvetica,sans-Serif" font-size="10.00">include/libvkst.hpp</text>
</a>
</g>
</g>
<!-- Node6&#45;&gt;Node7 -->
<g id="edge6_Node000006_Node000007" class="edge">
<title>Node6&#45;&gt;Node7</title>
<g id="a_edge6_Node000006_Node000007"><a xlink:title=" ">
<path fill="none" stroke="#63b8ff" d="M189.83,-46.67C197.11,-37.5 205.8,-26.52 211.69,-19.09"/>
<polygon fill="#63b8ff" stroke="#63b8ff" points="186.9,-44.74 183.44,-54.75 192.39,-49.08 186.9,-44.74"/>
</a>
</g>
</g>
<!-- Node8&#45;&gt;Node7 -->
<g id="edge9_Node000008_Node000007" class="edge">
<title>Node8&#45;&gt;Node7</title>
<g id="a_edge9_Node000008_Node000007"><a xlink:title=" ">
<path fill="none" stroke="#63b8ff" d="M276.88,-226.36C273.46,-191.75 263.98,-115.55 242.5,-55 237.86,-41.93 229.81,-28.04 224.32,-19.32"/>
<polygon fill="#63b8ff" stroke="#63b8ff" points="273.41,-226.79 277.82,-236.42 280.38,-226.14 273.41,-226.79"/>
</a>
</g>
</g>
</g>
</svg>
