<?xml version="1.0" encoding="UTF-8" standalone="no"?>
<!DOCTYPE svg PUBLIC "-//W3C//DTD SVG 1.1//EN"
 "http://www.w3.org/Graphics/SVG/1.1/DTD/svg11.dtd">
<!-- Generated by graphviz version 2.42.4 (0)
 -->
<!-- Title: include/vkstOpenCLBuffer.hpp Pages: 1 -->
<svg width="863pt" height="368pt"
 viewBox="0.00 0.00 862.50 368.00" xmlns="http://www.w3.org/2000/svg" xmlns:xlink="http://www.w3.org/1999/xlink">
<g id="graph0" class="graph" transform="scale(1 1) rotate(0) translate(4 364)">
<title>include/vkstOpenCLBuffer.hpp</title>
<!-- Node1 -->
<g id="Node000001" class="node">
<title>Node1</title>
<g id="a_Node000001"><a xlink:title=" ">
<polygon fill="#999999" stroke="#666666" points="219.5,-360 70.5,-360 70.5,-341 219.5,-341 219.5,-360"/>
<text text-anchor="middle" x="145" y="-348" font-family="Helvetica,sans-Serif" font-size="10.00">include/vkstOpenCLBuffer.hpp</text>
</a>
</g>
</g>
<!-- Node2 -->
<g id="Node000002" class="node">
<title>Node2</title>
<g id="a_Node000002"><a xlink:title=" ">
<polygon fill="#e0e0e0" stroke="#999999" points="48,-305 0,-305 0,-286 48,-286 48,-305"/>
<text text-anchor="middle" x="24" y="-293" font-family="Helvetica,sans-Serif" font-size="10.00">CL/cl.h</text>
</a>
</g>
</g>
<!-- Node1&#45;&gt;Node2 -->
<g id="edge1_Node000001_Node000002" class="edge">
<title>Node1&#45;&gt;Node2</title>
<g id="a_edge1_Node000001_Node000002"><a xlink:title=" ">
<path fill="none" stroke="#63b8ff" d="M125.56,-340.98C106.01,-332.42 75.62,-319.11 53.18,-309.28"/>
<polygon fill="#63b8ff" stroke="#63b8ff" points="54.36,-305.98 43.79,-305.17 51.55,-312.39 54.36,-305.98"/>
</a>
</g>
</g>
<!-- Node3 -->
<g id="Node000003" class="node">
<title>Node3</title>
<g id="a_Node000003"><a xlink:title=" ">
<polygon fill="#e0e0e0" stroke="#999999" points="104,-19 58,-19 58,0 104,0 104,-19"/>
<text text-anchor="middle" x="81" y="-7" font-family="Helvetica,sans-Serif" font-size="10.00">atomic</text>
</a>
</g>
</g>
<!-- Node1&#45;&gt;Node3 -->
<g id="edge2_Node000001_Node000003" class="edge">
<title>Node1&#45;&gt;Node3</title>
<g id="a_edge2_Node000001_Node000003"><a xlink:title=" ">
<path fill="none" stroke="#63b8ff" d="M134.52,-340.9C115.22,-324.02 76,-284.44 76,-241.5 76,-241.5 76,-241.5 76,-124 76,-90.58 78.19,-51.67 79.67,-29.18"/>
<polygon fill="#63b8ff" stroke="#63b8ff" points="83.18,-29.25 80.37,-19.04 76.19,-28.77 83.18,-29.25"/>
</a>
</g>
</g>
<!-- Node4 -->
<g id="Node000004" class="node">
<title>Node4</title>
<g id="a_Node000004"><a xlink:title=" ">
<polygon fill="#e0e0e0" stroke="#999999" points="247,-19 203,-19 203,0 247,0 247,-19"/>
<text text-anchor="middle" x="225" y="-7" font-family="Helvetica,sans-Serif" font-size="10.00">mutex</text>
</a>
</g>
</g>
<!-- Node1&#45;&gt;Node4 -->
<g id="edge3_Node000001_Node000004" class="edge">
<title>Node1&#45;&gt;Node4</title>
<g id="a_edge3_Node000001_Node000004"><a xlink:title=" ">
<path fill="none" stroke="#63b8ff" d="M155.48,-340.9C174.78,-324.02 214,-284.44 214,-241.5 214,-241.5 214,-241.5 214,-184.5 214,-127.89 219.87,-61.12 223.04,-29.26"/>
<polygon fill="#63b8ff" stroke="#63b8ff" points="226.53,-29.48 224.06,-19.18 219.57,-28.77 226.53,-29.48"/>
</a>
</g>
</g>
<!-- Node5 -->
<g id="Node000005" class="node">
<title>Node5</title>
<g id="a_Node000005"><a xlink:href="../../da/dc8/vkstBuffer_8hpp.html" target="_top" xlink:title=" ">
<polygon fill="white" stroke="#666666" points="424,-305 344,-305 344,-286 424,-286 424,-305"/>
<text text-anchor="middle" x="384" y="-293" font-family="Helvetica,sans-Serif" font-size="10.00">vkstBuffer.hpp</text>
</a>
</g>
</g>
<!-- Node1&#45;&gt;Node5 -->
<g id="edge4_Node000001_Node000005" class="edge">
<title>Node1&#45;&gt;Node5</title>
<g id="a_edge4_Node000001_Node000005"><a xlink:title=" ">
<path fill="none" stroke="#63b8ff" d="M183.4,-340.98C224.74,-331.82 290.6,-317.21 335.49,-307.26"/>
<polygon fill="#63b8ff" stroke="#63b8ff" points="336.29,-310.66 345.3,-305.08 334.78,-303.83 336.29,-310.66"/>
</a>
</g>
</g>
<!-- Node6 -->
<g id="Node000006" class="node">
<title>Node6</title>
<g id="a_Node000006"><a xlink:title=" ">
<polygon fill="#e0e0e0" stroke="#999999" points="445,-74 399,-74 399,-55 445,-55 445,-74"/>
<text text-anchor="middle" x="422" y="-62" font-family="Helvetica,sans-Serif" font-size="10.00">stdio.h</text>
</a>
</g>
</g>
<!-- Node5&#45;&gt;Node6 -->
<g id="edge5_Node000005_Node000006" class="edge">
<title>Node5&#45;&gt;Node6</title>
<g id="a_edge5_Node000005_Node000006"><a xlink:title=" ">
<path fill="none" stroke="#63b8ff" d="M385.35,-285.87C388.42,-266.31 396.17,-217.11 403,-176 408.38,-143.62 414.91,-105.96 418.75,-84.02"/>
<polygon fill="#63b8ff" stroke="#63b8ff" points="422.21,-84.54 420.49,-74.09 415.32,-83.34 422.21,-84.54"/>
</a>
</g>
</g>
<!-- Node7 -->
<g id="Node000007" class="node">
<title>Node7</title>
<g id="a_Node000007"><a xlink:title=" ">
<polygon fill="#e0e0e0" stroke="#999999" points="659,-250 607,-250 607,-231 659,-231 659,-250"/>
<text text-anchor="middle" x="633" y="-238" font-family="Helvetica,sans-Serif" font-size="10.00">assert.h</text>
</a>
</g>
</g>
<!-- Node5&#45;&gt;Node7 -->
<g id="edge6_Node000005_Node000007" class="edge">
<title>Node5&#45;&gt;Node7</title>
<g id="a_edge6_Node000005_Node000007"><a xlink:title=" ">
<path fill="none" stroke="#63b8ff" d="M424.32,-286.53C465.3,-278.34 530.86,-264.98 596.54,-250.27"/>
<polygon fill="#63b8ff" stroke="#63b8ff" points="597.66,-253.61 606.65,-248 596.12,-246.78 597.66,-253.61"/>
</a>
</g>
</g>
<!-- Node8 -->
<g id="Node000008" class="node">
<title>Node8</title>
<g id="a_Node000008"><a xlink:href="../../dd/d2c/vkstAllocator_8hpp.html" target="_top" xlink:title=" ">
<polygon fill="white" stroke="#666666" points="589,-250 497,-250 497,-231 589,-231 589,-250"/>
<text text-anchor="middle" x="543" y="-238" font-family="Helvetica,sans-Serif" font-size="10.00">vkstAllocator.hpp</text>
</a>
</g>
</g>
<!-- Node5&#45;&gt;Node8 -->
<g id="edge7_Node000005_Node000008" class="edge">
<title>Node5&#45;&gt;Node8</title>
<g id="a_edge7_Node000005_Node000008"><a xlink:title=" ">
<path fill="none" stroke="#63b8ff" d="M409.55,-285.98C436.12,-277.13 477.94,-263.19 507.67,-253.28"/>
<polygon fill="#63b8ff" stroke="#63b8ff" points="508.87,-256.56 517.25,-250.08 506.66,-249.92 508.87,-256.56"/>
</a>
</g>
</g>
<!-- Node13 -->
<g id="Node000013" class="node">
<title>Node13</title>
<g id="a_Node000013"><a xlink:href="../../d4/d45/vkstLogging_8hpp.html" target="_top" xlink:title=" ">
<polygon fill="white" stroke="#666666" points="201.5,-74 104.5,-74 104.5,-55 201.5,-55 201.5,-74"/>
<text text-anchor="middle" x="153" y="-62" font-family="Helvetica,sans-Serif" font-size="10.00">../vkstLogging.hpp</text>
</a>
</g>
</g>
<!-- Node5&#45;&gt;Node13 -->
<g id="edge34_Node000005_Node000013" class="edge">
<title>Node5&#45;&gt;Node13</title>
<g id="a_edge34_Node000005_Node000013"><a xlink:title=" ">
<path fill="none" stroke="#63b8ff" d="M371.23,-285.9C339.57,-264.15 255.95,-204.11 200,-140 184.66,-122.42 170.91,-99.33 162.3,-83.55"/>
<polygon fill="#63b8ff" stroke="#63b8ff" points="165.21,-81.55 157.43,-74.36 159.02,-84.83 165.21,-81.55"/>
</a>
</g>
</g>
<!-- Node9 -->
<g id="Node000009" class="node">
<title>Node9</title>
<g id="a_Node000009"><a xlink:title=" ">
<polygon fill="#e0e0e0" stroke="#999999" points="854.5,-195 803.5,-195 803.5,-176 854.5,-176 854.5,-195"/>
<text text-anchor="middle" x="829" y="-183" font-family="Helvetica,sans-Serif" font-size="10.00">config.h</text>
</a>
</g>
</g>
<!-- Node8&#45;&gt;Node9 -->
<g id="edge8_Node000008_Node000009" class="edge">
<title>Node8&#45;&gt;Node9</title>
<g id="a_edge8_Node000008_Node000009"><a xlink:title=" ">
<path fill="none" stroke="#63b8ff" d="M589.17,-232.34C637.77,-224.59 716.71,-211.37 793.58,-195.19"/>
<polygon fill="#63b8ff" stroke="#63b8ff" points="794.37,-198.6 803.42,-193.1 792.92,-191.75 794.37,-198.6"/>
</a>
</g>
</g>
<!-- Node10 -->
<g id="Node000010" class="node">
<title>Node10</title>
<g id="a_Node000010"><a xlink:href="../../d0/dd1/vkstAllocatorBase_8hpp.html" target="_top" xlink:title=" ">
<polygon fill="white" stroke="#666666" points="568,-195 412,-195 412,-176 568,-176 568,-195"/>
<text text-anchor="middle" x="490" y="-183" font-family="Helvetica,sans-Serif" font-size="10.00">Allocator/vkstAllocatorBase.hpp</text>
</a>
</g>
</g>
<!-- Node8&#45;&gt;Node10 -->
<g id="edge9_Node000008_Node000010" class="edge">
<title>Node8&#45;&gt;Node10</title>
<g id="a_edge9_Node000008_Node000010"><a xlink:title=" ">
<path fill="none" stroke="#63b8ff" d="M534.25,-230.75C526.53,-223.03 515.1,-211.6 505.78,-202.28"/>
<polygon fill="#63b8ff" stroke="#63b8ff" points="508.14,-199.69 498.59,-195.09 503.19,-204.64 508.14,-199.69"/>
</a>
</g>
</g>
<!-- Node24 -->
<g id="Node000024" class="node">
<title>Node24</title>
<g id="a_Node000024"><a xlink:href="../../d5/d82/vkstMallocAllocator_8hpp.html" target="_top" xlink:title=" ">
<polygon fill="white" stroke="#666666" points="785.5,-195 624.5,-195 624.5,-176 785.5,-176 785.5,-195"/>
<text text-anchor="middle" x="705" y="-183" font-family="Helvetica,sans-Serif" font-size="10.00">Allocator/vkstMallocAllocator.hpp</text>
</a>
</g>
</g>
<!-- Node8&#45;&gt;Node24 -->
<g id="edge30_Node000008_Node000024" class="edge">
<title>Node8&#45;&gt;Node24</title>
<g id="a_edge30_Node000008_Node000024"><a xlink:title=" ">
<path fill="none" stroke="#63b8ff" d="M569.03,-230.98C596.11,-222.13 638.71,-208.19 669.01,-198.28"/>
<polygon fill="#63b8ff" stroke="#63b8ff" points="670.35,-201.52 678.77,-195.08 668.18,-194.87 670.35,-201.52"/>
</a>
</g>
</g>
<!-- Node25 -->
<g id="Node000025" class="node">
<title>Node25</title>
<g id="a_Node000025"><a xlink:href="../../d5/d58/vkstAllocatorMaximalFilter_8hpp.html" target="_top" xlink:title=" ">
<polygon fill="white" stroke="#666666" points="602,-140 450,-140 450,-110 602,-110 602,-140"/>
<text text-anchor="start" x="458" y="-128" font-family="Helvetica,sans-Serif" font-size="10.00">Allocator/vkstAllocatorMaximal</text>
<text text-anchor="middle" x="526" y="-117" font-family="Helvetica,sans-Serif" font-size="10.00">Filter.hpp</text>
</a>
</g>
</g>
<!-- Node8&#45;&gt;Node25 -->
<g id="edge32_Node000008_Node000025" class="edge">
<title>Node8&#45;&gt;Node25</title>
<g id="a_edge32_Node000008_Node000025"><a xlink:title=" ">
<path fill="none" stroke="#63b8ff" d="M553.38,-230.72C566.26,-218.7 585.52,-196.29 577,-176 572.25,-164.68 563.54,-154.64 554.65,-146.58"/>
<polygon fill="#63b8ff" stroke="#63b8ff" points="556.79,-143.8 546.89,-140.03 552.27,-149.15 556.79,-143.8"/>
</a>
</g>
</g>
<!-- Node10&#45;&gt;Node6 -->
<g id="edge10_Node000010_Node000006" class="edge">
<title>Node10&#45;&gt;Node6</title>
<g id="a_edge10_Node000010_Node000006"><a xlink:title=" ">
<path fill="none" stroke="#63b8ff" d="M476.77,-175.85C465.59,-167.85 450,-154.97 441,-140 430.7,-122.88 425.95,-100.31 423.78,-84.52"/>
<polygon fill="#63b8ff" stroke="#63b8ff" points="427.24,-83.93 422.61,-74.39 420.28,-84.73 427.24,-83.93"/>
</a>
</g>
</g>
<!-- Node11 -->
<g id="Node000011" class="node">
<title>Node11</title>
<g id="a_Node000011"><a xlink:href="../../d1/d72/vkstAllocatorFilter_8hpp.html" target="_top" xlink:title=" ">
<polygon fill="white" stroke="#666666" points="355.5,-134.5 242.5,-134.5 242.5,-115.5 355.5,-115.5 355.5,-134.5"/>
<text text-anchor="middle" x="299" y="-122.5" font-family="Helvetica,sans-Serif" font-size="10.00">vkstAllocatorFilter.hpp</text>
</a>
</g>
</g>
<!-- Node10&#45;&gt;Node11 -->
<g id="edge11_Node000010_Node000011" class="edge">
<title>Node10&#45;&gt;Node11</title>
<g id="a_edge11_Node000010_Node000011"><a xlink:title=" ">
<path fill="none" stroke="#63b8ff" d="M462.23,-175.99C429.13,-165.86 373.66,-148.87 336.71,-137.55"/>
<polygon fill="#63b8ff" stroke="#63b8ff" points="337.39,-134.1 326.81,-134.52 335.34,-140.79 337.39,-134.1"/>
</a>
</g>
</g>
<!-- Node15 -->
<g id="Node000015" class="node">
<title>Node15</title>
<g id="a_Node000015"><a xlink:href="../../d0/dcf/vkstAllocatorTraits_8hpp.html" target="_top" xlink:title=" ">
<polygon fill="white" stroke="#666666" points="775.5,-134.5 658.5,-134.5 658.5,-115.5 775.5,-115.5 775.5,-134.5"/>
<text text-anchor="middle" x="717" y="-122.5" font-family="Helvetica,sans-Serif" font-size="10.00">vkstAllocatorTraits.hpp</text>
</a>
</g>
</g>
<!-- Node10&#45;&gt;Node15 -->
<g id="edge18_Node000010_Node000015" class="edge">
<title>Node10&#45;&gt;Node15</title>
<g id="a_edge18_Node000010_Node000015"><a xlink:title=" ">
<path fill="none" stroke="#63b8ff" d="M523.01,-175.99C562.94,-165.7 630.24,-148.36 674.14,-137.04"/>
<polygon fill="#63b8ff" stroke="#63b8ff" points="675.14,-140.4 683.95,-134.52 673.4,-133.62 675.14,-140.4"/>
</a>
</g>
</g>
<!-- Node19 -->
<g id="Node000019" class="node">
<title>Node19</title>
<g id="a_Node000019"><a xlink:href="../../d0/d1f/vkstAlignment_8hpp.html" target="_top" xlink:title=" ">
<polygon fill="white" stroke="#666666" points="683.5,-74 576.5,-74 576.5,-55 683.5,-55 683.5,-74"/>
<text text-anchor="middle" x="630" y="-62" font-family="Helvetica,sans-Serif" font-size="10.00">../vkstAlignment.hpp</text>
</a>
</g>
</g>
<!-- Node10&#45;&gt;Node19 -->
<g id="edge29_Node000010_Node000019" class="edge">
<title>Node10&#45;&gt;Node19</title>
<g id="a_edge29_Node000010_Node000019"><a xlink:title=" ">
<path fill="none" stroke="#63b8ff" d="M545.23,-175.94C568.5,-169.65 594.06,-158.78 611,-140 624.8,-124.7 628.87,-100.76 629.92,-84.17"/>
<polygon fill="#63b8ff" stroke="#63b8ff" points="633.42,-84.16 630.25,-74.05 626.43,-83.93 633.42,-84.16"/>
</a>
</g>
</g>
<!-- Node11&#45;&gt;Node6 -->
<g id="edge12_Node000011_Node000006" class="edge">
<title>Node11&#45;&gt;Node6</title>
<g id="a_edge12_Node000011_Node000006"><a xlink:title=" ">
<path fill="none" stroke="#63b8ff" d="M316.89,-115.49C337.38,-105.75 371.19,-89.66 394.92,-78.38"/>
<polygon fill="#63b8ff" stroke="#63b8ff" points="396.57,-81.47 404.09,-74.02 393.56,-75.15 396.57,-81.47"/>
</a>
</g>
</g>
<!-- Node12 -->
<g id="Node000012" class="node">
<title>Node12</title>
<g id="a_Node000012"><a xlink:title=" ">
<polygon fill="#e0e0e0" stroke="#999999" points="325,-74 273,-74 273,-55 325,-55 325,-74"/>
<text text-anchor="middle" x="299" y="-62" font-family="Helvetica,sans-Serif" font-size="10.00">sstream</text>
</a>
</g>
</g>
<!-- Node11&#45;&gt;Node12 -->
<g id="edge13_Node000011_Node000012" class="edge">
<title>Node11&#45;&gt;Node12</title>
<g id="a_edge13_Node000011_Node000012"><a xlink:title=" ">
<path fill="none" stroke="#63b8ff" d="M299,-115.37C299,-107.25 299,-94.81 299,-84.39"/>
<polygon fill="#63b8ff" stroke="#63b8ff" points="302.5,-84.17 299,-74.17 295.5,-84.17 302.5,-84.17"/>
</a>
</g>
</g>
<!-- Node11&#45;&gt;Node13 -->
<g id="edge14_Node000011_Node000013" class="edge">
<title>Node11&#45;&gt;Node13</title>
<g id="a_edge14_Node000011_Node000013"><a xlink:title=" ">
<path fill="none" stroke="#63b8ff" d="M277.77,-115.49C253.01,-105.57 211.88,-89.09 183.65,-77.78"/>
<polygon fill="#63b8ff" stroke="#63b8ff" points="184.84,-74.49 174.26,-74.02 182.24,-80.99 184.84,-74.49"/>
</a>
</g>
</g>
<!-- Node13&#45;&gt;Node3 -->
<g id="edge16_Node000013_Node000003" class="edge">
<title>Node13&#45;&gt;Node3</title>
<g id="a_edge16_Node000013_Node000003"><a xlink:title=" ">
<path fill="none" stroke="#63b8ff" d="M141.43,-54.98C130.58,-47 114.12,-34.88 101.12,-25.31"/>
<polygon fill="#63b8ff" stroke="#63b8ff" points="102.91,-22.28 92.78,-19.17 98.76,-27.92 102.91,-22.28"/>
</a>
</g>
</g>
<!-- Node13&#45;&gt;Node4 -->
<g id="edge17_Node000013_Node000004" class="edge">
<title>Node13&#45;&gt;Node4</title>
<g id="a_edge17_Node000013_Node000004"><a xlink:title=" ">
<path fill="none" stroke="#63b8ff" d="M164.57,-54.98C175.42,-47 191.88,-34.88 204.88,-25.31"/>
<polygon fill="#63b8ff" stroke="#63b8ff" points="207.24,-27.92 213.22,-19.17 203.09,-22.28 207.24,-27.92"/>
</a>
</g>
</g>
<!-- Node14 -->
<g id="Node000014" class="node">
<title>Node14</title>
<g id="a_Node000014"><a xlink:title=" ">
<polygon fill="#e0e0e0" stroke="#999999" points="180,-19 126,-19 126,0 180,0 180,-19"/>
<text text-anchor="middle" x="153" y="-7" font-family="Helvetica,sans-Serif" font-size="10.00">iostream</text>
</a>
</g>
</g>
<!-- Node13&#45;&gt;Node14 -->
<g id="edge15_Node000013_Node000014" class="edge">
<title>Node13&#45;&gt;Node14</title>
<g id="a_edge15_Node000013_Node000014"><a xlink:title=" ">
<path fill="none" stroke="#63b8ff" d="M153,-54.75C153,-47.8 153,-37.85 153,-29.13"/>
<polygon fill="#63b8ff" stroke="#63b8ff" points="156.5,-29.09 153,-19.09 149.5,-29.09 156.5,-29.09"/>
</a>
</g>
</g>
<!-- Node15&#45;&gt;Node6 -->
<g id="edge19_Node000015_Node000006" class="edge">
<title>Node15&#45;&gt;Node6</title>
<g id="a_edge19_Node000015_Node000006"><a xlink:title=" ">
<path fill="none" stroke="#63b8ff" d="M674.1,-115.49C614.78,-103.73 508.94,-82.74 455.23,-72.09"/>
<polygon fill="#63b8ff" stroke="#63b8ff" points="455.7,-68.62 445.21,-70.1 454.34,-75.48 455.7,-68.62"/>
</a>
</g>
</g>
<!-- Node16 -->
<g id="Node000016" class="node">
<title>Node16</title>
<g id="a_Node000016"><a xlink:title=" ">
<polygon fill="#e0e0e0" stroke="#999999" points="532,-19 470,-19 470,0 532,0 532,-19"/>
<text text-anchor="middle" x="501" y="-7" font-family="Helvetica,sans-Serif" font-size="10.00">type_traits</text>
</a>
</g>
</g>
<!-- Node15&#45;&gt;Node16 -->
<g id="edge20_Node000015_Node000016" class="edge">
<title>Node15&#45;&gt;Node16</title>
<g id="a_edge20_Node000015_Node000016"><a xlink:title=" ">
<path fill="none" stroke="#63b8ff" d="M676.38,-115.45C645.21,-107.72 601.91,-94.38 568,-74 547.07,-61.42 527.32,-41.32 514.76,-27.11"/>
<polygon fill="#63b8ff" stroke="#63b8ff" points="517.09,-24.45 507.92,-19.14 511.78,-29.01 517.09,-24.45"/>
</a>
</g>
</g>
<!-- Node17 -->
<g id="Node000017" class="node">
<title>Node17</title>
<g id="a_Node000017"><a xlink:title=" ">
<polygon fill="#e0e0e0" stroke="#999999" points="746.5,-74 701.5,-74 701.5,-55 746.5,-55 746.5,-74"/>
<text text-anchor="middle" x="724" y="-62" font-family="Helvetica,sans-Serif" font-size="10.00">cstdlib</text>
</a>
</g>
</g>
<!-- Node15&#45;&gt;Node17 -->
<g id="edge21_Node000015_Node000017" class="edge">
<title>Node15&#45;&gt;Node17</title>
<g id="a_edge21_Node000015_Node000017"><a xlink:title=" ">
<path fill="none" stroke="#63b8ff" d="M718.03,-115.37C719,-107.25 720.49,-94.81 721.74,-84.39"/>
<polygon fill="#63b8ff" stroke="#63b8ff" points="725.25,-84.51 722.96,-74.17 718.3,-83.68 725.25,-84.51"/>
</a>
</g>
</g>
<!-- Node18 -->
<g id="Node000018" class="node">
<title>Node18</title>
<g id="a_Node000018"><a xlink:title=" ">
<polygon fill="#e0e0e0" stroke="#999999" points="817,-74 765,-74 765,-55 817,-55 817,-74"/>
<text text-anchor="middle" x="791" y="-62" font-family="Helvetica,sans-Serif" font-size="10.00">memory</text>
</a>
</g>
</g>
<!-- Node15&#45;&gt;Node18 -->
<g id="edge22_Node000015_Node000018" class="edge">
<title>Node15&#45;&gt;Node18</title>
<g id="a_edge22_Node000015_Node000018"><a xlink:title=" ">
<path fill="none" stroke="#63b8ff" d="M727.92,-115.37C739.51,-106.21 758.03,-91.56 772.02,-80.51"/>
<polygon fill="#63b8ff" stroke="#63b8ff" points="774.36,-83.11 780.04,-74.17 770.02,-77.62 774.36,-83.11"/>
</a>
</g>
</g>
<!-- Node15&#45;&gt;Node19 -->
<g id="edge23_Node000015_Node000019" class="edge">
<title>Node15&#45;&gt;Node19</title>
<g id="a_edge23_Node000015_Node000019"><a xlink:title=" ">
<path fill="none" stroke="#63b8ff" d="M704.16,-115.37C690.28,-106.04 667.93,-91.01 651.39,-79.88"/>
<polygon fill="#63b8ff" stroke="#63b8ff" points="653.14,-76.84 642.89,-74.17 649.24,-82.65 653.14,-76.84"/>
</a>
</g>
</g>
<!-- Node19&#45;&gt;Node16 -->
<g id="edge28_Node000019_Node000016" class="edge">
<title>Node19&#45;&gt;Node16</title>
<g id="a_edge28_Node000019_Node000016"><a xlink:title=" ">
<path fill="none" stroke="#63b8ff" d="M609.27,-54.98C588.24,-46.34 555.45,-32.87 531.46,-23.02"/>
<polygon fill="#63b8ff" stroke="#63b8ff" points="532.68,-19.73 522.1,-19.17 530.02,-26.21 532.68,-19.73"/>
</a>
</g>
</g>
<!-- Node20 -->
<g id="Node000020" class="node">
<title>Node20</title>
<g id="a_Node000020"><a xlink:title=" ">
<polygon fill="#e0e0e0" stroke="#999999" points="602,-19 550,-19 550,0 602,0 602,-19"/>
<text text-anchor="middle" x="576" y="-7" font-family="Helvetica,sans-Serif" font-size="10.00">stddef.h</text>
</a>
</g>
</g>
<!-- Node19&#45;&gt;Node20 -->
<g id="edge24_Node000019_Node000020" class="edge">
<title>Node19&#45;&gt;Node20</title>
<g id="a_edge24_Node000019_Node000020"><a xlink:title=" ">
<path fill="none" stroke="#63b8ff" d="M621.08,-54.75C613.22,-47.03 601.57,-35.6 592.08,-26.28"/>
<polygon fill="#63b8ff" stroke="#63b8ff" points="594.34,-23.6 584.75,-19.09 589.44,-28.59 594.34,-23.6"/>
</a>
</g>
</g>
<!-- Node21 -->
<g id="Node000021" class="node">
<title>Node21</title>
<g id="a_Node000021"><a xlink:title=" ">
<polygon fill="#e0e0e0" stroke="#999999" points="669.5,-19 620.5,-19 620.5,0 669.5,0 669.5,-19"/>
<text text-anchor="middle" x="645" y="-7" font-family="Helvetica,sans-Serif" font-size="10.00">stdint.h</text>
</a>
</g>
</g>
<!-- Node19&#45;&gt;Node21 -->
<g id="edge25_Node000019_Node000021" class="edge">
<title>Node19&#45;&gt;Node21</title>
<g id="a_edge25_Node000019_Node000021"><a xlink:title=" ">
<path fill="none" stroke="#63b8ff" d="M632.48,-54.75C634.46,-47.72 637.32,-37.62 639.81,-28.84"/>
<polygon fill="#63b8ff" stroke="#63b8ff" points="643.21,-29.66 642.57,-19.09 636.48,-27.76 643.21,-29.66"/>
</a>
</g>
</g>
<!-- Node22 -->
<g id="Node000022" class="node">
<title>Node22</title>
<g id="a_Node000022"><a xlink:title=" ">
<polygon fill="#e0e0e0" stroke="#999999" points="736,-19 688,-19 688,0 736,0 736,-19"/>
<text text-anchor="middle" x="712" y="-7" font-family="Helvetica,sans-Serif" font-size="10.00">limits.h</text>
</a>
</g>
</g>
<!-- Node19&#45;&gt;Node22 -->
<g id="edge26_Node000019_Node000022" class="edge">
<title>Node19&#45;&gt;Node22</title>
<g id="a_edge26_Node000019_Node000022"><a xlink:title=" ">
<path fill="none" stroke="#63b8ff" d="M643.17,-54.98C655.77,-46.84 675,-34.41 689.94,-24.76"/>
<polygon fill="#63b8ff" stroke="#63b8ff" points="692.09,-27.54 698.59,-19.17 688.29,-21.66 692.09,-27.54"/>
</a>
</g>
</g>
<!-- Node23 -->
<g id="Node000023" class="node">
<title>Node23</title>
<g id="a_Node000023"><a xlink:title=" ">
<polygon fill="#e0e0e0" stroke="#999999" points="813.5,-19 754.5,-19 754.5,0 813.5,0 813.5,-19"/>
<text text-anchor="middle" x="784" y="-7" font-family="Helvetica,sans-Serif" font-size="10.00">stdalign.h</text>
</a>
</g>
</g>
<!-- Node19&#45;&gt;Node23 -->
<g id="edge27_Node000019_Node000023" class="edge">
<title>Node19&#45;&gt;Node23</title>
<g id="a_edge27_Node000019_Node000023"><a xlink:title=" ">
<path fill="none" stroke="#63b8ff" d="M654.74,-54.98C680.37,-46.16 720.63,-32.31 749.41,-22.41"/>
<polygon fill="#63b8ff" stroke="#63b8ff" points="750.75,-25.65 759.06,-19.08 748.47,-19.03 750.75,-25.65"/>
</a>
</g>
</g>
<!-- Node24&#45;&gt;Node15 -->
<g id="edge31_Node000024_Node000015" class="edge">
<title>Node24&#45;&gt;Node15</title>
<g id="a_edge31_Node000024_Node000015"><a xlink:title=" ">
<path fill="none" stroke="#63b8ff" d="M706.77,-175.87C708.45,-167.66 711.04,-155.04 713.19,-144.55"/>
<polygon fill="#63b8ff" stroke="#63b8ff" points="716.64,-145.17 715.22,-134.67 709.78,-143.76 716.64,-145.17"/>
</a>
</g>
</g>
<!-- Node25&#45;&gt;Node6 -->
<g id="edge33_Node000025_Node000006" class="edge">
<title>Node25&#45;&gt;Node6</title>
<g id="a_edge33_Node000025_Node000006"><a xlink:title=" ">
<path fill="none" stroke="#63b8ff" d="M501.09,-109.99C484.51,-100.66 462.84,-88.47 446.37,-79.21"/>
<polygon fill="#63b8ff" stroke="#63b8ff" points="447.79,-75.99 437.36,-74.14 444.36,-82.09 447.79,-75.99"/>
</a>
</g>
</g>
</g>
</svg>
